<svg width="108" height="110" viewBox="0 0 108 110" fill="none" xmlns="http://www.w3.org/2000/svg">
<path d="M99.8734 22.3684C105.32 23.4756 108 24.9695 108 26.6567V34.2316C108 34.7237 107.51 34.7237 107.212 34.3195C105.951 30.6269 103.324 27.5622 99.8734 25.7603C96.3086 23.7087 92.2658 22.6414 88.1564 22.6672C84.1036 22.5954 80.0861 23.434 76.3981 25.1218C72.71 26.8095 69.4449 29.3036 66.8416 32.4213C61.3036 38.6606 58.2977 46.7564 58.4172 55.1109C58.3099 63.5878 61.3862 71.7946 67.0342 78.0992C69.7656 81.1824 73.1315 83.6341 76.8992 85.2848C80.6669 86.9355 84.7467 87.7458 88.857 87.66C92.7121 87.5977 96.4801 86.4992 99.7683 84.4789C103.156 82.6188 105.79 79.6283 107.212 76.0253C107.492 75.621 108 75.621 108 76.0253V83.688C108 85.4456 105.32 86.8691 100.066 87.9588C96.1563 88.8996 92.1706 89.4878 88.1564 89.7163C83.5774 89.82 79.0238 89.0046 74.7632 87.3179C70.5025 85.6311 66.6208 83.1071 63.3457 79.894C60.0707 76.6809 57.4684 72.8436 55.6918 68.6073C53.9152 64.371 53 59.8212 53 55.2251C53 50.629 53.9152 46.0792 55.6918 41.8429C57.4684 37.6066 60.0707 33.7693 63.3457 30.5562C66.6208 27.3431 70.5025 24.8191 74.7632 23.1323C79.0238 21.4456 83.5774 20.6302 88.1564 20.7339C92.1051 20.9808 96.0253 21.5688 99.8734 22.4914V22.3684Z" fill="#EBB713"/>
<path d="M8.11312 88.1074C2.66951 86.9996 0 85.5225 0 83.8169V76.2557C0 75.7458 0.506016 75.7458 0.802623 76.1502C2.04063 79.8549 4.66324 82.927 8.11312 84.7137C11.6573 86.7681 15.6796 87.8361 19.768 87.8084C23.8063 87.8866 27.8105 87.0503 31.4855 85.3613C35.1604 83.6722 38.4123 81.1735 41.0016 78.0493C46.5248 71.8095 49.5256 63.7092 49.4113 55.3482C49.5117 46.8649 46.441 38.6542 40.8097 32.3482C38.0902 29.2615 34.7375 26.8073 30.9838 25.1556C27.2301 23.5039 23.1651 22.6942 19.0701 22.7825C15.2368 22.8555 11.4915 23.9539 8.21781 25.9652C4.82919 27.8175 2.20185 30.8205 0.802623 34.4407C0.506016 34.8276 0.0174645 34.8276 0.0174645 34.4407V26.774C0.0174645 25.0156 2.66948 23.5737 7.92118 22.4835C11.8083 21.5327 15.774 20.9441 19.768 20.7251C28.8469 20.7251 37.554 24.3599 43.9737 30.8299C50.3935 37.3 54 46.0751 54 55.2251C54 64.3751 50.3935 73.1503 43.9737 79.6203C37.554 86.0903 28.8469 89.7251 19.768 89.7251C15.8402 89.4766 11.9409 88.8883 8.11312 87.9667V88.1074Z" fill="#EBB713"/>
<path d="M87.3119 101.627C86.2217 107.072 84.7271 109.725 83.0214 109.725H75.4603C74.9679 109.725 74.9679 109.236 75.3548 108.94C79.0557 107.695 82.1256 105.073 83.9182 101.627C85.9687 98.0799 87.0365 94.0574 87.013 89.9681C87.0913 85.926 86.2551 81.9179 84.5661 78.2389C82.8772 74.56 80.3784 71.3038 77.2538 68.7102C71.0294 63.2079 62.9576 60.2137 54.6231 60.3153C46.1425 60.2118 37.9327 63.2768 31.6231 68.9022C28.5415 71.6257 26.0919 74.9805 24.4434 78.735C22.7949 82.4895 21.9868 86.5543 22.0749 90.6488C22.1372 94.4905 23.2363 98.2453 25.2576 101.522C27.1092 104.906 30.1044 107.533 33.7156 108.94C34.12 109.236 34.1024 109.725 33.7156 109.725H26.0489C24.2905 109.725 22.8662 107.055 21.7584 101.819C20.8076 97.9304 20.219 93.9635 20 89.9681C20 80.8863 23.6348 72.1765 30.1048 65.7547C36.5749 59.3329 45.35 55.7251 54.5 55.7251C63.65 55.7251 72.4252 59.3329 78.8952 65.7547C85.3652 72.1765 89 80.8863 89 89.9681C88.7461 93.8966 88.1578 97.7967 87.2416 101.627H87.3119Z" fill="#EBB713"/>
<path d="M21.5423 8.82076C22.6167 3.39459 24.0897 0.725098 25.7533 0.725098H33.2222C33.7074 0.725098 33.7074 1.21365 33.3089 1.51026C29.6706 2.77067 26.6504 5.38688 24.8695 8.82076C22.8595 12.3765 21.8136 16.4019 21.8369 20.4931C21.7624 24.5311 22.5877 28.5345 24.252 32.209C25.9164 35.8836 28.3776 39.1358 31.4546 41.7267C37.5994 47.2555 45.5868 50.2517 53.8267 50.1189C62.1844 50.2224 70.2752 47.1583 76.4933 41.5348C79.5294 38.8114 81.9429 35.4576 83.5674 31.7045C85.1919 27.9514 85.9888 23.8883 85.9032 19.7952C85.8396 15.9606 84.7565 12.2132 82.7666 8.9429C80.9478 5.55548 77.994 2.92782 74.4312 1.52772C74.0326 1.23111 74.0326 0.742545 74.4312 0.725098H82.0387C83.7717 0.725098 85.1753 3.39456 86.2671 8.62881C87.2034 12.522 87.7834 16.4934 88 20.4931C88 29.572 84.4178 38.2791 78.0416 44.6988C71.6654 51.1185 63.0174 54.7251 54 54.7251C44.9826 54.7251 36.3346 51.1185 29.9583 44.6988C23.5821 38.2791 20 29.572 20 20.4931C20.2502 16.5659 20.8299 12.6671 21.7329 8.83822L21.5423 8.82076Z" fill="#EBB713"/>
<path d="M99.8734 22.3684C105.32 23.4756 108 24.9695 108 26.6567V34.2316C108 34.7237 107.51 34.7237 107.212 34.3195C105.951 30.6269 103.324 27.5622 99.8734 25.7603C96.3086 23.7087 92.2658 22.6414 88.1564 22.6672C84.1036 22.5954 80.0861 23.434 76.3981 25.1218C72.71 26.8095 69.4449 29.3036 66.8416 32.4213C61.3036 38.6606 58.2977 46.7564 58.4172 55.1109C58.3099 63.5878 61.3862 71.7946 67.0342 78.0992C69.7656 81.1824 73.1315 83.6341 76.8992 85.2848C80.6669 86.9355 84.7467 87.7458 88.857 87.66C92.7121 87.5977 96.4801 86.4992 99.7683 84.4789C103.156 82.6188 105.79 79.6283 107.212 76.0253C107.492 75.621 108 75.621 108 76.0253V83.688C108 85.4456 105.32 86.8691 100.066 87.9588C96.1563 88.8996 92.1706 89.4878 88.1564 89.7163C83.5774 89.82 79.0238 89.0046 74.7632 87.3179C70.5025 85.6311 66.6208 83.1071 63.3457 79.894C60.0707 76.6809 57.4684 72.8436 55.6918 68.6073C53.9152 64.371 53 59.8212 53 55.2251C53 50.629 53.9152 46.0792 55.6918 41.8429C57.4684 37.6066 60.0707 33.7693 63.3457 30.5562C66.6208 27.3431 70.5025 24.8191 74.7632 23.1323C79.0238 21.4456 83.5774 20.6302 88.1564 20.7339C92.1051 20.9808 96.0253 21.5688 99.8734 22.4914V22.3684Z" fill="#EBB713"/>
<path d="M8.11312 88.1074C2.66951 86.9996 0 85.5225 0 83.8169V76.2557C0 75.7458 0.506016 75.7458 0.802623 76.1502C2.04063 79.8549 4.66324 82.927 8.11312 84.7137C11.6573 86.7681 15.6796 87.8361 19.768 87.8084C23.8063 87.8866 27.8105 87.0503 31.4855 85.3613C35.1604 83.6722 38.4123 81.1735 41.0016 78.0493C46.5248 71.8095 49.5256 63.7092 49.4113 55.3482C49.5117 46.8649 46.441 38.6542 40.8097 32.3482C38.0902 29.2615 34.7375 26.8073 30.9838 25.1556C27.2301 23.5039 23.1651 22.6942 19.0701 22.7825C15.2368 22.8555 11.4915 23.9539 8.21781 25.9652C4.82919 27.8175 2.20185 30.8205 0.802623 34.4407C0.506016 34.8276 0.0174645 34.8276 0.0174645 34.4407V26.774C0.0174645 25.0156 2.66948 23.5737 7.92118 22.4835C11.8083 21.5327 15.774 20.9441 19.768 20.7251C28.8469 20.7251 37.554 24.3599 43.9737 30.8299C50.3935 37.3 54 46.0751 54 55.2251C54 64.3751 50.3935 73.1503 43.9737 79.6203C37.554 86.0903 28.8469 89.7251 19.768 89.7251C15.8402 89.4766 11.9409 88.8883 8.11312 87.9667V88.1074Z" fill="#EBB713"/>
<path d="M87.3119 101.627C86.2217 107.072 84.7271 109.725 83.0214 109.725H75.4603C74.9679 109.725 74.9679 109.236 75.3548 108.94C79.0557 107.695 82.1256 105.073 83.9182 101.627C85.9687 98.0799 87.0365 94.0574 87.013 89.9681C87.0913 85.926 86.2551 81.9179 84.5661 78.2389C82.8772 74.56 80.3784 71.3038 77.2538 68.7102C71.0294 63.2079 62.9576 60.2137 54.6231 60.3153C46.1425 60.2118 37.9327 63.2768 31.6231 68.9022C28.5415 71.6257 26.0919 74.9805 24.4434 78.735C22.7949 82.4895 21.9868 86.5543 22.0749 90.6488C22.1372 94.4905 23.2363 98.2453 25.2576 101.522C27.1092 104.906 30.1044 107.533 33.7156 108.94C34.12 109.236 34.1024 109.725 33.7156 109.725H26.0489C24.2905 109.725 22.8662 107.055 21.7584 101.819C20.8076 97.9304 20.219 93.9635 20 89.9681C20 80.8863 23.6348 72.1765 30.1048 65.7547C36.5749 59.3329 45.35 55.7251 54.5 55.7251C63.65 55.7251 72.4252 59.3329 78.8952 65.7547C85.3652 72.1765 89 80.8863 89 89.9681C88.7461 93.8966 88.1578 97.7967 87.2416 101.627H87.3119Z" fill="#EBB713"/>
<path d="M21.5423 8.82076C22.6167 3.39459 24.0897 0.725098 25.7533 0.725098H33.2222C33.7074 0.725098 33.7074 1.21365 33.3089 1.51026C29.6706 2.77067 26.6504 5.38688 24.8695 8.82076C22.8595 12.3765 21.8136 16.4019 21.8369 20.4931C21.7624 24.5311 22.5877 28.5345 24.252 32.209C25.9164 35.8836 28.3776 39.1358 31.4546 41.7267C37.5994 47.2555 45.5868 50.2517 53.8267 50.1189C62.1844 50.2224 70.2752 47.1583 76.4933 41.5348C79.5294 38.8114 81.9429 35.4576 83.5674 31.7045C85.1919 27.9514 85.9888 23.8883 85.9032 19.7952C85.8396 15.9606 84.7565 12.2132 82.7666 8.9429C80.9478 5.55548 77.994 2.92782 74.4312 1.52772C74.0326 1.23111 74.0326 0.742545 74.4312 0.725098H82.0387C83.7717 0.725098 85.1753 3.39456 86.2671 8.62881C87.2034 12.522 87.7834 16.4934 88 20.4931C88 29.572 84.4178 38.2791 78.0416 44.6988C71.6654 51.1185 63.0174 54.7251 54 54.7251C44.9826 54.7251 36.3346 51.1185 29.9583 44.6988C23.5821 38.2791 20 29.572 20 20.4931C20.2502 16.5659 20.8299 12.6671 21.7329 8.83822L21.5423 8.82076Z" fill="#EBB713"/>
</svg>
