<svg width="285" height="59" viewBox="0 0 285 59" fill="none" xmlns="http://www.w3.org/2000/svg">
<path d="M33.979 8.62955C31.1302 4.33573 26.2612 1.06425 19.3591 0.187022C16.0324 -0.343907 12.6291 0.262808 9.66568 1.9151C3.73233 5.41084 1.68657 13.0487 3.71958 18.7144C4.21259 20.1606 5.01057 21.4751 6.05561 22.5623C7.10064 23.6496 8.3665 24.4823 9.76127 25.0002C8.95826 26.7876 8.1425 28.5421 7.33949 30.1646C5.61876 33.6538 3.96176 36.5427 2.63616 37.908C1.99885 37.7695 1.36153 37.6244 0.666866 37.4595C0.574689 37.4321 0.477009 37.4315 0.384513 37.4577C0.292017 37.4839 0.208271 37.536 0.142459 37.6082C0.0766475 37.6804 0.0313057 37.77 0.0113914 37.867C-0.00852285 37.9641 -0.00223984 38.065 0.0295569 38.1587C0.0936217 38.4622 0.22244 38.747 0.406588 38.9924C0.590735 39.2378 0.825552 39.4374 1.09386 39.5767C1.40589 39.6994 1.75055 39.6994 2.06257 39.5767C2.37442 39.4589 2.66357 39.2847 2.91657 39.0623C18.008 42.0765 28.0712 37.4529 33.1314 30.4878C37.9941 23.8327 38.2681 15.0142 33.979 8.55041V8.62955ZM32.2901 29.914C27.4912 36.5097 17.9953 40.8036 3.82792 38.1785C5.10254 36.6285 6.67669 33.8978 8.28909 30.6593C9.11759 28.984 9.95883 27.1768 10.7873 25.3234C13.4449 26.0225 16.7972 25.8444 20.8441 24.3802C20.9163 24.3628 20.9842 24.33 21.0434 24.2837C21.1025 24.2374 21.1516 24.1788 21.1875 24.1117C21.2234 24.0445 21.2452 23.9702 21.2515 23.8938C21.2579 23.8173 21.2486 23.7403 21.2244 23.6678C21.2001 23.5953 21.1614 23.5289 21.1107 23.4728C21.0601 23.4168 20.9986 23.3724 20.9303 23.3426C20.862 23.3127 20.7883 23.2981 20.7142 23.2995C20.6401 23.301 20.5671 23.3187 20.4999 23.3512C16.778 24.6704 13.6935 24.8946 11.2462 24.2944C14.3563 17.237 17.1923 9.84318 18.1801 7.29722C18.3203 6.92786 18.4542 6.59807 18.4988 6.48594C18.5406 6.41941 18.5682 6.34436 18.5795 6.26585C18.5909 6.18735 18.5858 6.10722 18.5647 6.03091C18.5435 5.95461 18.5068 5.88391 18.4569 5.82359C18.4071 5.76326 18.3453 5.71471 18.2757 5.68126C18.1538 5.62171 18.0142 5.61391 17.8867 5.65952C17.7593 5.70513 17.6541 5.80053 17.5938 5.92532C17.5938 5.98468 17.4281 6.32106 17.205 6.89489C16.2108 9.44744 13.3812 16.9072 10.1946 23.9844C8.92446 23.5333 7.76903 22.7914 6.81452 21.8138C5.86001 20.8362 5.13102 19.6482 4.68191 18.3385C3.73403 15.4996 3.7617 12.4091 4.76023 9.58884C5.75876 6.76858 7.66699 4.39128 10.1628 2.85829C12.931 1.32075 16.1085 0.760327 19.2126 1.26213C25.7577 2.09979 30.391 5.16681 33.0932 9.24297C37.1337 15.3308 36.8469 23.6415 32.2646 29.914H32.2901ZM17.5237 6.20893C17.5202 6.24622 17.5202 6.28376 17.5237 6.32105C17.5194 6.2838 17.5194 6.24617 17.5237 6.20893Z" fill="#272326"/>
<path d="M78.1508 32.1135C73.7957 36.1524 70.9266 38.0865 69.0161 38.6674C67.9675 38.9886 67.2599 38.8792 66.7967 38.4145C66.476 38.0486 66.2538 37.5977 66.1534 37.1092C65.93 36.0989 65.8156 35.0648 65.8125 34.027C65.8089 32.9992 65.7509 31.9725 65.6388 30.9516C65.5889 30.3921 65.3622 29.867 64.9955 29.4618C64.5967 29.0996 64.0113 28.9834 63.1493 29.5028C62.0557 30.1862 60.3059 32.0041 57.4883 35.7082L59.8878 29.742C59.9288 29.6074 59.921 29.4613 59.8659 29.3325C59.8107 29.2036 59.7122 29.1013 59.5898 29.0457C59.4673 28.99 59.3296 28.985 59.2038 29.0317C59.0781 29.0783 58.9733 29.1733 58.91 29.2978L57.8292 31.9836C57.772 32.005 57.7178 32.0349 57.6684 32.0725C54.0531 35.1683 51.2355 36.665 49.0354 37.1365C46.8354 37.6081 45.4202 36.9998 44.5324 35.9884C45.1918 34.8379 45.6536 33.5722 45.8962 32.2501C46.1985 30.3707 45.5874 29.1543 44.2301 29.332C43.9479 29.3796 43.6791 29.4932 43.4433 29.6646C43.2075 29.8359 43.0104 30.0608 42.8663 30.3229C42.407 31.1982 42.2179 32.2046 42.3259 33.2001C42.3995 34.2199 42.7112 35.204 43.233 36.0636C42.7985 36.7515 42.2743 37.3704 41.6762 37.902C40.6855 38.7494 39.534 39.1526 38.3697 38.5307C37.2053 37.9088 36.8837 36.5146 37.1474 35.1136C37.5849 32.8105 39.4954 30.3297 42.0686 30.2204C42.2085 30.214 42.3403 30.1489 42.435 30.0394C42.5297 29.9298 42.5796 29.7847 42.5736 29.6361C42.5676 29.4875 42.5063 29.3474 42.4032 29.2468C42.3 29.1462 42.1635 29.0933 42.0236 29.0996C38.9486 29.2431 36.6264 32.1408 36.1117 34.895C35.7451 36.8495 36.2661 38.7016 37.8937 39.5627C39.5212 40.4238 41.0136 39.9317 42.3388 38.7972C42.9455 38.2707 43.4822 37.6592 43.9342 36.9794C44.6117 37.6674 45.4635 38.1305 46.3851 38.312C48.6688 38.8041 52.1232 37.9225 57.0187 34.068L54.928 39.2004C54.8745 39.3268 54.867 39.4697 54.9069 39.6016C54.9467 39.7335 55.0312 39.845 55.1439 39.9147C55.2566 39.9843 55.3897 40.0071 55.5173 39.9787C55.6449 39.9503 55.7581 39.8727 55.835 39.7609C59.817 34.232 62.1329 31.5599 63.4966 30.5963C63.6628 30.4735 63.8448 30.3768 64.037 30.3092C64.1083 30.2864 64.1844 30.2864 64.2557 30.3092C64.3008 30.3092 64.3329 30.3639 64.3586 30.4118C64.4121 30.4983 64.4532 30.5927 64.4809 30.6919C64.6837 31.8176 64.7699 32.9634 64.7382 34.109C64.7188 35.5058 64.9367 36.8949 65.3815 38.2095C65.5368 38.6229 65.7804 38.9924 66.0929 39.2888C66.4055 39.5853 66.7785 39.8007 67.1827 39.918C68.2969 40.1171 69.4418 39.9176 70.4377 39.3508C72.3676 38.4487 75.0887 36.4941 78.8584 33.0019C78.9479 32.8988 78.9984 32.7643 79 32.6241C79.0016 32.4839 78.9542 32.348 78.8671 32.2427C78.7799 32.1374 78.6592 32.0701 78.5281 32.0538C78.397 32.0375 78.2649 32.0734 78.1572 32.1545L78.1508 32.1135ZM43.8505 34.9701C43.7926 34.8471 43.7412 34.7309 43.6961 34.6079C43.2851 33.5511 43.244 32.3728 43.5803 31.2865C43.7476 30.8491 43.992 30.5074 44.3523 30.4528C44.4643 30.4286 44.5807 30.448 44.6804 30.5074C44.7748 30.5957 44.8363 30.7169 44.8541 30.8491C44.9275 31.2509 44.9275 31.6639 44.8541 32.0656C44.6663 33.0841 44.3276 34.0645 43.8505 34.9701Z" fill="#272326"/>
<path d="M182.922 31.6917C182.896 31.627 182.858 31.5681 182.809 31.5184C182.76 31.4688 182.703 31.4292 182.639 31.4021C182.575 31.3751 182.506 31.3609 182.437 31.3606C182.368 31.3602 182.299 31.3737 182.235 31.4001C178.009 33.0596 174.052 35.3464 170.494 38.1851C170.494 38.1267 170.494 38.0749 170.494 38.0166C170.43 37.312 170.145 36.6466 169.679 36.1178C170.44 35.7861 171.122 35.2916 171.676 34.6685C172.23 34.0453 172.644 33.3084 172.889 32.5083C173.079 31.9967 173.145 31.4464 173.08 30.9038C173.015 30.3612 172.822 29.8424 172.516 29.3912C172.273 29.1096 171.962 28.8961 171.614 28.7713C171.265 28.6464 170.891 28.6144 170.526 28.6784C169.441 28.8015 167.913 29.5597 165.975 31.4001C165.929 31.4174 165.885 31.4414 165.846 31.4714C160.935 35.2884 157.584 37.1223 155.325 37.699C154.124 37.9971 153.271 37.9388 152.68 37.5889C151.807 37.064 151.563 35.9429 151.544 34.744C151.592 32.9298 151.93 31.1354 152.545 29.4301C152.6 29.3244 152.618 29.2034 152.597 29.0862C152.576 28.9689 152.517 28.8619 152.43 28.7821C152.332 28.6963 152.206 28.6492 152.077 28.6492C151.947 28.6492 151.821 28.6963 151.723 28.7821C151.723 28.7821 151.723 28.7821 151.666 28.8469C147.814 33.7395 145.278 36.3122 143.731 37.3815C143.449 37.5856 143.14 37.7491 142.813 37.8675C142.64 37.9194 142.518 37.9518 142.441 37.8675C142.374 37.7673 142.334 37.6511 142.325 37.5306C142.295 37.2809 142.295 37.0285 142.325 36.7788C142.456 35.6266 142.719 34.4936 143.108 33.4026C143.568 32.0977 144.117 30.8266 144.752 29.5986C144.853 29.5291 144.927 29.4269 144.962 29.309C144.997 29.191 144.991 29.0645 144.944 28.9505C144.919 28.8853 144.881 28.8257 144.833 28.7753C144.784 28.7249 144.726 28.6847 144.663 28.657C144.599 28.6293 144.53 28.6146 144.461 28.6139C144.391 28.6131 144.322 28.6262 144.258 28.6525C144.054 28.7579 143.886 28.9227 143.776 29.1255C143.351 29.87 142.986 30.648 142.685 31.452L142.608 31.5038C139.225 34.3357 135.713 36.4483 132.978 37.3815C132.224 37.6582 131.436 37.8304 130.635 37.8935C130.131 37.9546 129.621 37.8597 129.172 37.6213C128.934 37.449 128.749 37.2137 128.635 36.9415C128.522 36.6693 128.485 36.3708 128.53 36.0789C128.581 34.6468 129.422 32.5018 131.264 29.5079C131.35 29.3953 131.387 29.2532 131.368 29.1128C131.35 28.9724 131.276 28.8453 131.165 28.7594C131.053 28.6735 130.913 28.6358 130.774 28.6546C130.635 28.6734 130.509 28.7473 130.423 28.8598C128.575 30.9595 126.918 31.8213 125.622 31.9445C124.991 32.0309 124.352 31.8633 123.843 31.4779C123.773 31.4197 123.709 31.3546 123.651 31.2835C123.814 30.839 123.93 30.3785 123.998 29.9096C124.037 29.665 124.037 29.4155 123.998 29.1709C123.979 29.0747 123.938 28.9844 123.878 28.9077C123.817 28.831 123.74 28.7701 123.651 28.7302C123.544 28.6828 123.425 28.6698 123.31 28.693C123.195 28.7162 123.09 28.7744 123.009 28.8598C122.666 29.1641 122.429 29.571 122.332 30.0211C122.235 30.4712 122.283 30.9408 122.47 31.3612C118.78 34.0505 114.715 36.1712 110.407 37.6537C106.44 38.9044 99.7767 39.9996 94.4293 39.5136C91.6753 39.1636 89.8008 38.2175 88.8443 36.74C88.0354 35.4439 87.8814 33.7849 88.3949 31.7371C89.1653 28.633 91.2002 25.0688 94.1147 21.7055C98.8972 16.2037 105.156 11.635 110.863 9.48355C115.087 7.89586 118.952 7.7144 121.776 8.97159C122.215 9.14228 122.6 9.43146 122.887 9.80757C123.251 10.4418 123.391 11.182 123.285 11.9072C123.276 12.0581 123.326 12.2065 123.425 12.3204C123.523 12.4344 123.662 12.5047 123.811 12.5164C123.885 12.5224 123.96 12.5134 124.03 12.4901C124.101 12.4667 124.166 12.4294 124.222 12.3803C124.279 12.331 124.326 12.2706 124.359 12.2026C124.392 12.1347 124.411 12.0606 124.415 11.985C124.547 11.0017 124.336 10.0027 123.818 9.15953C123.416 8.60764 122.869 8.18094 122.239 7.92824C119.151 6.54793 115.177 6.70994 110.683 8.39483C104.803 10.6046 98.3773 15.2964 93.4792 20.9343C90.2694 24.6152 88.0996 28.3544 87.3293 31.4584C86.7387 33.8238 86.9441 35.8133 87.9327 37.3556C89.0818 39.1636 91.2645 40.2782 94.4036 40.6606C95.3087 40.7383 96.246 40.7772 97.2025 40.7772C101.805 40.7309 106.379 40.0396 110.793 38.7229C115.139 37.219 119.247 35.0886 122.99 32.3981C123.066 32.3763 123.137 32.3363 123.195 32.2815C123.709 32.7009 124.339 32.9499 124.999 32.9943C126.387 33.048 127.749 32.6102 128.851 31.7566C128.135 33.0753 127.688 34.525 127.535 36.0206C127.473 36.5015 127.546 36.9903 127.746 37.4313C127.946 37.8724 128.264 38.248 128.665 38.5156C129.422 38.9822 130.59 39.0729 131.983 38.7618C134.648 38.1851 138.358 36.2021 142.049 33.3313C141.609 34.5713 141.356 35.8711 141.298 37.1871C141.283 37.664 141.423 38.1327 141.696 38.5221C142.056 38.9498 142.659 39.1701 143.622 38.697C144.944 38.049 147.236 35.9947 150.94 31.5038C150.695 32.5662 150.57 33.6532 150.568 34.744C150.568 36.3511 151.049 37.7898 152.218 38.4896C152.988 38.9498 154.099 39.1377 155.659 38.7165C157.982 38.1267 161.436 36.2734 166.463 32.3852C166.54 32.361 166.61 32.3188 166.668 32.262C167.665 31.1833 168.892 30.3478 170.257 29.8189C170.507 29.7021 170.786 29.6631 171.058 29.7069C171.33 29.7508 171.583 29.8755 171.784 30.0652C171.978 30.3794 172.093 30.7357 172.122 31.1043C172.151 31.4729 172.093 31.8432 171.951 32.1843C171.7 33.0039 171.231 33.7387 170.597 34.3097C169.962 34.8806 169.185 35.2661 168.35 35.4244C168.279 35.4374 168.212 35.4648 168.153 35.5049C168.093 35.545 168.042 35.597 168.003 35.6576C167.964 35.7183 167.938 35.7864 167.925 35.8577C167.913 35.9291 167.916 36.0022 167.933 36.0725C167.952 36.1699 167.998 36.2601 168.065 36.3332C168.132 36.4064 168.217 36.4596 168.311 36.4872C168.66 36.6066 168.963 36.8334 169.177 37.1357C169.391 37.4379 169.506 37.8005 169.506 38.1721C169.545 38.4663 169.558 38.7634 169.544 39.0599C161.956 45.6764 159.536 53.077 159.273 56.5051C159.175 57.1932 159.259 57.8952 159.517 58.5399C159.578 58.6754 159.677 58.7905 159.801 58.8719C159.925 58.9534 160.069 58.9977 160.216 59C160.394 59.0006 160.568 58.956 160.724 58.8704C161.103 58.6421 161.444 58.3532 161.731 58.015C163.702 55.8829 167.239 49.9988 169.191 44.8404C169.871 43.1564 170.328 41.3893 170.552 39.5848C174.185 36.552 178.277 34.1278 182.672 32.4046C182.736 32.3783 182.794 32.3394 182.844 32.2903C182.893 32.2412 182.932 32.1828 182.959 32.1184C182.986 32.054 183 31.9848 183 31.915C183 31.8451 182.987 31.7759 182.961 31.7112L182.922 31.6917ZM168.157 44.4451C166.509 48.6776 164.333 52.6803 161.68 56.356C161.315 56.8614 160.897 57.3262 160.435 57.7428L160.351 57.8011C160.286 57.3942 160.262 56.9816 160.281 56.5699C160.512 53.401 162.694 46.7845 169.268 40.6541C168.993 41.9471 168.613 43.215 168.132 44.4451H168.157Z" fill="#272326"/>
<path d="M192.499 31.4719C191.956 31.4719 191.545 31.3474 191.545 31.1606C191.545 30.7871 191.729 30.5025 191.825 30.5025C192.004 30.5402 192.185 30.564 192.367 30.5737C194.904 30.5737 196.181 28.9461 196.181 26.4202C196.181 24.5525 195.455 23.0228 193.557 23.0228C192.91 23.0228 192.682 23.1295 192.542 23.2363C192.402 23.343 192.289 23.6543 192.052 24.7571L189.857 35.2429C189.763 35.6492 189.701 36.0626 189.673 36.4792C189.673 36.9772 189.778 37.1284 190.426 37.1284C191.073 37.1284 191.125 37.2174 191.125 37.3419C191.125 37.6354 190.994 38 190.863 38C190.478 38 189.778 37.8933 188.3 37.8933C187.294 37.8933 186.621 38 186.201 38C186.07 38 186 37.7866 186 37.3152C186 37.1818 186.149 37.1284 186.638 37.1284C187.513 37.1284 187.758 36.8171 187.985 35.6787L190.242 25.0061C190.337 24.573 190.399 24.1328 190.426 23.6898C190.426 23.085 190.294 22.8716 189.551 22.8716C189.166 22.8716 189.061 22.8182 189.061 22.6848C189.061 22.3202 189.192 22 189.315 22C189.437 22 190.067 22.1067 191.362 22.1067C191.878 22.1067 192.761 22 193.985 22C196.723 22 198 23.9211 198 26.269C198 29.5864 195.927 31.5075 192.481 31.5075L192.499 31.4719Z" fill="#272326"/>
<path d="M203.354 23.2344L200.918 33.5829C200.738 34.2683 200.622 34.9704 200.57 35.6794C200.57 36.0737 200.714 36.2618 200.943 36.2618C201.792 36.2618 202.378 34.4699 202.641 34.4699C202.904 34.4699 203.192 34.6311 203.192 34.7924C203.127 35.0806 203.018 35.3559 202.87 35.6078C202.267 36.7815 200.909 38 200.154 38C199.399 38 199 37.5251 199 36.1453C199.042 35.1206 199.196 34.1044 199.458 33.117L201.792 23.2613C201.901 22.8644 201.967 22.4556 201.987 22.0428C201.987 21.6486 201.741 21.5142 200.638 21.5142C200.511 21.5142 200.434 21.4067 200.434 21.0124C200.434 20.8512 200.587 20.7436 200.96 20.663C202.14 20.4569 203.506 20 203.769 20C204.033 20 203.999 20.1075 203.999 20.3494C203.999 20.5913 203.769 21.2454 203.32 23.2344H203.354Z" fill="#272326"/>
<path d="M214.688 35.7902C214.09 36.8048 212.767 38 212.161 38C211.554 38 210.914 37.5185 210.914 36.4953C210.945 35.8444 211.097 35.2055 211.361 34.6122C211.462 34.3886 211.361 34.2855 211.31 34.2855C211.259 34.2855 211.133 34.3629 211.04 34.509C209.49 36.779 208.142 38 206.896 38C205.851 38 205 36.8048 205 35.3775C205 31.1814 208.521 28 210.636 28C210.968 28.0032 211.295 28.0775 211.597 28.2183C211.899 28.359 212.169 28.5629 212.388 28.8168C212.515 28.9372 212.582 29.0404 212.683 29.0404C212.784 29.0404 212.987 28.8168 213.079 28.6105C213.172 28.4041 213.307 28.2321 213.433 28.2321H213.981C214.082 28.2321 214.132 28.3353 214.132 28.4557C214.132 28.5761 213.905 29.3156 213.61 30.5967L212.81 33.9329C212.636 34.5406 212.512 35.1618 212.439 35.7902C212.439 36.1169 212.515 36.2975 212.835 36.2975C213.458 36.2975 214.284 34.8186 214.52 34.8186C214.632 34.8288 214.738 34.8739 214.824 34.9477C214.91 35.0215 214.971 35.1206 215 35.2313C214.937 35.4313 214.843 35.6199 214.722 35.7902H214.688ZM210.274 29.1952C208.547 29.1952 206.727 32.583 206.727 35.2743C206.727 35.9622 207.081 36.3233 207.569 36.3233C208.816 36.3233 210.459 34.3801 211.436 32.626C211.761 32.1265 211.95 31.5478 211.984 30.9493C211.962 30.5006 211.777 30.0763 211.466 29.7586C211.154 29.4409 210.739 29.2524 210.299 29.2296L210.274 29.1952Z" fill="#272326"/>
<path d="M222.688 28.8489H221.019C220.841 28.8489 220.715 28.9565 220.648 29.2433L219.751 33.6709C219.61 34.2708 219.521 34.8865 219.484 35.5083C219.484 35.9027 219.617 36.1447 219.795 36.1447C220.411 36.1447 220.997 34.5493 221.33 34.5493C221.435 34.5753 221.531 34.636 221.609 34.7247C221.686 34.8134 221.741 34.9265 221.768 35.0512C221.768 35.1857 221.657 35.3739 221.397 35.7951C220.299 37.516 219.446 38 218.831 38C218.386 38 218.089 37.3636 218.089 36.2074C218.1 35.6264 218.168 35.0489 218.289 34.4865L219.165 30.2382C219.261 29.8488 219.328 29.4499 219.365 29.0461C219.365 28.8848 219.298 28.8131 219.165 28.8131H218.178C218.156 28.817 218.133 28.815 218.112 28.8072C218.09 28.7995 218.07 28.7863 218.053 28.7684C218.036 28.7506 218.023 28.7284 218.014 28.7037C218.004 28.6789 218 28.652 218 28.6248C218 28.4366 218.134 27.7734 218.289 27.7734H219.402C219.469 27.7838 219.536 27.7625 219.59 27.714C219.644 27.6655 219.68 27.5936 219.691 27.5135L220.24 24.8246C220.373 24.5958 220.546 24.4039 220.745 24.2618C220.945 24.1196 221.167 24.0303 221.397 24C221.597 24 221.642 24.1076 221.642 24.233C221.603 24.5349 221.551 24.8341 221.486 25.1293L221.16 26.7427C221.097 27.0128 221.053 27.2885 221.026 27.5672C221.026 27.7286 221.071 27.8092 221.219 27.8092H222.821C222.846 27.8091 222.87 27.8152 222.893 27.8271C222.916 27.839 222.936 27.8565 222.953 27.8784C222.97 27.9004 222.982 27.9262 222.99 27.9544C222.998 27.9826 223.001 28.0125 222.999 28.0423C222.999 28.2574 222.888 28.84 222.71 28.84L222.688 28.8489Z" fill="#272326"/>
<path d="M229.537 36.3022C229.252 36.7439 228.876 37.123 228.432 37.4153C227.988 37.7077 227.486 37.9068 226.958 38C226.285 38 225.76 37.3973 225.76 36.2173C225.774 35.4975 225.903 34.7842 226.145 34.1036L227.019 31.489C227.16 31.0998 227.248 30.6947 227.281 30.2835C227.281 29.9864 227.177 29.7827 226.862 29.7827C226.241 29.7827 225.83 30.691 225.542 30.691C225.253 30.691 225 30.4873 225 30.3345C225 30.1817 225.105 30.0373 225.42 29.6299C225.691 29.2246 226.048 28.8802 226.467 28.6196C226.886 28.359 227.357 28.1883 227.85 28.1188C228.523 28.1188 228.942 28.5772 228.942 29.5789C228.913 30.3687 228.763 31.1498 228.497 31.8964L227.622 34.5874C227.499 34.9429 227.437 35.3158 227.439 35.691C227.439 36.0645 227.622 36.3192 227.981 36.3192C228.628 36.3192 229.196 34.9864 229.432 34.9864C229.562 35.0088 229.683 35.0647 229.783 35.1483C229.883 35.232 229.958 35.3403 230 35.4618C230 35.6655 229.738 35.9881 229.537 36.3107V36.3022ZM228.663 25.2666C228.532 25.2713 228.401 25.2498 228.279 25.2032C228.157 25.1567 228.046 25.0862 227.953 24.9962C227.86 24.9062 227.788 24.7985 227.74 24.68C227.692 24.5614 227.67 24.4346 227.675 24.3073C227.681 23.9711 227.818 23.6495 228.057 23.4071C228.297 23.1646 228.623 23.0192 228.969 23C229.458 23 229.799 23.2801 229.799 23.9083C229.799 24.5365 229.336 25.292 228.663 25.292V25.2666Z" fill="#272326"/>
<path d="M241.649 36.0579C241.063 36.9097 239.847 38 239.009 38C238.171 38 237.649 37.4974 237.649 36.2964C237.671 35.6765 237.786 35.0628 237.991 34.4736L238.847 31.9182C238.963 31.5328 239.027 31.1349 239.036 30.7343C239.036 30.2061 238.748 29.8825 238.315 29.8825C237.198 29.8825 234.613 32.9063 234.18 34.5417L233.486 37.2163C233.387 37.6422 233.306 37.7189 233.144 37.7189H231.973C231.865 37.7189 231.811 37.6422 231.811 37.4889C231.907 36.9802 232.034 36.4768 232.189 35.9812L233.414 31.3135C233.514 30.983 233.575 30.643 233.595 30.2998C233.595 30.0017 233.486 29.7973 233.252 29.7973C232.396 29.7973 231.838 31.0835 231.45 31.0835C231.339 31.0734 231.234 31.0286 231.153 30.9562C231.071 30.8837 231.017 30.7876 231 30.6831C231.106 30.3881 231.267 30.1139 231.477 29.8739C232.075 28.9629 233.02 28.3041 234.117 28.0341C234.892 28.0341 235.18 28.7922 235.18 29.8228C235.081 30.4069 234.911 30.9784 234.676 31.5264C234.676 31.6286 234.73 31.6797 234.811 31.6797C234.892 31.6797 235.081 31.4497 235.216 31.2709C237.108 28.8007 238.279 28 239.216 28C240.333 28 240.811 28.7751 240.811 29.8399C240.787 30.5153 240.672 31.1852 240.468 31.833L239.568 34.5758C239.428 34.9486 239.349 35.3391 239.333 35.7342C239.333 36.0664 239.514 36.2453 239.784 36.2453C240.477 36.2453 241.063 34.908 241.541 34.908C241.676 34.908 242 35.1806 242 35.3083C241.922 35.5437 241.803 35.7653 241.649 35.9642V36.0579Z" fill="#272326"/>
<path d="M248.572 36.3022C248.282 36.7486 247.899 37.1307 247.447 37.4232C246.995 37.7158 246.485 37.9124 245.949 38C245.285 38 244.76 37.3973 244.76 36.2173C244.774 35.4975 244.903 34.7842 245.145 34.1036L246.019 31.489C246.158 31.0997 246.243 30.6944 246.273 30.2835C246.273 29.9864 246.177 29.7827 245.862 29.7827C245.241 29.7827 244.83 30.691 244.542 30.691C244.253 30.691 244 30.4873 244 30.3345C244 30.1817 244.105 30.0373 244.42 29.6299C244.691 29.2246 245.048 28.8802 245.467 28.6196C245.886 28.359 246.357 28.1883 246.85 28.1188C247.523 28.1188 247.934 28.5772 247.934 29.5789C247.904 30.3679 247.757 31.1485 247.497 31.8964L246.622 34.5874C246.499 34.9429 246.437 35.3158 246.439 35.691C246.439 36.0645 246.622 36.3192 246.981 36.3192C247.628 36.3192 248.196 34.9864 248.432 34.9864C248.561 35.0104 248.682 35.067 248.781 35.1504C248.881 35.2338 248.956 35.3412 249 35.4618C249 35.6655 248.738 35.9881 248.537 36.3107L248.572 36.3022ZM247.698 25.2666C247.567 25.2714 247.437 25.2498 247.315 25.2032C247.193 25.1566 247.083 25.086 246.991 24.9958C246.899 24.9056 246.827 24.7979 246.78 24.6793C246.733 24.5608 246.712 24.4341 246.719 24.3073C246.725 23.9711 246.861 23.6495 247.101 23.4071C247.341 23.1646 247.667 23.0192 248.012 23C248.502 23 248.843 23.2801 248.843 23.9083C248.843 24.5365 248.371 25.2666 247.698 25.2666Z" fill="#272326"/>
<path d="M260.68 35.6632C259.445 37.2612 258.308 37.9742 257.597 37.9742C256.886 37.9742 256.708 37.3643 256.708 36.3935C256.782 35.7302 256.949 35.0798 257.206 34.4605C257.206 34.3316 257.153 34.2629 257.073 34.2629C256.993 34.2629 256.859 34.4347 256.779 34.5636C255.153 36.9089 253.732 38 252.577 38C251.422 38 250.871 37.2612 250.871 36.11C250.878 35.3059 251.019 34.5082 251.288 33.7474L252.026 31.7199C252.216 31.1947 252.321 30.644 252.337 30.0876C252.342 30.031 252.335 29.9739 252.316 29.92C252.297 29.866 252.268 29.8162 252.229 29.7737C252.19 29.7311 252.142 29.6967 252.089 29.6724C252.036 29.6481 251.978 29.6344 251.919 29.6323C251.208 29.6323 250.791 30.5945 250.471 30.5945C250.32 30.5945 250 30.3711 250 30.2165C250.098 29.9718 250.23 29.7407 250.391 29.5292C250.655 29.1307 251.001 28.7892 251.408 28.5261C251.814 28.2629 252.273 28.0838 252.754 28C253.412 28 253.99 28.6701 253.99 29.787C253.979 30.3718 253.874 30.9515 253.679 31.5052L252.888 33.8677C252.74 34.3297 252.662 34.8101 252.657 35.2938C252.657 35.9296 252.968 36.2131 253.439 36.2131C254.86 36.2131 257.206 33.2406 257.757 31.1529L258.414 28.6615C258.485 28.4038 258.601 28.2491 258.752 28.2491H259.88C259.987 28.2491 260.04 28.3007 260.04 28.4553C259.924 29.0551 259.776 29.6487 259.596 30.2337L258.592 34.0997C258.447 34.6256 258.351 35.1634 258.308 35.7062C258.308 36.0326 258.485 36.2131 258.725 36.2131C259.436 36.2131 260.2 34.7612 260.502 34.7612C260.623 34.7833 260.734 34.839 260.823 34.9214C260.911 35.0038 260.973 35.1093 261 35.2251C260.924 35.4028 260.816 35.5658 260.68 35.7062V35.6632Z" fill="#272326"/>
<path d="M277.616 36.0579C277.035 36.9693 275.908 38 275.191 38C274.474 38 273.825 37.4463 273.825 36.1601C273.845 35.5596 273.954 34.9653 274.15 34.3969L274.858 32.276C275.05 31.7279 275.154 31.1529 275.166 30.5724C275.166 30.1636 274.986 29.9165 274.585 29.9165C273.774 29.9165 271.349 32.7359 270.897 34.5502L270.24 37.2249C270.163 37.5485 270.06 37.7274 269.932 37.7274H268.797C268.669 37.7274 268.618 37.6508 268.618 37.523C268.696 37.0972 268.798 36.6763 268.925 36.2623L269.958 32.1056C270.1 31.62 270.186 31.12 270.214 30.615C270.214 30.1635 270.009 29.9336 269.651 29.9336C268.746 29.9336 266.372 33.0085 266.014 34.448L265.339 37.1738C265.237 37.5486 265.16 37.7274 265.006 37.7274H263.905C263.777 37.7274 263.726 37.6252 263.726 37.4804C263.801 37.068 263.903 36.661 264.033 36.2623L265.297 31.2453C265.382 30.9341 265.431 30.6139 265.442 30.2913C265.442 29.9676 265.348 29.7632 265.117 29.7632C264.46 29.7632 263.777 31.1516 263.478 31.1516C263.371 31.1199 263.272 31.0643 263.189 30.9891C263.106 30.9138 263.042 30.8209 263 30.7172C263.121 30.4343 263.272 30.1658 263.452 29.9165C263.723 29.4421 264.092 29.03 264.533 28.7071C264.974 28.3842 265.479 28.1578 266.014 28.0426C266.62 28.0426 266.927 28.8007 266.927 29.7462C266.845 30.3503 266.69 30.9423 266.466 31.5094C266.466 31.6371 266.517 31.7138 266.594 31.7138C266.671 31.7138 266.799 31.5605 266.902 31.4071C268.694 28.8518 269.71 28 270.564 28C270.942 28.0409 271.288 28.2279 271.529 28.521C271.77 28.814 271.887 29.1897 271.853 29.5673C271.775 30.2186 271.632 30.8606 271.426 31.4838C271.426 31.6031 271.478 31.6797 271.554 31.6797C271.631 31.6797 271.802 31.4838 271.956 31.2538C273.544 28.8348 274.662 28 275.49 28C276.318 28 276.83 28.6048 276.83 29.644C276.807 30.3688 276.69 31.0874 276.48 31.7819L275.746 34.1584C275.589 34.638 275.497 35.1365 275.473 35.6405C275.473 36.0153 275.669 36.2197 275.977 36.2197C276.557 36.2197 277.138 34.8569 277.445 34.8569C277.752 34.8569 278 35.1124 278 35.2657C277.91 35.5184 277.783 35.7566 277.624 35.9727L277.616 36.0579Z" fill="#272326"/>
<path d="M33.979 8.62955C31.1302 4.33573 26.2612 1.06425 19.3591 0.187022C16.0324 -0.343907 12.6291 0.262808 9.66568 1.9151C3.73233 5.41084 1.68657 13.0487 3.71958 18.7144C4.21259 20.1606 5.01057 21.4751 6.05561 22.5623C7.10064 23.6496 8.3665 24.4823 9.76127 25.0002C8.95826 26.7876 8.1425 28.5421 7.33949 30.1646C5.61876 33.6538 3.96176 36.5427 2.63616 37.908C1.99885 37.7695 1.36153 37.6244 0.666866 37.4595C0.574689 37.4321 0.477009 37.4315 0.384513 37.4577C0.292017 37.4839 0.208271 37.536 0.142459 37.6082C0.0766475 37.6804 0.0313057 37.77 0.0113914 37.867C-0.00852285 37.9641 -0.00223984 38.065 0.0295569 38.1587C0.0936217 38.4622 0.22244 38.747 0.406588 38.9924C0.590735 39.2378 0.825552 39.4374 1.09386 39.5767C1.40589 39.6994 1.75055 39.6994 2.06257 39.5767C2.37442 39.4589 2.66357 39.2847 2.91657 39.0623C18.008 42.0765 28.0712 37.4529 33.1314 30.4878C37.9941 23.8327 38.2681 15.0142 33.979 8.55041V8.62955ZM32.2901 29.914C27.4912 36.5097 17.9953 40.8036 3.82792 38.1785C5.10254 36.6285 6.67669 33.8978 8.28909 30.6593C9.11759 28.984 9.95883 27.1768 10.7873 25.3234C13.4449 26.0225 16.7972 25.8444 20.8441 24.3802C20.9163 24.3628 20.9842 24.33 21.0434 24.2837C21.1025 24.2374 21.1516 24.1788 21.1875 24.1117C21.2234 24.0445 21.2452 23.9702 21.2515 23.8938C21.2579 23.8173 21.2486 23.7403 21.2244 23.6678C21.2001 23.5953 21.1614 23.5289 21.1107 23.4728C21.0601 23.4168 20.9986 23.3724 20.9303 23.3426C20.862 23.3127 20.7883 23.2981 20.7142 23.2995C20.6401 23.301 20.5671 23.3187 20.4999 23.3512C16.778 24.6704 13.6935 24.8946 11.2462 24.2944C14.3563 17.237 17.1923 9.84318 18.1801 7.29722C18.3203 6.92786 18.4542 6.59807 18.4988 6.48594C18.5406 6.41941 18.5682 6.34436 18.5795 6.26585C18.5909 6.18735 18.5858 6.10722 18.5647 6.03091C18.5435 5.95461 18.5068 5.88391 18.4569 5.82359C18.4071 5.76326 18.3453 5.71471 18.2757 5.68126C18.1538 5.62171 18.0142 5.61391 17.8867 5.65952C17.7593 5.70513 17.6541 5.80053 17.5938 5.92532C17.5938 5.98468 17.4281 6.32106 17.205 6.89489C16.2108 9.44744 13.3812 16.9072 10.1946 23.9844C8.92446 23.5333 7.76903 22.7914 6.81452 21.8138C5.86001 20.8362 5.13102 19.6482 4.68191 18.3385C3.73403 15.4996 3.7617 12.4091 4.76023 9.58884C5.75876 6.76858 7.66699 4.39128 10.1628 2.85829C12.931 1.32075 16.1085 0.760327 19.2126 1.26213C25.7577 2.09979 30.391 5.16681 33.0932 9.24297C37.1337 15.3308 36.8469 23.6415 32.2646 29.914H32.2901ZM17.5237 6.20893C17.5202 6.24622 17.5202 6.28376 17.5237 6.32105C17.5194 6.2838 17.5194 6.24617 17.5237 6.20893Z" fill="#272326"/>
<path d="M78.1508 32.1135C73.7957 36.1524 70.9266 38.0865 69.0161 38.6674C67.9675 38.9886 67.2599 38.8792 66.7967 38.4145C66.476 38.0486 66.2538 37.5977 66.1534 37.1092C65.93 36.0989 65.8156 35.0648 65.8125 34.027C65.8089 32.9992 65.7509 31.9725 65.6388 30.9516C65.5889 30.3921 65.3622 29.867 64.9955 29.4618C64.5967 29.0996 64.0113 28.9834 63.1493 29.5028C62.0557 30.1862 60.3059 32.0041 57.4883 35.7082L59.8878 29.742C59.9288 29.6074 59.921 29.4613 59.8659 29.3325C59.8107 29.2036 59.7122 29.1013 59.5898 29.0457C59.4673 28.99 59.3296 28.985 59.2038 29.0317C59.0781 29.0783 58.9733 29.1733 58.91 29.2978L57.8292 31.9836C57.772 32.005 57.7178 32.0349 57.6684 32.0725C54.0531 35.1683 51.2355 36.665 49.0354 37.1365C46.8354 37.6081 45.4202 36.9998 44.5324 35.9884C45.1918 34.8379 45.6536 33.5722 45.8962 32.2501C46.1985 30.3707 45.5874 29.1543 44.2301 29.332C43.9479 29.3796 43.6791 29.4932 43.4433 29.6646C43.2075 29.8359 43.0104 30.0608 42.8663 30.3229C42.407 31.1982 42.2179 32.2046 42.3259 33.2001C42.3995 34.2199 42.7112 35.204 43.233 36.0636C42.7985 36.7515 42.2743 37.3704 41.6762 37.902C40.6855 38.7494 39.534 39.1526 38.3697 38.5307C37.2053 37.9088 36.8837 36.5146 37.1474 35.1136C37.5849 32.8105 39.4954 30.3297 42.0686 30.2204C42.2085 30.214 42.3403 30.1489 42.435 30.0394C42.5297 29.9298 42.5796 29.7847 42.5736 29.6361C42.5676 29.4875 42.5063 29.3474 42.4032 29.2468C42.3 29.1462 42.1635 29.0933 42.0236 29.0996C38.9486 29.2431 36.6264 32.1408 36.1117 34.895C35.7451 36.8495 36.2661 38.7016 37.8937 39.5627C39.5212 40.4238 41.0136 39.9317 42.3388 38.7972C42.9455 38.2707 43.4822 37.6592 43.9342 36.9794C44.6117 37.6674 45.4635 38.1305 46.3851 38.312C48.6688 38.8041 52.1232 37.9225 57.0187 34.068L54.928 39.2004C54.8745 39.3268 54.867 39.4697 54.9069 39.6016C54.9467 39.7335 55.0312 39.845 55.1439 39.9147C55.2566 39.9843 55.3897 40.0071 55.5173 39.9787C55.6449 39.9503 55.7581 39.8727 55.835 39.7609C59.817 34.232 62.1329 31.5599 63.4966 30.5963C63.6628 30.4735 63.8448 30.3768 64.037 30.3092C64.1083 30.2864 64.1844 30.2864 64.2557 30.3092C64.3008 30.3092 64.3329 30.3639 64.3586 30.4118C64.4121 30.4983 64.4532 30.5927 64.4809 30.6919C64.6837 31.8176 64.7699 32.9634 64.7382 34.109C64.7188 35.5058 64.9367 36.8949 65.3815 38.2095C65.5368 38.6229 65.7804 38.9924 66.0929 39.2888C66.4055 39.5853 66.7785 39.8007 67.1827 39.918C68.2969 40.1171 69.4418 39.9176 70.4377 39.3508C72.3676 38.4487 75.0887 36.4941 78.8584 33.0019C78.9479 32.8988 78.9984 32.7643 79 32.6241C79.0016 32.4839 78.9542 32.348 78.8671 32.2427C78.7799 32.1374 78.6592 32.0701 78.5281 32.0538C78.397 32.0375 78.2649 32.0734 78.1572 32.1545L78.1508 32.1135ZM43.8505 34.9701C43.7926 34.8471 43.7412 34.7309 43.6961 34.6079C43.2851 33.5511 43.244 32.3728 43.5803 31.2865C43.7476 30.8491 43.992 30.5074 44.3523 30.4528C44.4643 30.4286 44.5807 30.448 44.6804 30.5074C44.7748 30.5957 44.8363 30.7169 44.8541 30.8491C44.9275 31.2509 44.9275 31.6639 44.8541 32.0656C44.6663 33.0841 44.3276 34.0645 43.8505 34.9701Z" fill="#272326"/>
<path d="M182.922 31.6917C182.896 31.627 182.858 31.5681 182.809 31.5184C182.76 31.4688 182.703 31.4292 182.639 31.4021C182.575 31.3751 182.506 31.3609 182.437 31.3606C182.368 31.3602 182.299 31.3737 182.235 31.4001C178.009 33.0596 174.052 35.3464 170.494 38.1851C170.494 38.1267 170.494 38.0749 170.494 38.0166C170.43 37.312 170.145 36.6466 169.679 36.1178C170.44 35.7861 171.122 35.2916 171.676 34.6685C172.23 34.0453 172.644 33.3084 172.889 32.5083C173.079 31.9967 173.145 31.4464 173.08 30.9038C173.015 30.3612 172.822 29.8424 172.516 29.3912C172.273 29.1096 171.962 28.8961 171.614 28.7713C171.265 28.6464 170.891 28.6144 170.526 28.6784C169.441 28.8015 167.913 29.5597 165.975 31.4001C165.929 31.4174 165.885 31.4414 165.846 31.4714C160.935 35.2884 157.584 37.1223 155.325 37.699C154.124 37.9971 153.271 37.9388 152.68 37.5889C151.807 37.064 151.563 35.9429 151.544 34.744C151.592 32.9298 151.93 31.1354 152.545 29.4301C152.6 29.3244 152.618 29.2034 152.597 29.0862C152.576 28.9689 152.517 28.8619 152.43 28.7821C152.332 28.6963 152.206 28.6492 152.077 28.6492C151.947 28.6492 151.821 28.6963 151.723 28.7821C151.723 28.7821 151.723 28.7821 151.666 28.8469C147.814 33.7395 145.278 36.3122 143.731 37.3815C143.449 37.5856 143.14 37.7491 142.813 37.8675C142.64 37.9194 142.518 37.9518 142.441 37.8675C142.374 37.7673 142.334 37.6511 142.325 37.5306C142.295 37.2809 142.295 37.0285 142.325 36.7788C142.456 35.6266 142.719 34.4936 143.108 33.4026C143.568 32.0977 144.117 30.8266 144.752 29.5986C144.853 29.5291 144.927 29.4269 144.962 29.309C144.997 29.191 144.991 29.0645 144.944 28.9505C144.919 28.8853 144.881 28.8257 144.833 28.7753C144.784 28.7249 144.726 28.6847 144.663 28.657C144.599 28.6293 144.53 28.6146 144.461 28.6139C144.391 28.6131 144.322 28.6262 144.258 28.6525C144.054 28.7579 143.886 28.9227 143.776 29.1255C143.351 29.87 142.986 30.648 142.685 31.452L142.608 31.5038C139.225 34.3357 135.713 36.4483 132.978 37.3815C132.224 37.6582 131.436 37.8304 130.635 37.8935C130.131 37.9546 129.621 37.8597 129.172 37.6213C128.934 37.449 128.749 37.2137 128.635 36.9415C128.522 36.6693 128.485 36.3708 128.53 36.0789C128.581 34.6468 129.422 32.5018 131.264 29.5079C131.35 29.3953 131.387 29.2532 131.368 29.1128C131.35 28.9724 131.276 28.8453 131.165 28.7594C131.053 28.6735 130.913 28.6358 130.774 28.6546C130.635 28.6734 130.509 28.7473 130.423 28.8598C128.575 30.9595 126.918 31.8213 125.622 31.9445C124.991 32.0309 124.352 31.8633 123.843 31.4779C123.773 31.4197 123.709 31.3546 123.651 31.2835C123.814 30.839 123.93 30.3785 123.998 29.9096C124.037 29.665 124.037 29.4155 123.998 29.1709C123.979 29.0747 123.938 28.9844 123.878 28.9077C123.817 28.831 123.74 28.7701 123.651 28.7302C123.544 28.6828 123.425 28.6698 123.31 28.693C123.195 28.7162 123.09 28.7744 123.009 28.8598C122.666 29.1641 122.429 29.571 122.332 30.0211C122.235 30.4712 122.283 30.9408 122.47 31.3612C118.78 34.0505 114.715 36.1712 110.407 37.6537C106.44 38.9044 99.7767 39.9996 94.4293 39.5136C91.6753 39.1636 89.8008 38.2175 88.8443 36.74C88.0354 35.4439 87.8814 33.7849 88.3949 31.7371C89.1653 28.633 91.2002 25.0688 94.1147 21.7055C98.8972 16.2037 105.156 11.635 110.863 9.48355C115.087 7.89586 118.952 7.7144 121.776 8.97159C122.215 9.14228 122.6 9.43146 122.887 9.80757C123.251 10.4418 123.391 11.182 123.285 11.9072C123.276 12.0581 123.326 12.2065 123.425 12.3204C123.523 12.4344 123.662 12.5047 123.811 12.5164C123.885 12.5224 123.96 12.5134 124.03 12.4901C124.101 12.4667 124.166 12.4294 124.222 12.3803C124.279 12.331 124.326 12.2706 124.359 12.2026C124.392 12.1347 124.411 12.0606 124.415 11.985C124.547 11.0017 124.336 10.0027 123.818 9.15953C123.416 8.60764 122.869 8.18094 122.239 7.92824C119.151 6.54793 115.177 6.70994 110.683 8.39483C104.803 10.6046 98.3773 15.2964 93.4792 20.9343C90.2694 24.6152 88.0996 28.3544 87.3293 31.4584C86.7387 33.8238 86.9441 35.8133 87.9327 37.3556C89.0818 39.1636 91.2645 40.2782 94.4036 40.6606C95.3087 40.7383 96.246 40.7772 97.2025 40.7772C101.805 40.7309 106.379 40.0396 110.793 38.7229C115.139 37.219 119.247 35.0886 122.99 32.3981C123.066 32.3763 123.137 32.3363 123.195 32.2815C123.709 32.7009 124.339 32.9499 124.999 32.9943C126.387 33.048 127.749 32.6102 128.851 31.7566C128.135 33.0753 127.688 34.525 127.535 36.0206C127.473 36.5015 127.546 36.9903 127.746 37.4313C127.946 37.8724 128.264 38.248 128.665 38.5156C129.422 38.9822 130.59 39.0729 131.983 38.7618C134.648 38.1851 138.358 36.2021 142.049 33.3313C141.609 34.5713 141.356 35.8711 141.298 37.1871C141.283 37.664 141.423 38.1327 141.696 38.5221C142.056 38.9498 142.659 39.1701 143.622 38.697C144.944 38.049 147.236 35.9947 150.94 31.5038C150.695 32.5662 150.57 33.6532 150.568 34.744C150.568 36.3511 151.049 37.7898 152.218 38.4896C152.988 38.9498 154.099 39.1377 155.659 38.7165C157.982 38.1267 161.436 36.2734 166.463 32.3852C166.54 32.361 166.61 32.3188 166.668 32.262C167.665 31.1833 168.892 30.3478 170.257 29.8189C170.507 29.7021 170.786 29.6631 171.058 29.7069C171.33 29.7508 171.583 29.8755 171.784 30.0652C171.978 30.3794 172.093 30.7357 172.122 31.1043C172.151 31.4729 172.093 31.8432 171.951 32.1843C171.7 33.0039 171.231 33.7387 170.597 34.3097C169.962 34.8806 169.185 35.2661 168.35 35.4244C168.279 35.4374 168.212 35.4648 168.153 35.5049C168.093 35.545 168.042 35.597 168.003 35.6576C167.964 35.7183 167.938 35.7864 167.925 35.8577C167.913 35.9291 167.916 36.0022 167.933 36.0725C167.952 36.1699 167.998 36.2601 168.065 36.3332C168.132 36.4064 168.217 36.4596 168.311 36.4872C168.66 36.6066 168.963 36.8334 169.177 37.1357C169.391 37.4379 169.506 37.8005 169.506 38.1721C169.545 38.4663 169.558 38.7634 169.544 39.0599C161.956 45.6764 159.536 53.077 159.273 56.5051C159.175 57.1932 159.259 57.8952 159.517 58.5399C159.578 58.6754 159.677 58.7905 159.801 58.8719C159.925 58.9534 160.069 58.9977 160.216 59C160.394 59.0006 160.568 58.956 160.724 58.8704C161.103 58.6421 161.444 58.3532 161.731 58.015C163.702 55.8829 167.239 49.9988 169.191 44.8404C169.871 43.1564 170.328 41.3893 170.552 39.5848C174.185 36.552 178.277 34.1278 182.672 32.4046C182.736 32.3783 182.794 32.3394 182.844 32.2903C182.893 32.2412 182.932 32.1828 182.959 32.1184C182.986 32.054 183 31.9848 183 31.915C183 31.8451 182.987 31.7759 182.961 31.7112L182.922 31.6917ZM168.157 44.4451C166.509 48.6776 164.333 52.6803 161.68 56.356C161.315 56.8614 160.897 57.3262 160.435 57.7428L160.351 57.8011C160.286 57.3942 160.262 56.9816 160.281 56.5699C160.512 53.401 162.694 46.7845 169.268 40.6541C168.993 41.9471 168.613 43.215 168.132 44.4451H168.157Z" fill="#272326"/>
<path d="M192.499 31.4719C191.956 31.4719 191.545 31.3474 191.545 31.1606C191.545 30.7871 191.729 30.5025 191.825 30.5025C192.004 30.5402 192.185 30.564 192.367 30.5737C194.904 30.5737 196.181 28.9461 196.181 26.4202C196.181 24.5525 195.455 23.0228 193.557 23.0228C192.91 23.0228 192.682 23.1295 192.542 23.2363C192.402 23.343 192.289 23.6543 192.052 24.7571L189.857 35.2429C189.763 35.6492 189.701 36.0626 189.673 36.4792C189.673 36.9772 189.778 37.1284 190.426 37.1284C191.073 37.1284 191.125 37.2174 191.125 37.3419C191.125 37.6354 190.994 38 190.863 38C190.478 38 189.778 37.8933 188.3 37.8933C187.294 37.8933 186.621 38 186.201 38C186.07 38 186 37.7866 186 37.3152C186 37.1818 186.149 37.1284 186.638 37.1284C187.513 37.1284 187.758 36.8171 187.985 35.6787L190.242 25.0061C190.337 24.573 190.399 24.1328 190.426 23.6898C190.426 23.085 190.294 22.8716 189.551 22.8716C189.166 22.8716 189.061 22.8182 189.061 22.6848C189.061 22.3202 189.192 22 189.315 22C189.437 22 190.067 22.1067 191.362 22.1067C191.878 22.1067 192.761 22 193.985 22C196.723 22 198 23.9211 198 26.269C198 29.5864 195.927 31.5075 192.481 31.5075L192.499 31.4719Z" fill="#272326"/>
<path d="M203.354 23.2344L200.918 33.5829C200.738 34.2683 200.622 34.9704 200.57 35.6794C200.57 36.0737 200.714 36.2618 200.943 36.2618C201.792 36.2618 202.378 34.4699 202.641 34.4699C202.904 34.4699 203.192 34.6311 203.192 34.7924C203.127 35.0806 203.018 35.3559 202.87 35.6078C202.267 36.7815 200.909 38 200.154 38C199.399 38 199 37.5251 199 36.1453C199.042 35.1206 199.196 34.1044 199.458 33.117L201.792 23.2613C201.901 22.8644 201.967 22.4556 201.987 22.0428C201.987 21.6486 201.741 21.5142 200.638 21.5142C200.511 21.5142 200.434 21.4067 200.434 21.0124C200.434 20.8512 200.587 20.7436 200.96 20.663C202.14 20.4569 203.506 20 203.769 20C204.033 20 203.999 20.1075 203.999 20.3494C203.999 20.5913 203.769 21.2454 203.32 23.2344H203.354Z" fill="#272326"/>
<path d="M214.688 35.7902C214.09 36.8048 212.767 38 212.161 38C211.554 38 210.914 37.5185 210.914 36.4953C210.945 35.8444 211.097 35.2055 211.361 34.6122C211.462 34.3886 211.361 34.2855 211.31 34.2855C211.259 34.2855 211.133 34.3629 211.04 34.509C209.49 36.779 208.142 38 206.896 38C205.851 38 205 36.8048 205 35.3775C205 31.1814 208.521 28 210.636 28C210.968 28.0032 211.295 28.0775 211.597 28.2183C211.899 28.359 212.169 28.5629 212.388 28.8168C212.515 28.9372 212.582 29.0404 212.683 29.0404C212.784 29.0404 212.987 28.8168 213.079 28.6105C213.172 28.4041 213.307 28.2321 213.433 28.2321H213.981C214.082 28.2321 214.132 28.3353 214.132 28.4557C214.132 28.5761 213.905 29.3156 213.61 30.5967L212.81 33.9329C212.636 34.5406 212.512 35.1618 212.439 35.7902C212.439 36.1169 212.515 36.2975 212.835 36.2975C213.458 36.2975 214.284 34.8186 214.52 34.8186C214.632 34.8288 214.738 34.8739 214.824 34.9477C214.91 35.0215 214.971 35.1206 215 35.2313C214.937 35.4313 214.843 35.6199 214.722 35.7902H214.688ZM210.274 29.1952C208.547 29.1952 206.727 32.583 206.727 35.2743C206.727 35.9622 207.081 36.3233 207.569 36.3233C208.816 36.3233 210.459 34.3801 211.436 32.626C211.761 32.1265 211.95 31.5478 211.984 30.9493C211.962 30.5006 211.777 30.0763 211.466 29.7586C211.154 29.4409 210.739 29.2524 210.299 29.2296L210.274 29.1952Z" fill="#272326"/>
<path d="M222.688 28.8489H221.019C220.841 28.8489 220.715 28.9565 220.648 29.2433L219.751 33.6709C219.61 34.2708 219.521 34.8865 219.484 35.5083C219.484 35.9027 219.617 36.1447 219.795 36.1447C220.411 36.1447 220.997 34.5493 221.33 34.5493C221.435 34.5753 221.531 34.636 221.609 34.7247C221.686 34.8134 221.741 34.9265 221.768 35.0512C221.768 35.1857 221.657 35.3739 221.397 35.7951C220.299 37.516 219.446 38 218.831 38C218.386 38 218.089 37.3636 218.089 36.2074C218.1 35.6264 218.168 35.0489 218.289 34.4865L219.165 30.2382C219.261 29.8488 219.328 29.4499 219.365 29.0461C219.365 28.8848 219.298 28.8131 219.165 28.8131H218.178C218.156 28.817 218.133 28.815 218.112 28.8072C218.09 28.7995 218.07 28.7863 218.053 28.7684C218.036 28.7506 218.023 28.7284 218.014 28.7037C218.004 28.6789 218 28.652 218 28.6248C218 28.4366 218.134 27.7734 218.289 27.7734H219.402C219.469 27.7838 219.536 27.7625 219.59 27.714C219.644 27.6655 219.68 27.5936 219.691 27.5135L220.24 24.8246C220.373 24.5958 220.546 24.4039 220.745 24.2618C220.945 24.1196 221.167 24.0303 221.397 24C221.597 24 221.642 24.1076 221.642 24.233C221.603 24.5349 221.551 24.8341 221.486 25.1293L221.16 26.7427C221.097 27.0128 221.053 27.2885 221.026 27.5672C221.026 27.7286 221.071 27.8092 221.219 27.8092H222.821C222.846 27.8091 222.87 27.8152 222.893 27.8271C222.916 27.839 222.936 27.8565 222.953 27.8784C222.97 27.9004 222.982 27.9262 222.99 27.9544C222.998 27.9826 223.001 28.0125 222.999 28.0423C222.999 28.2574 222.888 28.84 222.71 28.84L222.688 28.8489Z" fill="#272326"/>
<path d="M229.537 36.3022C229.252 36.7439 228.876 37.123 228.432 37.4153C227.988 37.7077 227.486 37.9068 226.958 38C226.285 38 225.76 37.3973 225.76 36.2173C225.774 35.4975 225.903 34.7842 226.145 34.1036L227.019 31.489C227.16 31.0998 227.248 30.6947 227.281 30.2835C227.281 29.9864 227.177 29.7827 226.862 29.7827C226.241 29.7827 225.83 30.691 225.542 30.691C225.253 30.691 225 30.4873 225 30.3345C225 30.1817 225.105 30.0373 225.42 29.6299C225.691 29.2246 226.048 28.8802 226.467 28.6196C226.886 28.359 227.357 28.1883 227.85 28.1188C228.523 28.1188 228.942 28.5772 228.942 29.5789C228.913 30.3687 228.763 31.1498 228.497 31.8964L227.622 34.5874C227.499 34.9429 227.437 35.3158 227.439 35.691C227.439 36.0645 227.622 36.3192 227.981 36.3192C228.628 36.3192 229.196 34.9864 229.432 34.9864C229.562 35.0088 229.683 35.0647 229.783 35.1483C229.883 35.232 229.958 35.3403 230 35.4618C230 35.6655 229.738 35.9881 229.537 36.3107V36.3022ZM228.663 25.2666C228.532 25.2713 228.401 25.2498 228.279 25.2032C228.157 25.1567 228.046 25.0862 227.953 24.9962C227.86 24.9062 227.788 24.7985 227.74 24.68C227.692 24.5614 227.67 24.4346 227.675 24.3073C227.681 23.9711 227.818 23.6495 228.057 23.4071C228.297 23.1646 228.623 23.0192 228.969 23C229.458 23 229.799 23.2801 229.799 23.9083C229.799 24.5365 229.336 25.292 228.663 25.292V25.2666Z" fill="#272326"/>
<path d="M241.649 36.0579C241.063 36.9097 239.847 38 239.009 38C238.171 38 237.649 37.4974 237.649 36.2964C237.671 35.6765 237.786 35.0628 237.991 34.4736L238.847 31.9182C238.963 31.5328 239.027 31.1349 239.036 30.7343C239.036 30.2061 238.748 29.8825 238.315 29.8825C237.198 29.8825 234.613 32.9063 234.18 34.5417L233.486 37.2163C233.387 37.6422 233.306 37.7189 233.144 37.7189H231.973C231.865 37.7189 231.811 37.6422 231.811 37.4889C231.907 36.9802 232.034 36.4768 232.189 35.9812L233.414 31.3135C233.514 30.983 233.575 30.643 233.595 30.2998C233.595 30.0017 233.486 29.7973 233.252 29.7973C232.396 29.7973 231.838 31.0835 231.45 31.0835C231.339 31.0734 231.234 31.0286 231.153 30.9562C231.071 30.8837 231.017 30.7876 231 30.6831C231.106 30.3881 231.267 30.1139 231.477 29.8739C232.075 28.9629 233.02 28.3041 234.117 28.0341C234.892 28.0341 235.18 28.7922 235.18 29.8228C235.081 30.4069 234.911 30.9784 234.676 31.5264C234.676 31.6286 234.73 31.6797 234.811 31.6797C234.892 31.6797 235.081 31.4497 235.216 31.2709C237.108 28.8007 238.279 28 239.216 28C240.333 28 240.811 28.7751 240.811 29.8399C240.787 30.5153 240.672 31.1852 240.468 31.833L239.568 34.5758C239.428 34.9486 239.349 35.3391 239.333 35.7342C239.333 36.0664 239.514 36.2453 239.784 36.2453C240.477 36.2453 241.063 34.908 241.541 34.908C241.676 34.908 242 35.1806 242 35.3083C241.922 35.5437 241.803 35.7653 241.649 35.9642V36.0579Z" fill="#272326"/>
<path d="M248.572 36.3022C248.282 36.7486 247.899 37.1307 247.447 37.4232C246.995 37.7158 246.485 37.9124 245.949 38C245.285 38 244.76 37.3973 244.76 36.2173C244.774 35.4975 244.903 34.7842 245.145 34.1036L246.019 31.489C246.158 31.0997 246.243 30.6944 246.273 30.2835C246.273 29.9864 246.177 29.7827 245.862 29.7827C245.241 29.7827 244.83 30.691 244.542 30.691C244.253 30.691 244 30.4873 244 30.3345C244 30.1817 244.105 30.0373 244.42 29.6299C244.691 29.2246 245.048 28.8802 245.467 28.6196C245.886 28.359 246.357 28.1883 246.85 28.1188C247.523 28.1188 247.934 28.5772 247.934 29.5789C247.904 30.3679 247.757 31.1485 247.497 31.8964L246.622 34.5874C246.499 34.9429 246.437 35.3158 246.439 35.691C246.439 36.0645 246.622 36.3192 246.981 36.3192C247.628 36.3192 248.196 34.9864 248.432 34.9864C248.561 35.0104 248.682 35.067 248.781 35.1504C248.881 35.2338 248.956 35.3412 249 35.4618C249 35.6655 248.738 35.9881 248.537 36.3107L248.572 36.3022ZM247.698 25.2666C247.567 25.2714 247.437 25.2498 247.315 25.2032C247.193 25.1566 247.083 25.086 246.991 24.9958C246.899 24.9056 246.827 24.7979 246.78 24.6793C246.733 24.5608 246.712 24.4341 246.719 24.3073C246.725 23.9711 246.861 23.6495 247.101 23.4071C247.341 23.1646 247.667 23.0192 248.012 23C248.502 23 248.843 23.2801 248.843 23.9083C248.843 24.5365 248.371 25.2666 247.698 25.2666Z" fill="#272326"/>
<path d="M260.68 35.6632C259.445 37.2612 258.308 37.9742 257.597 37.9742C256.886 37.9742 256.708 37.3643 256.708 36.3935C256.782 35.7302 256.949 35.0798 257.206 34.4605C257.206 34.3316 257.153 34.2629 257.073 34.2629C256.993 34.2629 256.859 34.4347 256.779 34.5636C255.153 36.9089 253.732 38 252.577 38C251.422 38 250.871 37.2612 250.871 36.11C250.878 35.3059 251.019 34.5082 251.288 33.7474L252.026 31.7199C252.216 31.1947 252.321 30.644 252.337 30.0876C252.342 30.031 252.335 29.9739 252.316 29.92C252.297 29.866 252.268 29.8162 252.229 29.7737C252.19 29.7311 252.142 29.6967 252.089 29.6724C252.036 29.6481 251.978 29.6344 251.919 29.6323C251.208 29.6323 250.791 30.5945 250.471 30.5945C250.32 30.5945 250 30.3711 250 30.2165C250.098 29.9718 250.23 29.7407 250.391 29.5292C250.655 29.1307 251.001 28.7892 251.408 28.5261C251.814 28.2629 252.273 28.0838 252.754 28C253.412 28 253.99 28.6701 253.99 29.787C253.979 30.3718 253.874 30.9515 253.679 31.5052L252.888 33.8677C252.74 34.3297 252.662 34.8101 252.657 35.2938C252.657 35.9296 252.968 36.2131 253.439 36.2131C254.86 36.2131 257.206 33.2406 257.757 31.1529L258.414 28.6615C258.485 28.4038 258.601 28.2491 258.752 28.2491H259.88C259.987 28.2491 260.04 28.3007 260.04 28.4553C259.924 29.0551 259.776 29.6487 259.596 30.2337L258.592 34.0997C258.447 34.6256 258.351 35.1634 258.308 35.7062C258.308 36.0326 258.485 36.2131 258.725 36.2131C259.436 36.2131 260.2 34.7612 260.502 34.7612C260.623 34.7833 260.734 34.839 260.823 34.9214C260.911 35.0038 260.973 35.1093 261 35.2251C260.924 35.4028 260.816 35.5658 260.68 35.7062V35.6632Z" fill="#272326"/>
<path d="M277.616 36.0579C277.035 36.9693 275.908 38 275.191 38C274.474 38 273.825 37.4463 273.825 36.1601C273.845 35.5596 273.954 34.9653 274.15 34.3969L274.858 32.276C275.05 31.7279 275.154 31.1529 275.166 30.5724C275.166 30.1636 274.986 29.9165 274.585 29.9165C273.774 29.9165 271.349 32.7359 270.897 34.5502L270.24 37.2249C270.163 37.5485 270.06 37.7274 269.932 37.7274H268.797C268.669 37.7274 268.618 37.6508 268.618 37.523C268.696 37.0972 268.798 36.6763 268.925 36.2623L269.958 32.1056C270.1 31.62 270.186 31.12 270.214 30.615C270.214 30.1635 270.009 29.9336 269.651 29.9336C268.746 29.9336 266.372 33.0085 266.014 34.448L265.339 37.1738C265.237 37.5486 265.16 37.7274 265.006 37.7274H263.905C263.777 37.7274 263.726 37.6252 263.726 37.4804C263.801 37.068 263.903 36.661 264.033 36.2623L265.297 31.2453C265.382 30.9341 265.431 30.6139 265.442 30.2913C265.442 29.9676 265.348 29.7632 265.117 29.7632C264.46 29.7632 263.777 31.1516 263.478 31.1516C263.371 31.1199 263.272 31.0643 263.189 30.9891C263.106 30.9138 263.042 30.8209 263 30.7172C263.121 30.4343 263.272 30.1658 263.452 29.9165C263.723 29.4421 264.092 29.03 264.533 28.7071C264.974 28.3842 265.479 28.1578 266.014 28.0426C266.62 28.0426 266.927 28.8007 266.927 29.7462C266.845 30.3503 266.69 30.9423 266.466 31.5094C266.466 31.6371 266.517 31.7138 266.594 31.7138C266.671 31.7138 266.799 31.5605 266.902 31.4071C268.694 28.8518 269.71 28 270.564 28C270.942 28.0409 271.288 28.2279 271.529 28.521C271.77 28.814 271.887 29.1897 271.853 29.5673C271.775 30.2186 271.632 30.8606 271.426 31.4838C271.426 31.6031 271.478 31.6797 271.554 31.6797C271.631 31.6797 271.802 31.4838 271.956 31.2538C273.544 28.8348 274.662 28 275.49 28C276.318 28 276.83 28.6048 276.83 29.644C276.807 30.3688 276.69 31.0874 276.48 31.7819L275.746 34.1584C275.589 34.638 275.497 35.1365 275.473 35.6405C275.473 36.0153 275.669 36.2197 275.977 36.2197C276.557 36.2197 277.138 34.8569 277.445 34.8569C277.752 34.8569 278 35.1124 278 35.2657C277.91 35.5184 277.783 35.7566 277.624 35.9727L277.616 36.0579Z" fill="#272326"/>
<path d="M283.789 28.6433L283.696 28.5884C283.573 28.4462 283.461 28.2899 283.363 28.122C283.261 27.9822 283.172 27.8287 283.1 27.6647C283.191 27.5752 283.287 27.4927 283.386 27.4177C283.468 27.3454 283.536 27.2534 283.586 27.1478C283.635 27.0421 283.665 26.9252 283.673 26.8049C283.671 26.6962 283.65 26.5891 283.61 26.4912C283.57 26.3933 283.512 26.3068 283.441 26.2379C283.374 26.1609 283.296 26.1003 283.209 26.0595C283.123 26.0187 283.03 25.9985 282.937 26.0001H282C282 26.0001 282 26.0001 282 26.0824C282 26.1647 282 26.1647 282.093 26.2013C282.186 26.2379 282.186 26.2745 282.186 26.3019V28.625C282.186 28.625 282.186 28.689 282.101 28.7256C282.015 28.7622 282.015 28.8079 282.015 28.8445C282.015 28.8811 282.101 28.9634 282.263 28.9634H282.658C282.658 28.9634 282.728 28.9634 282.728 28.8537C282.728 28.7439 282.689 28.7805 282.62 28.753C282.55 28.7256 282.511 28.6799 282.511 28.6341V27.7195C282.511 27.7195 282.511 27.7195 282.581 27.7195C283.193 27.7195 283.17 29 283.782 29C283.89 29 283.983 29 283.998 28.8537C284.014 28.7073 283.913 28.7439 283.813 28.689L283.789 28.6433ZM282.914 27.3628H282.488V26.2745H282.534H282.627C282.79 26.2685 282.951 26.306 283.1 26.3842C283.177 26.4183 283.242 26.4798 283.288 26.5601C283.334 26.6404 283.358 26.7356 283.356 26.8324C283.352 26.9793 283.302 27.1194 283.216 27.2257C283.179 27.2774 283.133 27.3189 283.08 27.3474C283.028 27.3758 282.971 27.3904 282.914 27.3903V27.3628Z" fill="#272326"/>
<path d="M282.5 25C282.006 25 281.522 25.1466 281.111 25.4213C280.7 25.696 280.38 26.0865 280.19 26.5433C280.001 27.0001 279.952 27.5028 280.048 27.9877C280.144 28.4727 280.383 28.9182 280.732 29.2678C281.082 29.6174 281.527 29.8555 282.012 29.952C282.497 30.0484 283 29.9989 283.457 29.8097C283.914 29.6205 284.304 29.3 284.579 28.8889C284.853 28.4778 285 27.9945 285 27.5C285 26.837 284.737 26.2011 284.268 25.7322C283.799 25.2634 283.163 25 282.5 25ZM282.5 29.7455C282.056 29.7455 281.622 29.6138 281.253 29.367C280.883 29.1203 280.595 28.7696 280.425 28.3593C280.256 27.949 280.211 27.4975 280.298 27.0619C280.384 26.6264 280.598 26.2263 280.912 25.9122C281.226 25.5982 281.626 25.3843 282.062 25.2977C282.498 25.211 282.949 25.2555 283.359 25.4255C283.77 25.5954 284.12 25.8832 284.367 26.2525C284.614 26.6218 284.745 27.0559 284.745 27.5C284.743 28.0948 284.506 28.6646 284.085 29.0852C283.665 29.5057 283.095 29.7431 282.5 29.7455Z" fill="#272326"/>
</svg>
