<svg width="62" height="63" viewBox="0 0 62 63" fill="none" xmlns="http://www.w3.org/2000/svg">
<path d="M57.3102 12.6301C60.4202 13.2601 61.9502 14.1101 61.9502 15.0701V19.3801C61.9502 19.6601 61.6702 19.6601 61.5002 19.4301C60.7805 17.3291 59.2802 15.5853 57.3102 14.5601C55.2748 13.3927 52.9665 12.7854 50.6202 12.8001C48.3062 12.7592 46.0123 13.2364 43.9066 14.1967C41.8009 15.157 39.9365 16.5761 38.4502 18.3501C35.2882 21.9001 33.5719 26.5065 33.6402 31.2601C33.5789 36.0833 35.3353 40.7529 38.5602 44.3401C40.1197 46.0944 42.0415 47.4894 44.1927 48.4286C46.3439 49.3678 48.6734 49.8289 51.0202 49.7801C53.2213 49.7446 55.3727 49.1196 57.2502 47.9701C59.1846 46.9117 60.6881 45.2101 61.5002 43.1601C61.6602 42.9301 61.9502 42.9301 61.9502 43.1601V47.5201C61.9502 48.5201 60.4202 49.3301 57.4202 49.9501C55.1878 50.4854 52.9121 50.82 50.6202 50.9501C48.0057 51.0091 45.4058 50.5451 42.9731 49.5854C40.5405 48.6257 38.3241 47.1895 36.4542 45.3613C34.5842 43.5331 33.0984 41.3497 32.084 38.9394C31.0697 36.529 30.5471 33.9402 30.5471 31.3251C30.5471 28.7099 31.0697 26.1212 32.084 23.7108C33.0984 21.3004 34.5842 19.117 36.4542 17.2888C38.3241 15.4606 40.5405 14.0245 42.9731 13.0648C45.4058 12.105 48.0057 11.641 50.6202 11.7001C52.8748 11.8406 55.113 12.1751 57.3102 12.7001V12.6301Z" fill="#EBB713"/>
<path d="M4.65027 50.1401C1.53027 49.5101 0.000244141 48.6701 0.000244141 47.7001V43.4001C0.000244141 43.1101 0.290266 43.1101 0.460266 43.3401C1.16983 45.4469 2.67297 47.194 4.65027 48.2101C6.68159 49.3784 8.98696 49.9858 11.3303 49.9701C13.6448 50.0145 15.9398 49.5389 18.0461 48.5784C20.1524 47.6178 22.0162 46.1968 23.5002 44.4201C26.6659 40.8715 28.3858 36.265 28.3203 31.5101C28.3778 26.6857 26.6179 22.0163 23.3903 18.4301C21.8316 16.6747 19.91 15.279 17.7585 14.3397C15.6071 13.4004 13.2773 12.9399 10.9303 12.9901C8.73318 13.0316 6.58659 13.6563 4.71027 14.8001C2.76809 15.8535 1.26223 17.5613 0.460266 19.6201C0.290266 19.8401 0.0102539 19.8401 0.0102539 19.6201V15.2601C0.0102539 14.2601 1.53025 13.4401 4.54025 12.8201C6.76815 12.2793 9.04106 11.9446 11.3303 11.8201C16.5338 11.8201 21.5242 13.8872 25.2037 17.5667C28.8832 21.2461 30.9503 26.2365 30.9503 31.4401C30.9503 36.6436 28.8832 41.634 25.2037 45.3135C21.5242 48.993 16.5338 51.0601 11.3303 51.0601C9.07905 50.9188 6.84417 50.5842 4.65027 50.0601V50.1401Z" fill="#EBB713"/>
<path d="M49.8203 57.81C49.2003 60.93 48.3503 62.45 47.3803 62.45H43.0803C42.8003 62.45 42.8003 62.17 43.0203 62C45.125 61.2867 46.8708 59.7846 47.8903 57.81C49.0564 55.7778 49.6637 53.473 49.6503 51.13C49.6948 48.814 49.2193 46.5175 48.2588 44.4096C47.2983 42.3017 45.8772 40.436 44.1003 38.95C40.5605 35.7974 35.9701 34.0818 31.2303 34.14C26.4074 34.0807 21.7385 35.8369 18.1503 39.06C16.3978 40.6205 15.0047 42.5426 14.0672 44.6938C13.1298 46.845 12.6702 49.174 12.7203 51.52C12.7557 53.7212 13.3807 55.8725 14.5303 57.75C15.5833 59.6888 17.2866 61.1938 19.3403 62C19.5703 62.17 19.5603 62.45 19.3403 62.45H14.9803C13.9803 62.45 13.1703 60.92 12.5403 57.92C11.9995 55.6921 11.6648 53.4192 11.5403 51.13C11.5403 45.9265 13.6074 40.9361 17.2869 37.2566C20.9663 33.5771 25.9567 31.51 31.1603 31.51C36.3638 31.51 41.3543 33.5771 45.0337 37.2566C48.7132 40.9361 50.7803 45.9265 50.7803 51.13C50.6359 53.3809 50.3013 55.6155 49.7803 57.81H49.8203Z" fill="#EBB713"/>
<path d="M12.3204 4.64001C12.9404 1.53001 13.7904 0 14.7504 0H19.0604C19.3404 0 19.3404 0.280012 19.1104 0.450012C17.0109 1.17242 15.2681 2.6719 14.2404 4.64001C13.0805 6.67797 12.477 8.98514 12.4904 11.33C12.4474 13.6443 12.9236 15.9389 13.8841 18.045C14.8445 20.151 16.2648 22.015 18.0404 23.5C21.5863 26.6688 26.1955 28.3861 30.9504 28.31C35.7733 28.3693 40.4422 26.6131 44.0304 23.39C45.7824 21.8291 47.1751 19.9069 48.1125 17.7558C49.05 15.6047 49.5098 13.276 49.4604 10.93C49.4237 8.7322 48.7987 6.58438 47.6504 4.71002C46.6009 2.76852 44.8964 1.26249 42.8404 0.460022C42.6104 0.290022 42.6104 0.01 42.8404 0H47.2304C48.2304 0 49.0404 1.53 49.6704 4.53C50.2107 6.76137 50.5454 9.03757 50.6704 11.33C50.6704 16.5336 48.6033 21.524 44.9238 25.2035C41.2444 28.8829 36.254 30.95 31.0504 30.95C25.8469 30.95 20.8564 28.8829 17.177 25.2035C13.4975 21.524 11.4304 16.5336 11.4304 11.33C11.5748 9.07914 11.9093 6.84451 12.4304 4.65002L12.3204 4.64001Z" fill="#EBB713"/>
</svg>
