<svg width="62" height="63" viewBox="0 0 62 63" fill="none" xmlns="http://www.w3.org/2000/svg">
<path d="M57.3099 12.6301C60.4199 13.2601 61.9499 14.1101 61.9499 15.0701V19.3801C61.9499 19.6601 61.6699 19.6601 61.4999 19.4301C60.7802 17.3291 59.28 15.5853 57.3099 14.5601C55.2745 13.3927 52.9663 12.7854 50.6199 12.8001C48.3059 12.7592 46.0121 13.2364 43.9063 14.1967C41.8006 15.157 39.9363 16.5761 38.4499 18.3501C35.2879 21.9001 33.5717 26.5065 33.6399 31.2601C33.5787 36.0833 35.3351 40.7529 38.5599 44.3401C40.1195 46.0944 42.0412 47.4894 44.1924 48.4286C46.3437 49.3678 48.6731 49.8289 51.0199 49.7801C53.2211 49.7446 55.3724 49.1196 57.2499 47.9701C59.1844 46.9117 60.6878 45.2101 61.4999 43.1601C61.6599 42.9301 61.9499 42.9301 61.9499 43.1601V47.5201C61.9499 48.5201 60.4199 49.3301 57.4199 49.9501C55.1876 50.4854 52.9119 50.82 50.6199 50.9501C48.0055 51.0091 45.4055 50.5451 42.9729 49.5854C40.5402 48.6257 38.3238 47.1895 36.4539 45.3613C34.584 43.5331 33.0982 41.3497 32.0838 38.9394C31.0694 36.529 30.5469 33.9402 30.5469 31.3251C30.5469 28.7099 31.0694 26.1212 32.0838 23.7108C33.0982 21.3004 34.584 19.117 36.4539 17.2888C38.3238 15.4606 40.5402 14.0245 42.9729 13.0648C45.4055 12.105 48.0055 11.641 50.6199 11.7001C52.8745 11.8406 55.1128 12.1751 57.3099 12.7001V12.6301Z" fill="#272326"/>
<path d="M4.65002 50.1401C1.53002 49.5101 0 48.6701 0 47.7001V43.4001C0 43.1101 0.290022 43.1101 0.460022 43.3401C1.16958 45.4469 2.67273 47.194 4.65002 48.2101C6.68135 49.3784 8.98672 49.9858 11.33 49.9701C13.6446 50.0145 15.9396 49.5389 18.0458 48.5784C20.1521 47.6178 22.016 46.1968 23.5 44.4201C26.6656 40.8715 28.3855 36.265 28.32 31.5101C28.3776 26.6857 26.6176 22.0163 23.39 18.4301C21.8313 16.6747 19.9097 15.279 17.7583 14.3397C15.6069 13.4004 13.277 12.9399 10.93 12.9901C8.73294 13.0316 6.58635 13.6563 4.71002 14.8001C2.76784 15.8535 1.26199 17.5613 0.460022 19.6201C0.290022 19.8401 0.0100098 19.8401 0.0100098 19.6201V15.2601C0.0100098 14.2601 1.53001 13.4401 4.54001 12.8201C6.76791 12.2793 9.04082 11.9446 11.33 11.8201C16.5336 11.8201 21.524 13.8872 25.2035 17.5667C28.8829 21.2461 30.95 26.2365 30.95 31.4401C30.95 36.6436 28.8829 41.634 25.2035 45.3135C21.524 48.993 16.5336 51.0601 11.33 51.0601C9.07881 50.9188 6.84392 50.5842 4.65002 50.0601V50.1401Z" fill="#272326"/>
<path d="M49.82 57.81C49.2 60.93 48.35 62.45 47.38 62.45H43.08C42.8 62.45 42.8001 62.17 43.0201 62C45.1247 61.2867 46.8706 59.7846 47.89 57.81C49.0562 55.7778 49.6634 53.473 49.6501 51.13C49.6945 48.814 49.219 46.5175 48.2585 44.4096C47.298 42.3017 45.877 40.436 44.1 38.95C40.5602 35.7974 35.9699 34.0818 31.23 34.14C26.4072 34.0807 21.7383 35.8369 18.1501 39.06C16.3975 40.6205 15.0045 42.5426 14.067 44.6938C13.1295 46.845 12.6699 49.174 12.72 51.52C12.7554 53.7212 13.3805 55.8725 14.53 57.75C15.583 59.6888 17.2863 61.1938 19.34 62C19.57 62.17 19.56 62.45 19.34 62.45H14.98C13.98 62.45 13.17 60.92 12.54 57.92C11.9993 55.6921 11.6646 53.4192 11.54 51.13C11.54 45.9265 13.6072 40.9361 17.2866 37.2566C20.9661 33.5771 25.9565 31.51 31.16 31.51C36.3636 31.51 41.354 33.5771 45.0335 37.2566C48.7129 40.9361 50.78 45.9265 50.78 51.13C50.6356 53.3809 50.3011 55.6155 49.78 57.81H49.82Z" fill="#272326"/>
<path d="M12.3202 4.64001C12.9402 1.53001 13.7902 0 14.7502 0H19.0602C19.3402 0 19.3402 0.280012 19.1102 0.450012C17.0107 1.17242 15.2679 2.6719 14.2402 4.64001C13.0803 6.67797 12.4767 8.98514 12.4902 11.33C12.4472 13.6443 12.9234 15.9389 13.8839 18.045C14.8443 20.151 16.2645 22.015 18.0402 23.5C21.5861 26.6688 26.1953 28.3861 30.9502 28.31C35.7731 28.3693 40.4419 26.6131 44.0302 23.39C45.7822 21.8291 47.1749 19.9069 48.1123 17.7558C49.0497 15.6047 49.5096 13.276 49.4602 10.93C49.4235 8.7322 48.7985 6.58438 47.6502 4.71002C46.6006 2.76852 44.8961 1.26249 42.8401 0.460022C42.6101 0.290022 42.6101 0.01 42.8401 0H47.2302C48.2302 0 49.0402 1.53 49.6702 4.53C50.2105 6.76137 50.5452 9.03757 50.6702 11.33C50.6702 16.5336 48.603 21.524 44.9236 25.2035C41.2441 28.8829 36.2537 30.95 31.0502 30.95C25.8466 30.95 20.8562 28.8829 17.1767 25.2035C13.4973 21.524 11.4302 16.5336 11.4302 11.33C11.5746 9.07914 11.9091 6.84451 12.4302 4.65002L12.3202 4.64001Z" fill="#272326"/>
</svg>
