<svg width="285" height="204" viewBox="0 0 285 204" fill="none" xmlns="http://www.w3.org/2000/svg">
<path d="M53.3164 116.22C48.8464 109.71 41.2064 104.75 30.3764 103.42C25.1564 102.615 19.8162 103.535 15.1664 106.04C5.85639 111.34 2.64639 122.92 5.83639 131.51C6.60997 133.703 7.86208 135.696 9.50184 137.344C11.1416 138.992 13.1278 140.255 15.3164 141.04C14.0564 143.75 12.7764 146.41 11.5164 148.87C8.81638 154.16 6.21639 158.54 4.13639 160.61C3.13639 160.4 2.13638 160.18 1.04638 159.93C0.901743 159.888 0.748474 159.888 0.603339 159.927C0.458204 159.967 0.326797 160.046 0.223532 160.155C0.120267 160.265 0.0491217 160.401 0.0178742 160.548C-0.0133732 160.695 -0.00351453 160.848 0.0463777 160.99C0.146902 161.45 0.349031 161.882 0.637976 162.254C0.926922 162.626 1.29537 162.929 1.71638 163.14C2.20597 163.326 2.74678 163.326 3.23638 163.14C3.7257 162.961 4.1794 162.697 4.57638 162.36C28.2564 166.93 44.0464 159.92 51.9864 149.36C59.6164 139.27 60.0464 125.9 53.3164 116.1V116.22ZM50.6664 148.49C43.1364 158.49 28.2364 165 6.00638 161.02C8.00638 158.67 10.4764 154.53 13.0064 149.62C14.3064 147.08 15.6264 144.34 16.9264 141.53C21.0964 142.59 26.3564 142.32 32.7064 140.1C32.8197 140.074 32.9263 140.024 33.0191 139.954C33.1119 139.884 33.189 139.795 33.2452 139.693C33.3015 139.591 33.3357 139.479 33.3457 139.363C33.3557 139.247 33.3412 139.13 33.3031 139.02C33.265 138.91 33.2043 138.809 33.1248 138.724C33.0453 138.639 32.9488 138.572 32.8416 138.527C32.7345 138.482 32.6189 138.459 32.5026 138.462C32.3863 138.464 32.2717 138.491 32.1664 138.54C26.3264 140.54 21.4864 140.88 17.6464 139.97C22.5264 129.27 26.9764 118.06 28.5264 114.2C28.7464 113.64 28.9564 113.14 29.0264 112.97C29.092 112.869 29.1353 112.755 29.1531 112.636C29.1709 112.517 29.163 112.396 29.1298 112.28C29.0966 112.164 29.039 112.057 28.9607 111.966C28.8825 111.874 28.7855 111.801 28.6764 111.75C28.485 111.66 28.266 111.648 28.066 111.717C27.866 111.786 27.7011 111.931 27.6064 112.12C27.6064 112.21 27.3464 112.72 26.9964 113.59C25.4364 117.46 20.9964 128.77 15.9964 139.5C14.0033 138.816 12.1904 137.691 10.6926 136.209C9.19492 134.727 8.05107 132.926 7.34638 130.94C5.85906 126.636 5.90247 121.95 7.46926 117.674C9.03605 113.399 12.0303 109.794 15.9464 107.47C20.29 105.139 25.2758 104.289 30.1464 105.05C40.4164 106.32 47.6864 110.97 51.9264 117.15C58.2664 126.38 57.8164 138.98 50.6264 148.49H50.6664ZM27.4964 112.55C27.4909 112.607 27.4909 112.663 27.4964 112.72C27.4897 112.664 27.4897 112.606 27.4964 112.55Z" fill="#EBB713"/>
<path d="M121.527 152.33C114.757 158.24 110.297 161.07 107.327 161.92C105.697 162.39 104.597 162.23 103.877 161.55C103.378 161.014 103.033 160.355 102.877 159.64C102.529 158.162 102.352 156.648 102.347 155.13C102.341 153.626 102.251 152.124 102.077 150.63C101.999 149.811 101.647 149.043 101.077 148.45C100.457 147.92 99.5466 147.75 98.2066 148.51C96.5066 149.51 93.7866 152.17 89.4066 157.59L93.1366 148.86C93.2004 148.663 93.1883 148.449 93.1026 148.261C93.0168 148.072 92.8638 147.922 92.6734 147.841C92.4829 147.76 92.269 147.752 92.0735 147.821C91.8779 147.889 91.715 148.028 91.6166 148.21L89.9366 152.14C89.8476 152.171 89.7634 152.215 89.6866 152.27C84.0666 156.8 79.6866 158.99 76.2666 159.68C72.8466 160.37 70.6466 159.48 69.2666 158C70.2917 156.317 71.0095 154.464 71.3866 152.53C71.8566 149.78 70.9066 148 68.7966 148.26C68.3579 148.33 67.9402 148.496 67.5736 148.747C67.207 148.997 66.9006 149.326 66.6766 149.71C65.9626 150.991 65.6688 152.463 65.8366 153.92C65.951 155.412 66.4356 156.852 67.2466 158.11C66.5712 159.116 65.7564 160.022 64.8266 160.8C63.2866 162.04 61.4966 162.63 59.6866 161.72C57.8766 160.81 57.3766 158.77 57.7866 156.72C58.4666 153.35 61.4366 149.72 65.4366 149.56C65.6541 149.551 65.859 149.455 66.0062 149.295C66.1534 149.135 66.2309 148.922 66.2216 148.705C66.2123 148.487 66.117 148.283 65.9567 148.135C65.7964 147.988 65.5841 147.911 65.3666 147.92C60.5866 148.13 56.9766 152.37 56.1766 156.4C55.6066 159.26 56.4166 161.97 58.9466 163.23C61.4766 164.49 63.7966 163.77 65.8566 162.11C66.7998 161.34 67.6341 160.445 68.3366 159.45C69.3899 160.457 70.714 161.134 72.1466 161.4C75.6966 162.12 81.0666 160.83 88.6766 155.19L85.4266 162.7C85.3435 162.885 85.3318 163.094 85.3938 163.287C85.4557 163.48 85.587 163.643 85.7623 163.745C85.9375 163.847 86.1443 163.88 86.3427 163.839C86.5411 163.797 86.717 163.684 86.8366 163.52C93.0266 155.43 96.6266 151.52 98.7466 150.11C99.005 149.93 99.2879 149.789 99.5866 149.69C99.6975 149.657 99.8157 149.657 99.9266 149.69C99.9966 149.69 100.047 149.77 100.087 149.84C100.17 149.967 100.234 150.105 100.277 150.25C100.592 151.897 100.726 153.574 100.677 155.25C100.647 157.294 100.985 159.326 101.677 161.25C101.918 161.855 102.297 162.395 102.783 162.829C103.268 163.263 103.848 163.578 104.477 163.75C106.209 164.041 107.988 163.749 109.537 162.92C112.537 161.6 116.767 158.74 122.627 153.63C122.766 153.479 122.844 153.282 122.847 153.077C122.849 152.872 122.776 152.673 122.64 152.519C122.505 152.365 122.317 152.266 122.113 152.243C121.909 152.219 121.704 152.271 121.537 152.39L121.527 152.33ZM68.2066 156.51C68.1166 156.33 68.0366 156.16 67.9666 155.98C67.3277 154.433 67.2638 152.709 67.7866 151.12C68.0466 150.48 68.4266 149.98 68.9866 149.9C69.1607 149.865 69.3417 149.893 69.4966 149.98C69.6433 150.109 69.7391 150.286 69.7666 150.48C69.8807 151.068 69.8807 151.672 69.7666 152.26C69.4748 153.75 68.9482 155.185 68.2066 156.51Z" fill="#EBB713"/>
<path d="M284.786 152.36C284.746 152.26 284.686 152.169 284.61 152.093C284.534 152.016 284.444 151.955 284.345 151.913C284.245 151.871 284.139 151.849 284.031 151.849C283.923 151.848 283.816 151.869 283.716 151.91C277.133 154.471 270.968 158 265.426 162.38C265.426 162.29 265.426 162.21 265.426 162.12C265.327 161.033 264.882 160.006 264.156 159.19C265.343 158.678 266.404 157.915 267.267 156.953C268.13 155.992 268.775 154.855 269.156 153.62C269.453 152.831 269.555 151.981 269.454 151.144C269.353 150.307 269.052 149.506 268.576 148.81C268.198 148.375 267.714 148.046 267.171 147.853C266.627 147.661 266.044 147.611 265.476 147.71C263.786 147.9 261.406 149.07 258.386 151.91C258.315 151.937 258.247 151.974 258.186 152.02C250.536 157.91 245.316 160.74 241.796 161.63C239.926 162.09 238.596 162 237.676 161.46C236.316 160.65 235.936 158.92 235.906 157.07C235.981 154.27 236.508 151.501 237.466 148.87C237.551 148.707 237.58 148.52 237.547 148.339C237.515 148.158 237.423 147.993 237.286 147.87C237.134 147.738 236.938 147.665 236.736 147.665C236.534 147.665 236.339 147.738 236.186 147.87C236.186 147.87 236.186 147.87 236.096 147.97C230.096 155.52 226.146 159.49 223.736 161.14C223.297 161.455 222.815 161.707 222.306 161.89C222.036 161.97 221.846 162.02 221.726 161.89C221.622 161.735 221.56 161.556 221.546 161.37C221.5 160.985 221.5 160.595 221.546 160.21C221.75 158.432 222.159 156.684 222.766 155C223.483 152.986 224.338 151.025 225.326 149.13C225.483 149.023 225.599 148.865 225.653 148.683C225.708 148.501 225.698 148.306 225.626 148.13C225.587 148.029 225.527 147.937 225.452 147.86C225.377 147.782 225.287 147.72 225.187 147.677C225.088 147.634 224.981 147.612 224.872 147.61C224.764 147.609 224.657 147.629 224.556 147.67C224.239 147.833 223.977 148.087 223.806 148.4C223.143 149.549 222.575 150.749 222.106 151.99L221.986 152.07C216.716 156.44 211.246 159.7 206.986 161.14C205.811 161.567 204.583 161.833 203.336 161.93C202.551 162.024 201.756 161.878 201.056 161.51C200.686 161.244 200.397 160.881 200.221 160.461C200.044 160.041 199.987 159.58 200.056 159.13C200.136 156.92 201.446 153.61 204.316 148.99C204.449 148.816 204.507 148.597 204.478 148.38C204.449 148.164 204.335 147.968 204.161 147.835C203.988 147.702 203.768 147.644 203.552 147.673C203.335 147.702 203.139 147.816 203.006 147.99C200.126 151.23 197.546 152.56 195.526 152.75C194.544 152.883 193.549 152.625 192.756 152.03C192.646 151.94 192.546 151.84 192.456 151.73C192.71 151.044 192.891 150.334 192.996 149.61C193.057 149.232 193.057 148.848 192.996 148.47C192.968 148.322 192.903 148.182 192.809 148.064C192.715 147.946 192.594 147.852 192.456 147.79C192.289 147.717 192.104 147.697 191.925 147.733C191.746 147.768 191.582 147.858 191.456 147.99C190.923 148.459 190.553 149.087 190.402 149.782C190.251 150.477 190.326 151.201 190.616 151.85C184.869 156 178.536 159.272 171.826 161.56C165.646 163.49 155.266 165.18 146.936 164.43C142.646 163.89 139.726 162.43 138.236 160.15C136.976 158.15 136.736 155.59 137.536 152.43C138.736 147.64 141.906 142.14 146.446 136.95C153.896 128.46 163.646 121.41 172.536 118.09C179.116 115.64 185.136 115.36 189.536 117.3C190.22 117.563 190.819 118.01 191.266 118.59C191.833 119.569 192.052 120.711 191.886 121.83C191.872 122.063 191.951 122.292 192.104 122.468C192.257 122.643 192.474 122.752 192.706 122.77C192.822 122.779 192.937 122.765 193.047 122.729C193.157 122.693 193.259 122.636 193.346 122.56C193.435 122.484 193.507 122.391 193.559 122.286C193.611 122.181 193.64 122.067 193.646 121.95C193.852 120.433 193.523 118.891 192.716 117.59C192.091 116.738 191.238 116.08 190.256 115.69C185.446 113.56 179.256 113.81 172.256 116.41C163.096 119.82 153.086 127.06 145.456 135.76C140.456 141.44 137.076 147.21 135.876 152C134.956 155.65 135.276 158.72 136.816 161.1C138.606 163.89 142.006 165.61 146.896 166.2C148.306 166.32 149.766 166.38 151.256 166.38C158.426 166.309 165.55 165.242 172.426 163.21C179.197 160.889 185.596 157.602 191.426 153.45C191.546 153.416 191.655 153.355 191.746 153.27C192.547 153.917 193.529 154.301 194.556 154.37C196.718 154.453 198.84 153.777 200.556 152.46C199.442 154.495 198.745 156.732 198.506 159.04C198.41 159.782 198.524 160.536 198.835 161.217C199.146 161.897 199.642 162.477 200.266 162.89C201.446 163.61 203.266 163.75 205.436 163.27C209.586 162.38 215.366 159.32 221.116 154.89C220.43 156.803 220.036 158.809 219.946 160.84C219.923 161.576 220.141 162.299 220.566 162.9C221.126 163.56 222.066 163.9 223.566 163.17C225.626 162.17 229.196 159 234.966 152.07C234.584 153.709 234.39 155.387 234.386 157.07C234.386 159.55 235.136 161.77 236.956 162.85C238.156 163.56 239.886 163.85 242.316 163.2C245.936 162.29 251.316 159.43 259.146 153.43C259.266 153.393 259.376 153.328 259.466 153.24C261.019 151.575 262.931 150.286 265.056 149.47C265.446 149.29 265.88 149.229 266.304 149.297C266.728 149.365 267.122 149.557 267.436 149.85C267.737 150.335 267.918 150.885 267.963 151.453C268.008 152.022 267.917 152.594 267.696 153.12C267.304 154.385 266.575 155.519 265.586 156.4C264.598 157.281 263.388 157.876 262.086 158.12C261.976 158.14 261.872 158.182 261.779 158.244C261.686 158.306 261.606 158.386 261.546 158.48C261.485 158.573 261.444 158.679 261.425 158.789C261.406 158.899 261.41 159.011 261.436 159.12C261.467 159.27 261.538 159.41 261.642 159.522C261.746 159.635 261.879 159.717 262.026 159.76C262.569 159.944 263.041 160.294 263.375 160.761C263.708 161.227 263.887 161.786 263.886 162.36C263.947 162.814 263.967 163.272 263.946 163.73C252.126 173.94 248.356 185.36 247.946 190.65C247.794 191.712 247.925 192.795 248.326 193.79C248.422 193.999 248.576 194.177 248.769 194.302C248.962 194.428 249.186 194.496 249.416 194.5C249.692 194.501 249.964 194.432 250.206 194.3C250.797 193.948 251.328 193.502 251.776 192.98C254.846 189.69 260.356 180.61 263.396 172.65C264.455 170.051 265.168 167.325 265.516 164.54C271.176 159.86 277.55 156.119 284.396 153.46C284.496 153.419 284.587 153.359 284.664 153.284C284.74 153.208 284.801 153.118 284.843 153.018C284.885 152.919 284.907 152.812 284.907 152.704C284.908 152.597 284.887 152.49 284.846 152.39L284.786 152.36ZM261.786 172.04C259.219 178.571 255.828 184.748 251.696 190.42C251.127 191.2 250.477 191.917 249.756 192.56L249.626 192.65C249.525 192.022 249.488 191.385 249.516 190.75C249.876 185.86 253.276 175.65 263.516 166.19C263.088 168.185 262.496 170.142 261.746 172.04H261.786Z" fill="#EBB713"/>
<path d="M169.506 12.6301C172.616 13.2601 174.146 14.1101 174.146 15.0701V19.3801C174.146 19.6601 173.866 19.6601 173.696 19.4301C172.977 17.3291 171.476 15.5853 169.506 14.5601C167.471 13.3927 165.163 12.7854 162.816 12.8001C160.502 12.7592 158.208 13.2364 156.103 14.1967C153.997 15.157 152.133 16.5761 150.646 18.3501C147.484 21.9001 145.768 26.5065 145.836 31.2601C145.775 36.0833 147.531 40.7529 150.756 44.3401C152.316 46.0944 154.238 47.4894 156.389 48.4286C158.54 49.3678 160.869 49.8289 163.216 49.7801C165.417 49.7446 167.569 49.1196 169.446 47.9701C171.381 46.9117 172.884 45.2101 173.696 43.1601C173.856 42.9301 174.146 42.9301 174.146 43.1601V47.5201C174.146 48.5201 172.616 49.3301 169.616 49.9501C167.384 50.4854 165.108 50.82 162.816 50.9501C160.202 51.0091 157.602 50.5451 155.169 49.5854C152.736 48.6257 150.52 47.1895 148.65 45.3613C146.78 43.5331 145.294 41.3497 144.28 38.9394C143.266 36.529 142.743 33.9402 142.743 31.3251C142.743 28.7099 143.266 26.1212 144.28 23.7108C145.294 21.3004 146.78 19.117 148.65 17.2888C150.52 15.4606 152.736 14.0245 155.169 13.0648C157.602 12.105 160.202 11.641 162.816 11.7001C165.071 11.8406 167.309 12.1751 169.506 12.7001V12.6301Z" fill="#EBB713"/>
<path d="M116.846 50.1401C113.726 49.5101 112.196 48.6701 112.196 47.7001V43.4001C112.196 43.1101 112.486 43.1101 112.656 43.3401C113.366 45.4469 114.869 47.194 116.846 48.2101C118.878 49.3784 121.183 49.9858 123.526 49.9701C125.841 50.0145 128.136 49.5389 130.242 48.5784C132.348 47.6178 134.212 46.1968 135.696 44.4201C138.862 40.8715 140.582 36.265 140.516 31.5101C140.574 26.6857 138.814 22.0163 135.586 18.4301C134.028 16.6747 132.106 15.279 129.955 14.3397C127.803 13.4004 125.473 12.9399 123.126 12.9901C120.929 13.0316 118.783 13.6563 116.906 14.8001C114.964 15.8535 113.458 17.5613 112.656 19.6201C112.486 19.8401 112.206 19.8401 112.206 19.6201V15.2601C112.206 14.2601 113.726 13.4401 116.736 12.8201C118.964 12.2793 121.237 11.9446 123.526 11.8201C128.73 11.8201 133.72 13.8872 137.4 17.5667C141.079 21.2461 143.146 26.2365 143.146 31.4401C143.146 36.6436 141.079 41.634 137.4 45.3135C133.72 48.993 128.73 51.0601 123.526 51.0601C121.275 50.9188 119.04 50.5842 116.846 50.0601V50.1401Z" fill="#EBB713"/>
<path d="M162.016 57.81C161.396 60.93 160.546 62.45 159.576 62.45H155.276C154.996 62.45 154.996 62.17 155.216 62C157.321 61.2867 159.067 59.7846 160.086 57.81C161.252 55.7778 161.86 53.473 161.846 51.13C161.891 48.814 161.415 46.5175 160.455 44.4096C159.494 42.3017 158.073 40.436 156.296 38.95C152.757 35.7974 148.166 34.0818 143.426 34.14C138.603 34.0807 133.935 35.8369 130.346 39.06C128.594 40.6205 127.201 42.5426 126.263 44.6938C125.326 46.845 124.866 49.174 124.916 51.52C124.952 53.7212 125.577 55.8725 126.726 57.75C127.779 59.6888 129.483 61.1938 131.536 62C131.766 62.17 131.756 62.45 131.536 62.45H127.176C126.176 62.45 125.366 60.92 124.736 57.92C124.196 55.6921 123.861 53.4192 123.736 51.13C123.736 45.9265 125.803 40.9361 129.483 37.2566C133.162 33.5771 138.153 31.51 143.356 31.51C148.56 31.51 153.55 33.5771 157.23 37.2566C160.909 40.9361 162.976 45.9265 162.976 51.13C162.832 53.3809 162.497 55.6155 161.976 57.81H162.016Z" fill="#EBB713"/>
<path d="M124.516 4.64001C125.136 1.53001 125.986 0 126.946 0H131.256C131.536 0 131.536 0.280012 131.306 0.450012C129.206 1.17242 127.464 2.6719 126.436 4.64001C125.276 6.67797 124.673 8.98514 124.686 11.33C124.643 13.6443 125.119 15.9389 126.08 18.045C127.04 20.151 128.46 22.015 130.236 23.5C133.782 26.6688 138.391 28.3861 143.146 28.31C147.969 28.3693 152.638 26.6131 156.226 23.39C157.978 21.8291 159.371 19.9069 160.308 17.7558C161.246 15.6047 161.705 13.276 161.656 10.93C161.619 8.7322 160.994 6.58438 159.846 4.71002C158.796 2.76852 157.092 1.26249 155.036 0.460022C154.806 0.290022 154.806 0.01 155.036 0H159.426C160.426 0 161.236 1.53 161.866 4.53C162.406 6.76137 162.741 9.03757 162.866 11.33C162.866 16.5336 160.799 21.524 157.119 25.2035C153.44 28.8829 148.45 30.95 143.246 30.95C138.042 30.95 133.052 28.8829 129.373 25.2035C125.693 21.524 123.626 16.5336 123.626 11.33C123.77 9.07914 124.105 6.84451 124.626 4.65002L124.516 4.64001Z" fill="#EBB713"/>
<path d="M72.9062 85.09C72.9032 85.0014 72.9277 84.9141 72.9762 84.84V84.72L73.0662 84.61L73.1162 84.56C73.1655 84.5152 73.2296 84.4903 73.2962 84.49H85.4962C85.7462 84.49 85.9562 85.04 85.9562 85.25C85.9562 85.46 86.1162 87.1 85.3362 87.1C85.0862 87.1 84.8262 86.89 84.5462 86.5C84.4609 86.3289 84.3335 86.1824 84.1761 86.0739C84.0187 85.9655 83.8364 85.8988 83.6462 85.88H80.7162L80.4162 86.18V98.98C80.4162 99.16 80.6462 99.37 81.1062 99.6C81.5662 99.83 81.8062 100.09 81.8062 100.37C81.8062 100.65 81.7162 100.83 81.5062 100.83H78.1062C77.7162 100.83 77.1862 100.59 77.1862 100.2C77.1862 99.97 77.3962 99.69 77.7862 99.39C77.962 99.285 78.11 99.1395 78.2179 98.9655C78.3258 98.7915 78.3904 98.5941 78.4062 98.39V86.39C78.3773 86.2783 78.3196 86.1761 78.2389 86.0936C78.1582 86.0111 78.0573 85.9513 77.9462 85.92H75.0362C74.7362 85.92 74.4362 86.16 74.1862 86.62C73.9362 87.08 73.6262 87.31 73.3262 87.31C73.0262 87.31 72.8662 87.22 72.8662 87.01V85.14L72.9062 85.09Z" fill="#EBB713"/>
<path d="M94.4262 84.49H105.056C105.326 84.49 105.516 85.03 105.516 85.42V85.74C105.537 86.0363 105.506 86.334 105.426 86.62C105.356 86.96 105.176 87.1 104.896 87.1C104.616 87.1 104.386 86.89 104.086 86.5C103.999 86.3301 103.872 86.1845 103.715 86.0762C103.557 85.968 103.376 85.9006 103.186 85.88H97.4962V91.88H102.116C102.446 91.88 102.716 91.64 102.926 91.18C103.136 90.72 103.396 90.49 103.646 90.49C103.776 90.4758 103.906 90.5128 104.009 90.5931C104.111 90.6734 104.179 90.7907 104.196 90.92C104.272 91.176 104.296 91.4446 104.266 91.71V92.03C104.266 92.1 104.316 92.73 104.316 93.17C104.316 93.84 104.206 94.64 103.646 94.64C103.396 94.64 103.136 94.43 102.886 94.04C102.636 93.65 102.376 93.42 102.116 93.42H97.4962V98.96C97.4962 99.24 98.0062 99.43 98.2662 99.43H103.646C104.472 99.2896 105.21 98.8343 105.706 98.16C105.739 98.1209 105.781 98.0899 105.828 98.0691C105.874 98.0483 105.925 98.0384 105.976 98.04H106.116C106.396 98.04 106.416 98.13 106.416 98.5C106.394 98.9886 106.31 99.4725 106.166 99.94C106.006 100.51 105.776 100.81 105.496 100.81H95.0762C94.5662 100.81 94.3062 100.6 94.3062 100.19C94.3062 99.98 94.4963 99.77 94.8463 99.57C95.1963 99.37 95.3763 99.17 95.3763 98.96V86.33C95.3763 86.08 95.1662 85.85 94.7562 85.64C94.3462 85.43 94.1563 85.2 94.1563 84.94C94.1563 84.68 94.1562 84.48 94.4562 84.48L94.4262 84.49Z" fill="#EBB713"/>
<path d="M116.566 86.64C117.37 85.8414 118.325 85.2129 119.377 84.792C120.428 84.371 121.554 84.1663 122.686 84.19C123.785 84.1596 124.878 84.3622 125.894 84.7844C126.909 85.2067 127.823 85.8391 128.576 86.64C129.367 87.4232 129.99 88.359 130.408 89.3904C130.825 90.4218 131.029 91.5274 131.006 92.64C131.013 93.9418 130.726 95.2283 130.167 96.4039C129.607 97.5794 128.79 98.6138 127.776 99.43C127.566 99.66 125.486 100.59 125.596 100.82V100.96C127.997 102.286 130.717 102.923 133.456 102.8C134.109 102.815 134.762 102.744 135.396 102.59C136.137 102.379 136.856 102.102 137.546 101.76H137.706H137.776C137.869 101.748 137.963 101.748 138.056 101.76C138.12 101.792 138.172 101.843 138.206 101.905C138.24 101.968 138.254 102.039 138.246 102.11V102.34C138.246 104.1 136.766 104.98 133.786 104.98C132.717 104.962 131.656 104.79 130.636 104.47C129.616 104.157 128.614 103.787 127.636 103.36C126.661 102.926 125.659 102.555 124.636 102.25C123.621 101.924 122.563 101.752 121.496 101.74C120.984 101.767 120.481 101.893 120.016 102.11C119.609 102.306 119.174 102.438 118.726 102.5C118.286 102.5 118.266 102.41 118.266 102.04C118.304 101.74 118.441 101.462 118.656 101.25C118.866 101.046 119.003 100.779 119.046 100.49C115.746 98.41 114.106 95.8 114.106 92.63C114.082 91.5091 114.295 90.3958 114.729 89.3622C115.163 88.3285 115.809 87.3977 116.626 86.63L116.566 86.64ZM117.906 87.64C116.678 89.0117 116.017 90.799 116.056 92.64C116.025 94.4796 116.685 96.2641 117.906 97.64C118.497 98.3236 119.232 98.8669 120.059 99.2302C120.886 99.5935 121.784 99.7677 122.686 99.74C123.554 99.7722 124.416 99.5987 125.203 99.2337C125.991 98.8687 126.68 98.3226 127.216 97.64C128.397 96.2446 129.029 94.4675 128.996 92.64C129.044 90.8136 128.418 89.0336 127.236 87.64C126.693 86.9612 125.998 86.4182 125.209 86.0537C124.419 85.6893 123.556 85.5134 122.686 85.54C121.78 85.5267 120.882 85.7134 120.055 86.0868C119.229 86.4601 118.495 87.0109 117.906 87.7V87.64Z" fill="#EBB713"/>
<path d="M139.016 84.4899H142.426C142.936 84.4899 143.186 84.6999 143.186 85.1199C143.186 85.3299 142.996 85.5099 142.656 85.7199C142.316 85.9299 142.116 86.1299 142.116 86.3399V95.6999C142.116 96.2494 142.241 96.7918 142.482 97.2857C142.723 97.7796 143.073 98.212 143.506 98.5499C144.359 99.2885 145.448 99.6966 146.576 99.6999C147.695 99.6695 148.763 99.228 149.576 98.4599C150.016 98.1113 150.372 97.6693 150.619 97.166C150.867 96.6627 150.999 96.1106 151.006 95.5499V86.2999C151.006 86.0499 150.796 85.8199 150.386 85.6099C149.576 85.1699 149.766 84.6099 149.876 84.4499C149.901 84.4257 149.932 84.4084 149.966 84.3999L150.086 84.4499H151.626C151.626 84.4499 152.206 84.3999 152.506 84.3999C153.356 84.3999 153.776 84.6399 153.776 85.0799C153.776 85.2899 153.596 85.4699 153.246 85.6799C152.896 85.8899 152.716 86.0899 152.716 86.2999V95.0799C152.714 95.9045 152.535 96.719 152.189 97.4679C151.844 98.2168 151.342 98.8826 150.716 99.4199C149.526 100.59 147.925 101.247 146.256 101.25C144.63 101.219 143.078 100.559 141.927 99.4087C140.777 98.2582 140.117 96.7067 140.086 95.0799V86.2999C140.086 85.6299 138.696 85.5899 138.696 84.9099C138.696 84.5899 138.696 84.4499 138.996 84.4499L139.016 84.4899Z" fill="#EBB713"/>
<path d="M162.636 99.58C162.986 99.37 163.166 99.19 163.166 98.98V86.34C163.166 86.09 162.956 85.85 162.546 85.65C162.136 85.45 161.946 85.21 161.946 84.95C161.946 84.69 161.946 84.49 162.246 84.49H165.636C166.146 84.49 166.406 84.7 166.406 85.11C166.406 85.32 166.216 85.51 165.866 85.71C165.516 85.91 165.336 86.13 165.336 86.34V98.98C165.336 99.23 165.546 99.46 165.936 99.67C166.326 99.88 166.556 100.11 166.556 100.37C166.556 100.63 166.556 100.83 166.256 100.83H162.866C162.356 100.83 162.096 100.62 162.096 100.21C162.096 100 162.286 99.79 162.626 99.58H162.636Z" fill="#EBB713"/>
<path d="M175.356 99.58C175.706 99.37 175.886 99.19 175.886 98.98V86.34C175.886 86.09 175.676 85.85 175.266 85.65C174.856 85.45 174.666 85.21 174.666 84.95C174.666 84.69 174.666 84.49 174.966 84.49H178.356C178.866 84.49 179.126 84.7 179.126 85.11C179.126 85.32 178.936 85.51 178.586 85.71C178.236 85.91 178.056 86.13 178.056 86.34V98.98C178.056 99.26 178.566 99.44 178.816 99.44H184.206C184.627 99.4039 185.035 99.2704 185.396 99.05C185.757 98.8296 186.061 98.5283 186.286 98.17C186.314 98.1307 186.352 98.0991 186.396 98.0782C186.439 98.0572 186.488 98.0475 186.536 98.05H186.676C186.946 98.05 186.976 98.15 186.976 98.52C186.954 99.0053 186.87 99.4859 186.726 99.95C186.556 100.53 186.326 100.83 186.046 100.83H175.576C175.066 100.83 174.816 100.62 174.816 100.2C174.816 99.99 175.006 99.79 175.346 99.58H175.356Z" fill="#EBB713"/>
<path d="M195.756 99.33C196.131 99.063 196.447 98.7228 196.686 98.33L202.086 86.16V86.02L201.376 85.31C201.33 85.2581 201.29 85.2011 201.256 85.14V85.03C201.24 85.0008 201.232 84.9681 201.232 84.935C201.232 84.9018 201.24 84.8692 201.256 84.84C201.396 84.59 201.536 84.47 201.696 84.47H203.846C204.006 84.47 204.096 84.59 204.256 84.93L204.396 85.17C204.449 85.2123 204.49 85.2674 204.516 85.33C204.726 85.77 205.646 87.83 207.236 91.5C208.826 95.17 209.786 97.21 210.016 97.69V97.74C210.309 98.2046 210.666 98.6254 211.076 98.99C211.696 99.61 211.996 100.05 211.996 100.35C211.996 100.65 211.996 100.81 211.696 100.81H207.996C207.726 100.81 207.696 100.7 207.696 100.35C207.696 100 208.296 99.5 208.296 99.1C208.254 98.6608 208.139 98.2317 207.956 97.83C207.746 97.25 207.496 96.95 207.236 96.95H199.236C198.956 96.95 198.696 97.23 198.466 97.79C198.286 98.2054 198.178 98.6483 198.146 99.1C198.146 99.5 198.766 99.96 198.766 100.35C198.766 100.74 198.766 100.81 198.466 100.81H195.376C195.096 100.81 195.076 100.7 195.076 100.35C195.076 100 195.326 99.72 195.836 99.35L195.756 99.33ZM199.756 95.12L199.896 95.28H206.426L206.586 95.12V94.96L203.516 88.03L203.196 87.73L203.076 87.86C203.068 87.8564 203.06 87.8545 203.051 87.8545C203.043 87.8545 203.034 87.8564 203.026 87.86L202.726 88.46C202.665 88.6771 202.563 88.8807 202.426 89.06C202.266 89.45 201.876 90.38 201.226 91.81C200.576 93.24 200.166 94.17 199.956 94.61L199.816 95.07L199.756 95.12Z" fill="#EBB713"/>
<path d="M96.3363 195.91C95.7163 195.91 95.2463 195.77 95.2463 195.56C95.2463 195.14 95.4563 194.82 95.5663 194.82C95.7706 194.862 95.9779 194.889 96.1863 194.9C99.0863 194.9 100.546 193.07 100.546 190.23C100.546 188.13 99.7162 186.41 97.5462 186.41C96.8062 186.41 96.5462 186.53 96.3862 186.65C96.2262 186.77 96.0962 187.12 95.8262 188.36L93.3163 200.15C93.2081 200.607 93.1379 201.072 93.1062 201.54C93.1062 202.1 93.2263 202.27 93.9663 202.27C94.7063 202.27 94.7663 202.37 94.7663 202.51C94.7663 202.84 94.6163 203.25 94.4663 203.25C94.0263 203.25 93.2263 203.13 91.5363 203.13C90.3863 203.13 89.6163 203.25 89.1363 203.25C88.9863 203.25 88.9062 203.01 88.9062 202.48C88.9062 202.33 89.0763 202.27 89.6363 202.27C90.6363 202.27 90.9163 201.92 91.1763 200.64L93.7562 188.64C93.865 188.153 93.9353 187.658 93.9663 187.16C93.9663 186.48 93.8163 186.24 92.9663 186.24C92.5263 186.24 92.4062 186.18 92.4062 186.03C92.4062 185.62 92.5562 185.26 92.6962 185.26C92.8362 185.26 93.5562 185.38 95.0362 185.38C95.6262 185.38 96.6362 185.26 98.0362 185.26C101.166 185.26 102.626 187.42 102.626 190.06C102.626 193.79 100.256 195.95 96.3163 195.95L96.3363 195.91Z" fill="#EBB713"/>
<path d="M108.866 186.88L105.996 198.43C105.785 199.195 105.648 199.979 105.586 200.77C105.586 201.21 105.756 201.42 106.026 201.42C107.026 201.42 107.716 199.42 108.026 199.42C108.336 199.42 108.676 199.6 108.676 199.78C108.599 200.102 108.471 200.409 108.296 200.69C107.586 202 105.986 203.36 105.096 203.36C104.206 203.36 103.736 202.83 103.736 201.29C103.786 200.146 103.967 199.012 104.276 197.91L107.026 186.91C107.155 186.467 107.232 186.011 107.256 185.55C107.256 185.11 106.966 184.96 105.666 184.96C105.516 184.96 105.426 184.84 105.426 184.4C105.426 184.22 105.606 184.1 106.046 184.01C107.436 183.78 109.046 183.27 109.356 183.27C109.666 183.27 109.626 183.39 109.626 183.66C109.626 183.93 109.356 184.66 108.826 186.88H108.866Z" fill="#EBB713"/>
<path d="M122.427 200.83C121.717 202.01 120.147 203.4 119.427 203.4C118.707 203.4 117.947 202.84 117.947 201.65C117.984 200.893 118.163 200.15 118.477 199.46C118.597 199.2 118.477 199.08 118.417 199.08C118.357 199.08 118.207 199.17 118.097 199.34C116.257 201.98 114.657 203.4 113.177 203.4C111.937 203.4 110.927 202.01 110.927 200.35C110.927 195.47 115.107 191.77 117.617 191.77C118.011 191.774 118.399 191.86 118.758 192.024C119.116 192.188 119.436 192.425 119.697 192.72C119.847 192.86 119.927 192.98 120.047 192.98C120.167 192.98 120.407 192.72 120.517 192.48C120.627 192.24 120.787 192.04 120.937 192.04H121.587C121.707 192.04 121.767 192.16 121.767 192.3C121.767 192.44 121.497 193.3 121.147 194.79L120.197 198.67C119.991 199.377 119.844 200.099 119.757 200.83C119.757 201.21 119.847 201.42 120.227 201.42C120.967 201.42 121.947 199.7 122.227 199.7C122.36 199.712 122.485 199.764 122.587 199.85C122.689 199.936 122.762 200.051 122.797 200.18C122.722 200.413 122.61 200.632 122.467 200.83H122.427ZM117.187 193.16C115.137 193.16 112.977 197.1 112.977 200.23C112.977 201.03 113.397 201.45 113.977 201.45C115.457 201.45 117.407 199.19 118.567 197.15C118.953 196.569 119.177 195.896 119.217 195.2C119.19 194.678 118.971 194.185 118.601 193.815C118.232 193.446 117.739 193.227 117.217 193.2L117.187 193.16Z" fill="#EBB713"/>
<path d="M131.787 193.19H129.537C129.297 193.19 129.127 193.31 129.037 193.63L127.827 198.57C127.637 199.239 127.517 199.926 127.467 200.62C127.467 201.06 127.647 201.33 127.887 201.33C128.717 201.33 129.507 199.55 129.957 199.55C130.098 199.579 130.228 199.647 130.332 199.746C130.436 199.845 130.511 199.971 130.547 200.11C130.547 200.26 130.397 200.47 130.047 200.94C128.567 202.86 127.417 203.4 126.587 203.4C125.987 203.4 125.587 202.69 125.587 201.4C125.602 200.752 125.693 200.107 125.857 199.48L127.037 194.74C127.166 194.306 127.257 193.861 127.307 193.41C127.307 193.23 127.217 193.15 127.037 193.15H125.707C125.677 193.154 125.646 193.152 125.617 193.144C125.588 193.135 125.561 193.12 125.538 193.1C125.516 193.08 125.497 193.056 125.485 193.028C125.473 193 125.466 192.97 125.467 192.94C125.467 192.73 125.647 191.99 125.857 191.99H127.357C127.447 192.002 127.538 191.978 127.61 191.924C127.683 191.87 127.732 191.789 127.747 191.7L128.487 188.7C128.667 188.445 128.899 188.231 129.168 188.072C129.437 187.913 129.736 187.814 130.047 187.78C130.317 187.78 130.377 187.9 130.377 188.04C130.325 188.377 130.255 188.711 130.167 189.04L129.727 190.84C129.643 191.141 129.582 191.449 129.547 191.76C129.547 191.94 129.607 192.03 129.807 192.03H131.967C132 192.03 132.033 192.037 132.064 192.05C132.094 192.063 132.121 192.083 132.144 192.107C132.167 192.132 132.184 192.161 132.195 192.192C132.205 192.224 132.21 192.257 132.207 192.29C132.207 192.53 132.057 193.18 131.817 193.18L131.787 193.19Z" fill="#EBB713"/>
<path d="M138.867 201.39C138.541 201.91 138.111 202.357 137.603 202.701C137.095 203.046 136.521 203.28 135.917 203.39C135.147 203.39 134.547 202.68 134.547 201.29C134.562 200.442 134.71 199.602 134.987 198.8L135.987 195.72C136.148 195.262 136.248 194.784 136.287 194.3C136.287 193.95 136.167 193.71 135.807 193.71C135.097 193.71 134.627 194.78 134.297 194.78C133.967 194.78 133.677 194.54 133.677 194.36C133.677 194.18 133.797 194.01 134.157 193.53C134.467 193.053 134.875 192.647 135.355 192.34C135.834 192.033 136.373 191.832 136.937 191.75C137.707 191.75 138.187 192.29 138.187 193.47C138.154 194.4 137.982 195.32 137.677 196.2L136.677 199.37C136.535 199.789 136.464 200.228 136.467 200.67C136.467 201.11 136.677 201.41 137.087 201.41C137.827 201.41 138.477 199.84 138.747 199.84C138.895 199.866 139.034 199.932 139.149 200.031C139.263 200.129 139.349 200.257 139.397 200.4C139.397 200.64 139.097 201.02 138.867 201.4V201.39ZM137.867 188.39C137.717 188.396 137.567 188.37 137.428 188.315C137.288 188.261 137.161 188.178 137.055 188.072C136.949 187.965 136.866 187.839 136.811 187.699C136.757 187.559 136.731 187.41 136.737 187.26C136.744 186.864 136.9 186.485 137.175 186.2C137.449 185.914 137.821 185.743 138.217 185.72C138.777 185.72 139.167 186.05 139.167 186.79C139.167 187.53 138.637 188.42 137.867 188.42V188.39Z" fill="#EBB713"/>
<path d="M153.316 201.12C152.666 202.12 151.316 203.4 150.386 203.4C149.456 203.4 148.876 202.81 148.876 201.4C148.901 200.672 149.028 199.952 149.256 199.26L150.206 196.26C150.335 195.807 150.406 195.34 150.416 194.87C150.416 194.25 150.096 193.87 149.616 193.87C148.376 193.87 145.506 197.42 145.026 199.34L144.256 202.48C144.146 202.98 144.056 203.07 143.876 203.07H142.576C142.456 203.07 142.396 202.98 142.396 202.8C142.503 202.203 142.644 201.612 142.816 201.03L144.176 195.55C144.287 195.162 144.354 194.763 144.376 194.36C144.376 194.01 144.256 193.77 143.996 193.77C143.046 193.77 142.426 195.28 141.996 195.28C141.872 195.268 141.756 195.216 141.666 195.13C141.575 195.045 141.515 194.933 141.496 194.81C141.613 194.464 141.793 194.142 142.026 193.86C142.689 192.79 143.738 192.017 144.956 191.7C145.816 191.7 146.136 192.59 146.136 193.8C146.026 194.486 145.838 195.157 145.576 195.8C145.576 195.92 145.636 195.98 145.726 195.98C145.816 195.98 146.026 195.71 146.176 195.5C148.276 192.6 149.576 191.66 150.616 191.66C151.856 191.66 152.386 192.57 152.386 193.82C152.36 194.613 152.232 195.399 152.006 196.16L151.006 199.38C150.851 199.818 150.764 200.276 150.746 200.74C150.746 201.13 150.946 201.34 151.246 201.34C152.016 201.34 152.666 199.77 153.196 199.77C153.346 199.77 153.706 200.09 153.706 200.24C153.619 200.516 153.487 200.776 153.316 201.01V201.12Z" fill="#EBB713"/>
<path d="M161.117 201.39C160.786 201.916 160.347 202.366 159.83 202.711C159.313 203.055 158.729 203.287 158.117 203.39C157.357 203.39 156.757 202.68 156.757 201.29C156.772 200.442 156.92 199.602 157.197 198.8L158.197 195.72C158.355 195.261 158.453 194.784 158.487 194.3C158.487 193.95 158.377 193.71 158.017 193.71C157.307 193.71 156.837 194.78 156.507 194.78C156.177 194.78 155.887 194.54 155.887 194.36C155.887 194.18 156.007 194.01 156.367 193.53C156.677 193.053 157.085 192.647 157.565 192.34C158.044 192.033 158.583 191.832 159.147 191.75C159.917 191.75 160.387 192.29 160.387 193.47C160.353 194.399 160.184 195.319 159.887 196.2L158.887 199.37C158.745 199.789 158.674 200.228 158.677 200.67C158.677 201.11 158.887 201.41 159.297 201.41C160.037 201.41 160.687 199.84 160.957 199.84C161.105 199.868 161.242 199.935 161.357 200.033C161.471 200.131 161.557 200.258 161.607 200.4C161.607 200.64 161.307 201.02 161.077 201.4L161.117 201.39ZM160.117 188.39C159.967 188.396 159.818 188.37 159.679 188.315C159.54 188.26 159.414 188.177 159.308 188.071C159.203 187.965 159.121 187.838 159.067 187.698C159.014 187.559 158.99 187.409 158.997 187.26C159.004 186.864 159.16 186.485 159.435 186.2C159.709 185.914 160.081 185.743 160.477 185.72C161.037 185.72 161.427 186.05 161.427 186.79C161.427 187.53 160.887 188.39 160.117 188.39Z" fill="#EBB713"/>
<path d="M175.936 200.7C174.546 202.56 173.266 203.39 172.466 203.39C171.666 203.39 171.466 202.68 171.466 201.55C171.549 200.778 171.737 200.021 172.026 199.3C172.026 199.15 171.966 199.07 171.876 199.07C171.786 199.07 171.636 199.27 171.546 199.42C169.716 202.15 168.116 203.42 166.816 203.42C165.516 203.42 164.896 202.56 164.896 201.22C164.904 200.284 165.063 199.356 165.366 198.47L166.196 196.11C166.41 195.499 166.528 194.858 166.546 194.21C166.551 194.144 166.544 194.078 166.523 194.015C166.502 193.952 166.468 193.894 166.424 193.845C166.38 193.795 166.327 193.755 166.267 193.727C166.207 193.698 166.142 193.683 166.076 193.68C165.276 193.68 164.806 194.8 164.446 194.8C164.276 194.8 163.916 194.54 163.916 194.36C164.027 194.075 164.175 193.806 164.356 193.56C164.653 193.096 165.043 192.699 165.5 192.392C165.958 192.086 166.474 191.878 167.016 191.78C167.756 191.78 168.406 192.56 168.406 193.86C168.394 194.541 168.276 195.216 168.056 195.86L167.166 198.61C166.999 199.148 166.912 199.707 166.906 200.27C166.906 201.01 167.256 201.34 167.786 201.34C169.386 201.34 172.026 197.88 172.646 195.45L173.386 192.55C173.466 192.25 173.596 192.07 173.766 192.07H175.036C175.156 192.07 175.216 192.13 175.216 192.31C175.085 193.008 174.918 193.699 174.716 194.38L173.586 198.88C173.422 199.492 173.315 200.118 173.266 200.75C173.266 201.13 173.466 201.34 173.736 201.34C174.536 201.34 175.396 199.65 175.736 199.65C175.872 199.676 175.997 199.741 176.097 199.837C176.196 199.932 176.265 200.055 176.296 200.19C176.211 200.397 176.089 200.587 175.936 200.75V200.7Z" fill="#EBB713"/>
<path d="M195.486 201.12C194.806 202.19 193.486 203.4 192.646 203.4C191.806 203.4 191.046 202.75 191.046 201.24C191.069 200.535 191.197 199.837 191.426 199.17L192.256 196.68C192.481 196.037 192.603 195.361 192.616 194.68C192.616 194.2 192.406 193.91 191.936 193.91C190.986 193.91 188.146 197.22 187.616 199.35L186.846 202.49C186.756 202.87 186.636 203.08 186.486 203.08H185.156C185.006 203.08 184.946 202.99 184.946 202.84C185.038 202.34 185.158 201.846 185.306 201.36L186.516 196.48C186.682 195.91 186.783 195.323 186.816 194.73C186.816 194.2 186.576 193.93 186.156 193.93C185.096 193.93 182.316 197.54 181.896 199.23L181.106 202.43C180.986 202.87 180.896 203.08 180.716 203.08H179.426C179.276 203.08 179.216 202.96 179.216 202.79C179.304 202.306 179.424 201.828 179.576 201.36L181.056 195.47C181.157 195.105 181.214 194.729 181.226 194.35C181.226 193.97 181.116 193.73 180.846 193.73C180.076 193.73 179.276 195.36 178.926 195.36C178.8 195.323 178.685 195.257 178.588 195.169C178.491 195.081 178.415 194.972 178.366 194.85C178.507 194.518 178.685 194.203 178.896 193.91C179.214 193.353 179.645 192.869 180.162 192.49C180.679 192.111 181.27 191.845 181.896 191.71C182.606 191.71 182.966 192.6 182.966 193.71C182.87 194.419 182.689 195.114 182.426 195.78C182.426 195.93 182.486 196.02 182.576 196.02C182.666 196.02 182.816 195.84 182.936 195.66C185.036 192.66 186.226 191.66 187.226 191.66C187.669 191.708 188.075 191.928 188.357 192.272C188.639 192.616 188.775 193.057 188.736 193.5C188.644 194.265 188.477 195.018 188.236 195.75C188.236 195.89 188.296 195.98 188.386 195.98C188.476 195.98 188.676 195.75 188.856 195.48C190.716 192.64 192.026 191.66 192.996 191.66C193.966 191.66 194.566 192.37 194.566 193.59C194.539 194.441 194.401 195.285 194.156 196.1L193.296 198.89C193.112 199.453 193.005 200.038 192.976 200.63C192.976 201.07 193.206 201.31 193.566 201.31C194.246 201.31 194.926 199.71 195.286 199.71C195.646 199.71 195.936 200.01 195.936 200.19C195.831 200.487 195.683 200.766 195.496 201.02L195.486 201.12Z" fill="#EBB713"/>
<path d="M53.3164 116.22C48.8464 109.71 41.2064 104.75 30.3764 103.42C25.1564 102.615 19.8162 103.535 15.1664 106.04C5.85639 111.34 2.64639 122.92 5.83639 131.51C6.60997 133.703 7.86208 135.696 9.50184 137.344C11.1416 138.992 13.1278 140.255 15.3164 141.04C14.0564 143.75 12.7764 146.41 11.5164 148.87C8.81638 154.16 6.21639 158.54 4.13639 160.61C3.13639 160.4 2.13638 160.18 1.04638 159.93C0.901743 159.888 0.748474 159.888 0.603339 159.927C0.458204 159.967 0.326797 160.046 0.223532 160.155C0.120267 160.265 0.0491217 160.401 0.0178742 160.548C-0.0133732 160.695 -0.00351453 160.848 0.0463777 160.99C0.146902 161.45 0.349031 161.882 0.637976 162.254C0.926922 162.626 1.29537 162.929 1.71638 163.14C2.20597 163.326 2.74678 163.326 3.23638 163.14C3.7257 162.961 4.1794 162.697 4.57638 162.36C28.2564 166.93 44.0464 159.92 51.9864 149.36C59.6164 139.27 60.0464 125.9 53.3164 116.1V116.22ZM50.6664 148.49C43.1364 158.49 28.2364 165 6.00638 161.02C8.00638 158.67 10.4764 154.53 13.0064 149.62C14.3064 147.08 15.6264 144.34 16.9264 141.53C21.0964 142.59 26.3564 142.32 32.7064 140.1C32.8197 140.074 32.9263 140.024 33.0191 139.954C33.1119 139.884 33.189 139.795 33.2452 139.693C33.3015 139.591 33.3357 139.479 33.3457 139.363C33.3557 139.247 33.3412 139.13 33.3031 139.02C33.265 138.91 33.2043 138.809 33.1248 138.724C33.0453 138.639 32.9488 138.572 32.8416 138.527C32.7345 138.482 32.6189 138.459 32.5026 138.462C32.3863 138.464 32.2717 138.491 32.1664 138.54C26.3264 140.54 21.4864 140.88 17.6464 139.97C22.5264 129.27 26.9764 118.06 28.5264 114.2C28.7464 113.64 28.9564 113.14 29.0264 112.97C29.092 112.869 29.1353 112.755 29.1531 112.636C29.1709 112.517 29.163 112.396 29.1298 112.28C29.0966 112.164 29.039 112.057 28.9607 111.966C28.8825 111.874 28.7855 111.801 28.6764 111.75C28.485 111.66 28.266 111.648 28.066 111.717C27.866 111.786 27.7011 111.931 27.6064 112.12C27.6064 112.21 27.3464 112.72 26.9964 113.59C25.4364 117.46 20.9964 128.77 15.9964 139.5C14.0033 138.816 12.1904 137.691 10.6926 136.209C9.19492 134.727 8.05107 132.926 7.34638 130.94C5.85906 126.636 5.90247 121.95 7.46926 117.674C9.03605 113.399 12.0303 109.794 15.9464 107.47C20.29 105.139 25.2758 104.289 30.1464 105.05C40.4164 106.32 47.6864 110.97 51.9264 117.15C58.2664 126.38 57.8164 138.98 50.6264 148.49H50.6664ZM27.4964 112.55C27.4909 112.607 27.4909 112.663 27.4964 112.72C27.4897 112.664 27.4897 112.606 27.4964 112.55Z" fill="#EBB713"/>
<path d="M121.527 152.33C114.757 158.24 110.297 161.07 107.327 161.92C105.697 162.39 104.597 162.23 103.877 161.55C103.378 161.014 103.033 160.355 102.877 159.64C102.529 158.162 102.352 156.648 102.347 155.13C102.341 153.626 102.251 152.124 102.077 150.63C101.999 149.811 101.647 149.043 101.077 148.45C100.457 147.92 99.5466 147.75 98.2066 148.51C96.5066 149.51 93.7866 152.17 89.4066 157.59L93.1366 148.86C93.2004 148.663 93.1883 148.449 93.1026 148.261C93.0168 148.072 92.8638 147.922 92.6734 147.841C92.4829 147.76 92.269 147.752 92.0735 147.821C91.8779 147.889 91.715 148.028 91.6166 148.21L89.9366 152.14C89.8476 152.171 89.7634 152.215 89.6866 152.27C84.0666 156.8 79.6866 158.99 76.2666 159.68C72.8466 160.37 70.6466 159.48 69.2666 158C70.2917 156.317 71.0095 154.464 71.3866 152.53C71.8566 149.78 70.9066 148 68.7966 148.26C68.3579 148.33 67.9402 148.496 67.5736 148.747C67.207 148.997 66.9006 149.326 66.6766 149.71C65.9626 150.991 65.6688 152.463 65.8366 153.92C65.951 155.412 66.4356 156.852 67.2466 158.11C66.5712 159.116 65.7564 160.022 64.8266 160.8C63.2866 162.04 61.4966 162.63 59.6866 161.72C57.8766 160.81 57.3766 158.77 57.7866 156.72C58.4666 153.35 61.4366 149.72 65.4366 149.56C65.6541 149.551 65.859 149.455 66.0062 149.295C66.1534 149.135 66.2309 148.922 66.2216 148.705C66.2123 148.487 66.117 148.283 65.9567 148.135C65.7964 147.988 65.5841 147.911 65.3666 147.92C60.5866 148.13 56.9766 152.37 56.1766 156.4C55.6066 159.26 56.4166 161.97 58.9466 163.23C61.4766 164.49 63.7966 163.77 65.8566 162.11C66.7998 161.34 67.6341 160.445 68.3366 159.45C69.3899 160.457 70.714 161.134 72.1466 161.4C75.6966 162.12 81.0666 160.83 88.6766 155.19L85.4266 162.7C85.3435 162.885 85.3318 163.094 85.3938 163.287C85.4557 163.48 85.587 163.643 85.7623 163.745C85.9375 163.847 86.1443 163.88 86.3427 163.839C86.5411 163.797 86.717 163.684 86.8366 163.52C93.0266 155.43 96.6266 151.52 98.7466 150.11C99.005 149.93 99.2879 149.789 99.5866 149.69C99.6975 149.657 99.8157 149.657 99.9266 149.69C99.9966 149.69 100.047 149.77 100.087 149.84C100.17 149.967 100.234 150.105 100.277 150.25C100.592 151.897 100.726 153.574 100.677 155.25C100.647 157.294 100.985 159.326 101.677 161.25C101.918 161.855 102.297 162.395 102.783 162.829C103.268 163.263 103.848 163.578 104.477 163.75C106.209 164.041 107.988 163.749 109.537 162.92C112.537 161.6 116.767 158.74 122.627 153.63C122.766 153.479 122.844 153.282 122.847 153.077C122.849 152.872 122.776 152.673 122.64 152.519C122.505 152.365 122.317 152.266 122.113 152.243C121.909 152.219 121.704 152.271 121.537 152.39L121.527 152.33ZM68.2066 156.51C68.1166 156.33 68.0366 156.16 67.9666 155.98C67.3277 154.433 67.2638 152.709 67.7866 151.12C68.0466 150.48 68.4266 149.98 68.9866 149.9C69.1607 149.865 69.3417 149.893 69.4966 149.98C69.6433 150.109 69.7391 150.286 69.7666 150.48C69.8807 151.068 69.8807 151.672 69.7666 152.26C69.4748 153.75 68.9482 155.185 68.2066 156.51Z" fill="#EBB713"/>
<path d="M284.786 152.36C284.746 152.26 284.686 152.169 284.61 152.093C284.534 152.016 284.444 151.955 284.345 151.913C284.245 151.871 284.139 151.849 284.031 151.849C283.923 151.848 283.816 151.869 283.716 151.91C277.133 154.471 270.968 158 265.426 162.38C265.426 162.29 265.426 162.21 265.426 162.12C265.327 161.033 264.882 160.006 264.156 159.19C265.343 158.678 266.404 157.915 267.267 156.953C268.13 155.992 268.775 154.855 269.156 153.62C269.453 152.831 269.555 151.981 269.454 151.144C269.353 150.307 269.052 149.506 268.576 148.81C268.198 148.375 267.714 148.046 267.171 147.853C266.627 147.661 266.044 147.611 265.476 147.71C263.786 147.9 261.406 149.07 258.386 151.91C258.315 151.937 258.247 151.974 258.186 152.02C250.536 157.91 245.316 160.74 241.796 161.63C239.926 162.09 238.596 162 237.676 161.46C236.316 160.65 235.936 158.92 235.906 157.07C235.981 154.27 236.508 151.501 237.466 148.87C237.551 148.707 237.58 148.52 237.547 148.339C237.515 148.158 237.423 147.993 237.286 147.87C237.134 147.738 236.938 147.665 236.736 147.665C236.534 147.665 236.339 147.738 236.186 147.87C236.186 147.87 236.186 147.87 236.096 147.97C230.096 155.52 226.146 159.49 223.736 161.14C223.297 161.455 222.815 161.707 222.306 161.89C222.036 161.97 221.846 162.02 221.726 161.89C221.622 161.735 221.56 161.556 221.546 161.37C221.5 160.985 221.5 160.595 221.546 160.21C221.75 158.432 222.159 156.684 222.766 155C223.483 152.986 224.338 151.025 225.326 149.13C225.483 149.023 225.599 148.865 225.653 148.683C225.708 148.501 225.698 148.306 225.626 148.13C225.587 148.029 225.527 147.937 225.452 147.86C225.377 147.782 225.287 147.72 225.187 147.677C225.088 147.634 224.981 147.612 224.872 147.61C224.764 147.609 224.657 147.629 224.556 147.67C224.239 147.833 223.977 148.087 223.806 148.4C223.143 149.549 222.575 150.749 222.106 151.99L221.986 152.07C216.716 156.44 211.246 159.7 206.986 161.14C205.811 161.567 204.583 161.833 203.336 161.93C202.551 162.024 201.756 161.878 201.056 161.51C200.686 161.244 200.397 160.881 200.221 160.461C200.044 160.041 199.987 159.58 200.056 159.13C200.136 156.92 201.446 153.61 204.316 148.99C204.449 148.816 204.507 148.597 204.478 148.38C204.449 148.164 204.335 147.968 204.161 147.835C203.988 147.702 203.768 147.644 203.552 147.673C203.335 147.702 203.139 147.816 203.006 147.99C200.126 151.23 197.546 152.56 195.526 152.75C194.544 152.883 193.549 152.625 192.756 152.03C192.646 151.94 192.546 151.84 192.456 151.73C192.71 151.044 192.891 150.334 192.996 149.61C193.057 149.232 193.057 148.848 192.996 148.47C192.968 148.322 192.903 148.182 192.809 148.064C192.715 147.946 192.594 147.852 192.456 147.79C192.289 147.717 192.104 147.697 191.925 147.733C191.746 147.768 191.582 147.858 191.456 147.99C190.923 148.459 190.553 149.087 190.402 149.782C190.251 150.477 190.326 151.201 190.616 151.85C184.869 156 178.536 159.272 171.826 161.56C165.646 163.49 155.266 165.18 146.936 164.43C142.646 163.89 139.726 162.43 138.236 160.15C136.976 158.15 136.736 155.59 137.536 152.43C138.736 147.64 141.906 142.14 146.446 136.95C153.896 128.46 163.646 121.41 172.536 118.09C179.116 115.64 185.136 115.36 189.536 117.3C190.22 117.563 190.819 118.01 191.266 118.59C191.833 119.569 192.052 120.711 191.886 121.83C191.872 122.063 191.951 122.292 192.104 122.468C192.257 122.643 192.474 122.752 192.706 122.77C192.822 122.779 192.937 122.765 193.047 122.729C193.157 122.693 193.259 122.636 193.346 122.56C193.435 122.484 193.507 122.391 193.559 122.286C193.611 122.181 193.64 122.067 193.646 121.95C193.852 120.433 193.523 118.891 192.716 117.59C192.091 116.738 191.238 116.08 190.256 115.69C185.446 113.56 179.256 113.81 172.256 116.41C163.096 119.82 153.086 127.06 145.456 135.76C140.456 141.44 137.076 147.21 135.876 152C134.956 155.65 135.276 158.72 136.816 161.1C138.606 163.89 142.006 165.61 146.896 166.2C148.306 166.32 149.766 166.38 151.256 166.38C158.426 166.309 165.55 165.242 172.426 163.21C179.197 160.889 185.596 157.602 191.426 153.45C191.546 153.416 191.655 153.355 191.746 153.27C192.547 153.917 193.529 154.301 194.556 154.37C196.718 154.453 198.84 153.777 200.556 152.46C199.442 154.495 198.745 156.732 198.506 159.04C198.41 159.782 198.524 160.536 198.835 161.217C199.146 161.897 199.642 162.477 200.266 162.89C201.446 163.61 203.266 163.75 205.436 163.27C209.586 162.38 215.366 159.32 221.116 154.89C220.43 156.803 220.036 158.809 219.946 160.84C219.923 161.576 220.141 162.299 220.566 162.9C221.126 163.56 222.066 163.9 223.566 163.17C225.626 162.17 229.196 159 234.966 152.07C234.584 153.709 234.39 155.387 234.386 157.07C234.386 159.55 235.136 161.77 236.956 162.85C238.156 163.56 239.886 163.85 242.316 163.2C245.936 162.29 251.316 159.43 259.146 153.43C259.266 153.393 259.376 153.328 259.466 153.24C261.019 151.575 262.931 150.286 265.056 149.47C265.446 149.29 265.88 149.229 266.304 149.297C266.728 149.365 267.122 149.557 267.436 149.85C267.737 150.335 267.918 150.885 267.963 151.453C268.008 152.022 267.917 152.594 267.696 153.12C267.304 154.385 266.575 155.519 265.586 156.4C264.598 157.281 263.388 157.876 262.086 158.12C261.976 158.14 261.872 158.182 261.779 158.244C261.686 158.306 261.606 158.386 261.546 158.48C261.485 158.573 261.444 158.679 261.425 158.789C261.406 158.899 261.41 159.011 261.436 159.12C261.467 159.27 261.538 159.41 261.642 159.522C261.746 159.635 261.879 159.717 262.026 159.76C262.569 159.944 263.041 160.294 263.375 160.761C263.708 161.227 263.887 161.786 263.886 162.36C263.947 162.814 263.967 163.272 263.946 163.73C252.126 173.94 248.356 185.36 247.946 190.65C247.794 191.712 247.925 192.795 248.326 193.79C248.422 193.999 248.576 194.177 248.769 194.302C248.962 194.428 249.186 194.496 249.416 194.5C249.692 194.501 249.964 194.432 250.206 194.3C250.797 193.948 251.328 193.502 251.776 192.98C254.846 189.69 260.356 180.61 263.396 172.65C264.455 170.051 265.168 167.325 265.516 164.54C271.176 159.86 277.55 156.119 284.396 153.46C284.496 153.419 284.587 153.359 284.664 153.284C284.74 153.208 284.801 153.118 284.843 153.018C284.885 152.919 284.907 152.812 284.907 152.704C284.908 152.597 284.887 152.49 284.846 152.39L284.786 152.36ZM261.786 172.04C259.219 178.571 255.828 184.748 251.696 190.42C251.127 191.2 250.477 191.917 249.756 192.56L249.626 192.65C249.525 192.022 249.488 191.385 249.516 190.75C249.876 185.86 253.276 175.65 263.516 166.19C263.088 168.185 262.496 170.142 261.746 172.04H261.786Z" fill="#EBB713"/>
<path d="M169.506 12.6301C172.616 13.2601 174.146 14.1101 174.146 15.0701V19.3801C174.146 19.6601 173.866 19.6601 173.696 19.4301C172.977 17.3291 171.476 15.5853 169.506 14.5601C167.471 13.3927 165.163 12.7854 162.816 12.8001C160.502 12.7592 158.208 13.2364 156.103 14.1967C153.997 15.157 152.133 16.5761 150.646 18.3501C147.484 21.9001 145.768 26.5065 145.836 31.2601C145.775 36.0833 147.531 40.7529 150.756 44.3401C152.316 46.0944 154.238 47.4894 156.389 48.4286C158.54 49.3678 160.869 49.8289 163.216 49.7801C165.417 49.7446 167.569 49.1196 169.446 47.9701C171.381 46.9117 172.884 45.2101 173.696 43.1601C173.856 42.9301 174.146 42.9301 174.146 43.1601V47.5201C174.146 48.5201 172.616 49.3301 169.616 49.9501C167.384 50.4854 165.108 50.82 162.816 50.9501C160.202 51.0091 157.602 50.5451 155.169 49.5854C152.736 48.6257 150.52 47.1895 148.65 45.3613C146.78 43.5331 145.294 41.3497 144.28 38.9394C143.266 36.529 142.743 33.9402 142.743 31.3251C142.743 28.7099 143.266 26.1212 144.28 23.7108C145.294 21.3004 146.78 19.117 148.65 17.2888C150.52 15.4606 152.736 14.0245 155.169 13.0648C157.602 12.105 160.202 11.641 162.816 11.7001C165.071 11.8406 167.309 12.1751 169.506 12.7001V12.6301Z" fill="#EBB713"/>
<path d="M116.846 50.1401C113.726 49.5101 112.196 48.6701 112.196 47.7001V43.4001C112.196 43.1101 112.486 43.1101 112.656 43.3401C113.366 45.4469 114.869 47.194 116.846 48.2101C118.878 49.3784 121.183 49.9858 123.526 49.9701C125.841 50.0145 128.136 49.5389 130.242 48.5784C132.348 47.6178 134.212 46.1968 135.696 44.4201C138.862 40.8715 140.582 36.265 140.516 31.5101C140.574 26.6857 138.814 22.0163 135.586 18.4301C134.028 16.6747 132.106 15.279 129.955 14.3397C127.803 13.4004 125.473 12.9399 123.126 12.9901C120.929 13.0316 118.783 13.6563 116.906 14.8001C114.964 15.8535 113.458 17.5613 112.656 19.6201C112.486 19.8401 112.206 19.8401 112.206 19.6201V15.2601C112.206 14.2601 113.726 13.4401 116.736 12.8201C118.964 12.2793 121.237 11.9446 123.526 11.8201C128.73 11.8201 133.72 13.8872 137.4 17.5667C141.079 21.2461 143.146 26.2365 143.146 31.4401C143.146 36.6436 141.079 41.634 137.4 45.3135C133.72 48.993 128.73 51.0601 123.526 51.0601C121.275 50.9188 119.04 50.5842 116.846 50.0601V50.1401Z" fill="#EBB713"/>
<path d="M162.016 57.81C161.396 60.93 160.546 62.45 159.576 62.45H155.276C154.996 62.45 154.996 62.17 155.216 62C157.321 61.2867 159.067 59.7846 160.086 57.81C161.252 55.7778 161.86 53.473 161.846 51.13C161.891 48.814 161.415 46.5175 160.455 44.4096C159.494 42.3017 158.073 40.436 156.296 38.95C152.757 35.7974 148.166 34.0818 143.426 34.14C138.603 34.0807 133.935 35.8369 130.346 39.06C128.594 40.6205 127.201 42.5426 126.263 44.6938C125.326 46.845 124.866 49.174 124.916 51.52C124.952 53.7212 125.577 55.8725 126.726 57.75C127.779 59.6888 129.483 61.1938 131.536 62C131.766 62.17 131.756 62.45 131.536 62.45H127.176C126.176 62.45 125.366 60.92 124.736 57.92C124.196 55.6921 123.861 53.4192 123.736 51.13C123.736 45.9265 125.803 40.9361 129.483 37.2566C133.162 33.5771 138.153 31.51 143.356 31.51C148.56 31.51 153.55 33.5771 157.23 37.2566C160.909 40.9361 162.976 45.9265 162.976 51.13C162.832 53.3809 162.497 55.6155 161.976 57.81H162.016Z" fill="#EBB713"/>
<path d="M124.516 4.64001C125.136 1.53001 125.986 0 126.946 0H131.256C131.536 0 131.536 0.280012 131.306 0.450012C129.206 1.17242 127.464 2.6719 126.436 4.64001C125.276 6.67797 124.673 8.98514 124.686 11.33C124.643 13.6443 125.119 15.9389 126.08 18.045C127.04 20.151 128.46 22.015 130.236 23.5C133.782 26.6688 138.391 28.3861 143.146 28.31C147.969 28.3693 152.638 26.6131 156.226 23.39C157.978 21.8291 159.371 19.9069 160.308 17.7558C161.246 15.6047 161.705 13.276 161.656 10.93C161.619 8.7322 160.994 6.58438 159.846 4.71002C158.796 2.76852 157.092 1.26249 155.036 0.460022C154.806 0.290022 154.806 0.01 155.036 0H159.426C160.426 0 161.236 1.53 161.866 4.53C162.406 6.76137 162.741 9.03757 162.866 11.33C162.866 16.5336 160.799 21.524 157.119 25.2035C153.44 28.8829 148.45 30.95 143.246 30.95C138.042 30.95 133.052 28.8829 129.373 25.2035C125.693 21.524 123.626 16.5336 123.626 11.33C123.77 9.07914 124.105 6.84451 124.626 4.65002L124.516 4.64001Z" fill="#EBB713"/>
<path d="M72.9062 85.09C72.9032 85.0014 72.9277 84.9141 72.9762 84.84V84.72L73.0662 84.61L73.1162 84.56C73.1655 84.5152 73.2296 84.4903 73.2962 84.49H85.4962C85.7462 84.49 85.9562 85.04 85.9562 85.25C85.9562 85.46 86.1162 87.1 85.3362 87.1C85.0862 87.1 84.8262 86.89 84.5462 86.5C84.4609 86.3289 84.3335 86.1824 84.1761 86.0739C84.0187 85.9655 83.8364 85.8988 83.6462 85.88H80.7162L80.4162 86.18V98.98C80.4162 99.16 80.6462 99.37 81.1062 99.6C81.5662 99.83 81.8062 100.09 81.8062 100.37C81.8062 100.65 81.7162 100.83 81.5062 100.83H78.1062C77.7162 100.83 77.1862 100.59 77.1862 100.2C77.1862 99.97 77.3962 99.69 77.7862 99.39C77.962 99.285 78.11 99.1395 78.2179 98.9655C78.3258 98.7915 78.3904 98.5941 78.4062 98.39V86.39C78.3773 86.2783 78.3196 86.1761 78.2389 86.0936C78.1582 86.0111 78.0573 85.9513 77.9462 85.92H75.0362C74.7362 85.92 74.4362 86.16 74.1862 86.62C73.9362 87.08 73.6262 87.31 73.3262 87.31C73.0262 87.31 72.8662 87.22 72.8662 87.01V85.14L72.9062 85.09Z" fill="#EBB713"/>
<path d="M94.4262 84.49H105.056C105.326 84.49 105.516 85.03 105.516 85.42V85.74C105.537 86.0363 105.506 86.334 105.426 86.62C105.356 86.96 105.176 87.1 104.896 87.1C104.616 87.1 104.386 86.89 104.086 86.5C103.999 86.3301 103.872 86.1845 103.715 86.0762C103.557 85.968 103.376 85.9006 103.186 85.88H97.4962V91.88H102.116C102.446 91.88 102.716 91.64 102.926 91.18C103.136 90.72 103.396 90.49 103.646 90.49C103.776 90.4758 103.906 90.5128 104.009 90.5931C104.111 90.6734 104.179 90.7907 104.196 90.92C104.272 91.176 104.296 91.4446 104.266 91.71V92.03C104.266 92.1 104.316 92.73 104.316 93.17C104.316 93.84 104.206 94.64 103.646 94.64C103.396 94.64 103.136 94.43 102.886 94.04C102.636 93.65 102.376 93.42 102.116 93.42H97.4962V98.96C97.4962 99.24 98.0062 99.43 98.2662 99.43H103.646C104.472 99.2896 105.21 98.8343 105.706 98.16C105.739 98.1209 105.781 98.0899 105.828 98.0691C105.874 98.0483 105.925 98.0384 105.976 98.04H106.116C106.396 98.04 106.416 98.13 106.416 98.5C106.394 98.9886 106.31 99.4725 106.166 99.94C106.006 100.51 105.776 100.81 105.496 100.81H95.0762C94.5662 100.81 94.3062 100.6 94.3062 100.19C94.3062 99.98 94.4963 99.77 94.8463 99.57C95.1963 99.37 95.3763 99.17 95.3763 98.96V86.33C95.3763 86.08 95.1662 85.85 94.7562 85.64C94.3462 85.43 94.1563 85.2 94.1563 84.94C94.1563 84.68 94.1562 84.48 94.4562 84.48L94.4262 84.49Z" fill="#EBB713"/>
<path d="M116.566 86.64C117.37 85.8414 118.325 85.2129 119.377 84.792C120.428 84.371 121.554 84.1663 122.686 84.19C123.785 84.1596 124.878 84.3622 125.894 84.7844C126.909 85.2067 127.823 85.8391 128.576 86.64C129.367 87.4232 129.99 88.359 130.408 89.3904C130.825 90.4218 131.029 91.5274 131.006 92.64C131.013 93.9418 130.726 95.2283 130.167 96.4039C129.607 97.5794 128.79 98.6138 127.776 99.43C127.566 99.66 125.486 100.59 125.596 100.82V100.96C127.997 102.286 130.717 102.923 133.456 102.8C134.109 102.815 134.762 102.744 135.396 102.59C136.137 102.379 136.856 102.102 137.546 101.76H137.706H137.776C137.869 101.748 137.963 101.748 138.056 101.76C138.12 101.792 138.172 101.843 138.206 101.905C138.24 101.968 138.254 102.039 138.246 102.11V102.34C138.246 104.1 136.766 104.98 133.786 104.98C132.717 104.962 131.656 104.79 130.636 104.47C129.616 104.157 128.614 103.787 127.636 103.36C126.661 102.926 125.659 102.555 124.636 102.25C123.621 101.924 122.563 101.752 121.496 101.74C120.984 101.767 120.481 101.893 120.016 102.11C119.609 102.306 119.174 102.438 118.726 102.5C118.286 102.5 118.266 102.41 118.266 102.04C118.304 101.74 118.441 101.462 118.656 101.25C118.866 101.046 119.003 100.779 119.046 100.49C115.746 98.41 114.106 95.8 114.106 92.63C114.082 91.5091 114.295 90.3958 114.729 89.3622C115.163 88.3285 115.809 87.3977 116.626 86.63L116.566 86.64ZM117.906 87.64C116.678 89.0117 116.017 90.799 116.056 92.64C116.025 94.4796 116.685 96.2641 117.906 97.64C118.497 98.3236 119.232 98.8669 120.059 99.2302C120.886 99.5935 121.784 99.7677 122.686 99.74C123.554 99.7722 124.416 99.5987 125.203 99.2337C125.991 98.8687 126.68 98.3226 127.216 97.64C128.397 96.2446 129.029 94.4675 128.996 92.64C129.044 90.8136 128.418 89.0336 127.236 87.64C126.693 86.9612 125.998 86.4182 125.209 86.0537C124.419 85.6893 123.556 85.5134 122.686 85.54C121.78 85.5267 120.882 85.7134 120.055 86.0868C119.229 86.4601 118.495 87.0109 117.906 87.7V87.64Z" fill="#EBB713"/>
<path d="M139.016 84.4899H142.426C142.936 84.4899 143.186 84.6999 143.186 85.1199C143.186 85.3299 142.996 85.5099 142.656 85.7199C142.316 85.9299 142.116 86.1299 142.116 86.3399V95.6999C142.116 96.2494 142.241 96.7918 142.482 97.2857C142.723 97.7796 143.073 98.212 143.506 98.5499C144.359 99.2885 145.448 99.6966 146.576 99.6999C147.695 99.6695 148.763 99.228 149.576 98.4599C150.016 98.1113 150.372 97.6693 150.619 97.166C150.867 96.6627 150.999 96.1106 151.006 95.5499V86.2999C151.006 86.0499 150.796 85.8199 150.386 85.6099C149.576 85.1699 149.766 84.6099 149.876 84.4499C149.901 84.4257 149.932 84.4084 149.966 84.3999L150.086 84.4499H151.626C151.626 84.4499 152.206 84.3999 152.506 84.3999C153.356 84.3999 153.776 84.6399 153.776 85.0799C153.776 85.2899 153.596 85.4699 153.246 85.6799C152.896 85.8899 152.716 86.0899 152.716 86.2999V95.0799C152.714 95.9045 152.535 96.719 152.189 97.4679C151.844 98.2168 151.342 98.8826 150.716 99.4199C149.526 100.59 147.925 101.247 146.256 101.25C144.63 101.219 143.078 100.559 141.927 99.4087C140.777 98.2582 140.117 96.7067 140.086 95.0799V86.2999C140.086 85.6299 138.696 85.5899 138.696 84.9099C138.696 84.5899 138.696 84.4499 138.996 84.4499L139.016 84.4899Z" fill="#EBB713"/>
<path d="M162.636 99.58C162.986 99.37 163.166 99.19 163.166 98.98V86.34C163.166 86.09 162.956 85.85 162.546 85.65C162.136 85.45 161.946 85.21 161.946 84.95C161.946 84.69 161.946 84.49 162.246 84.49H165.636C166.146 84.49 166.406 84.7 166.406 85.11C166.406 85.32 166.216 85.51 165.866 85.71C165.516 85.91 165.336 86.13 165.336 86.34V98.98C165.336 99.23 165.546 99.46 165.936 99.67C166.326 99.88 166.556 100.11 166.556 100.37C166.556 100.63 166.556 100.83 166.256 100.83H162.866C162.356 100.83 162.096 100.62 162.096 100.21C162.096 100 162.286 99.79 162.626 99.58H162.636Z" fill="#EBB713"/>
<path d="M175.356 99.58C175.706 99.37 175.886 99.19 175.886 98.98V86.34C175.886 86.09 175.676 85.85 175.266 85.65C174.856 85.45 174.666 85.21 174.666 84.95C174.666 84.69 174.666 84.49 174.966 84.49H178.356C178.866 84.49 179.126 84.7 179.126 85.11C179.126 85.32 178.936 85.51 178.586 85.71C178.236 85.91 178.056 86.13 178.056 86.34V98.98C178.056 99.26 178.566 99.44 178.816 99.44H184.206C184.627 99.4039 185.035 99.2704 185.396 99.05C185.757 98.8296 186.061 98.5283 186.286 98.17C186.314 98.1307 186.352 98.0991 186.396 98.0782C186.439 98.0572 186.488 98.0475 186.536 98.05H186.676C186.946 98.05 186.976 98.15 186.976 98.52C186.954 99.0053 186.87 99.4859 186.726 99.95C186.556 100.53 186.326 100.83 186.046 100.83H175.576C175.066 100.83 174.816 100.62 174.816 100.2C174.816 99.99 175.006 99.79 175.346 99.58H175.356Z" fill="#EBB713"/>
<path d="M195.756 99.33C196.131 99.063 196.447 98.7228 196.686 98.33L202.086 86.16V86.02L201.376 85.31C201.33 85.2581 201.29 85.2011 201.256 85.14V85.03C201.24 85.0008 201.232 84.9681 201.232 84.935C201.232 84.9018 201.24 84.8692 201.256 84.84C201.396 84.59 201.536 84.47 201.696 84.47H203.846C204.006 84.47 204.096 84.59 204.256 84.93L204.396 85.17C204.449 85.2123 204.49 85.2674 204.516 85.33C204.726 85.77 205.646 87.83 207.236 91.5C208.826 95.17 209.786 97.21 210.016 97.69V97.74C210.309 98.2046 210.666 98.6254 211.076 98.99C211.696 99.61 211.996 100.05 211.996 100.35C211.996 100.65 211.996 100.81 211.696 100.81H207.996C207.726 100.81 207.696 100.7 207.696 100.35C207.696 100 208.296 99.5 208.296 99.1C208.254 98.6608 208.139 98.2317 207.956 97.83C207.746 97.25 207.496 96.95 207.236 96.95H199.236C198.956 96.95 198.696 97.23 198.466 97.79C198.286 98.2054 198.178 98.6483 198.146 99.1C198.146 99.5 198.766 99.96 198.766 100.35C198.766 100.74 198.766 100.81 198.466 100.81H195.376C195.096 100.81 195.076 100.7 195.076 100.35C195.076 100 195.326 99.72 195.836 99.35L195.756 99.33ZM199.756 95.12L199.896 95.28H206.426L206.586 95.12V94.96L203.516 88.03L203.196 87.73L203.076 87.86C203.068 87.8564 203.06 87.8545 203.051 87.8545C203.043 87.8545 203.034 87.8564 203.026 87.86L202.726 88.46C202.665 88.6771 202.563 88.8807 202.426 89.06C202.266 89.45 201.876 90.38 201.226 91.81C200.576 93.24 200.166 94.17 199.956 94.61L199.816 95.07L199.756 95.12Z" fill="#EBB713"/>
<path d="M96.3363 195.91C95.7163 195.91 95.2463 195.77 95.2463 195.56C95.2463 195.14 95.4563 194.82 95.5663 194.82C95.7706 194.862 95.9779 194.889 96.1863 194.9C99.0863 194.9 100.546 193.07 100.546 190.23C100.546 188.13 99.7162 186.41 97.5462 186.41C96.8062 186.41 96.5462 186.53 96.3862 186.65C96.2262 186.77 96.0962 187.12 95.8262 188.36L93.3163 200.15C93.2081 200.607 93.1379 201.072 93.1062 201.54C93.1062 202.1 93.2263 202.27 93.9663 202.27C94.7063 202.27 94.7663 202.37 94.7663 202.51C94.7663 202.84 94.6163 203.25 94.4663 203.25C94.0263 203.25 93.2263 203.13 91.5363 203.13C90.3863 203.13 89.6163 203.25 89.1363 203.25C88.9863 203.25 88.9062 203.01 88.9062 202.48C88.9062 202.33 89.0763 202.27 89.6363 202.27C90.6363 202.27 90.9163 201.92 91.1763 200.64L93.7562 188.64C93.865 188.153 93.9353 187.658 93.9663 187.16C93.9663 186.48 93.8163 186.24 92.9663 186.24C92.5263 186.24 92.4062 186.18 92.4062 186.03C92.4062 185.62 92.5562 185.26 92.6962 185.26C92.8362 185.26 93.5562 185.38 95.0362 185.38C95.6262 185.38 96.6362 185.26 98.0362 185.26C101.166 185.26 102.626 187.42 102.626 190.06C102.626 193.79 100.256 195.95 96.3163 195.95L96.3363 195.91Z" fill="#EBB713"/>
<path d="M108.866 186.88L105.996 198.43C105.785 199.195 105.648 199.979 105.586 200.77C105.586 201.21 105.756 201.42 106.026 201.42C107.026 201.42 107.716 199.42 108.026 199.42C108.336 199.42 108.676 199.6 108.676 199.78C108.599 200.102 108.471 200.409 108.296 200.69C107.586 202 105.986 203.36 105.096 203.36C104.206 203.36 103.736 202.83 103.736 201.29C103.786 200.146 103.967 199.012 104.276 197.91L107.026 186.91C107.155 186.467 107.232 186.011 107.256 185.55C107.256 185.11 106.966 184.96 105.666 184.96C105.516 184.96 105.426 184.84 105.426 184.4C105.426 184.22 105.606 184.1 106.046 184.01C107.436 183.78 109.046 183.27 109.356 183.27C109.666 183.27 109.626 183.39 109.626 183.66C109.626 183.93 109.356 184.66 108.826 186.88H108.866Z" fill="#EBB713"/>
<path d="M122.427 200.83C121.717 202.01 120.147 203.4 119.427 203.4C118.707 203.4 117.947 202.84 117.947 201.65C117.984 200.893 118.163 200.15 118.477 199.46C118.597 199.2 118.477 199.08 118.417 199.08C118.357 199.08 118.207 199.17 118.097 199.34C116.257 201.98 114.657 203.4 113.177 203.4C111.937 203.4 110.927 202.01 110.927 200.35C110.927 195.47 115.107 191.77 117.617 191.77C118.011 191.774 118.399 191.86 118.758 192.024C119.116 192.188 119.436 192.425 119.697 192.72C119.847 192.86 119.927 192.98 120.047 192.98C120.167 192.98 120.407 192.72 120.517 192.48C120.627 192.24 120.787 192.04 120.937 192.04H121.587C121.707 192.04 121.767 192.16 121.767 192.3C121.767 192.44 121.497 193.3 121.147 194.79L120.197 198.67C119.991 199.377 119.844 200.099 119.757 200.83C119.757 201.21 119.847 201.42 120.227 201.42C120.967 201.42 121.947 199.7 122.227 199.7C122.36 199.712 122.485 199.764 122.587 199.85C122.689 199.936 122.762 200.051 122.797 200.18C122.722 200.413 122.61 200.632 122.467 200.83H122.427ZM117.187 193.16C115.137 193.16 112.977 197.1 112.977 200.23C112.977 201.03 113.397 201.45 113.977 201.45C115.457 201.45 117.407 199.19 118.567 197.15C118.953 196.569 119.177 195.896 119.217 195.2C119.19 194.678 118.971 194.185 118.601 193.815C118.232 193.446 117.739 193.227 117.217 193.2L117.187 193.16Z" fill="#EBB713"/>
<path d="M131.787 193.19H129.537C129.297 193.19 129.127 193.31 129.037 193.63L127.827 198.57C127.637 199.239 127.517 199.926 127.467 200.62C127.467 201.06 127.647 201.33 127.887 201.33C128.717 201.33 129.507 199.55 129.957 199.55C130.098 199.579 130.228 199.647 130.332 199.746C130.436 199.845 130.511 199.971 130.547 200.11C130.547 200.26 130.397 200.47 130.047 200.94C128.567 202.86 127.417 203.4 126.587 203.4C125.987 203.4 125.587 202.69 125.587 201.4C125.602 200.752 125.693 200.107 125.857 199.48L127.037 194.74C127.166 194.306 127.257 193.861 127.307 193.41C127.307 193.23 127.217 193.15 127.037 193.15H125.707C125.677 193.154 125.646 193.152 125.617 193.144C125.588 193.135 125.561 193.12 125.538 193.1C125.516 193.08 125.497 193.056 125.485 193.028C125.473 193 125.466 192.97 125.467 192.94C125.467 192.73 125.647 191.99 125.857 191.99H127.357C127.447 192.002 127.538 191.978 127.61 191.924C127.683 191.87 127.732 191.789 127.747 191.7L128.487 188.7C128.667 188.445 128.899 188.231 129.168 188.072C129.437 187.913 129.736 187.814 130.047 187.78C130.317 187.78 130.377 187.9 130.377 188.04C130.325 188.377 130.255 188.711 130.167 189.04L129.727 190.84C129.643 191.141 129.582 191.449 129.547 191.76C129.547 191.94 129.607 192.03 129.807 192.03H131.967C132 192.03 132.033 192.037 132.064 192.05C132.094 192.063 132.121 192.083 132.144 192.107C132.167 192.132 132.184 192.161 132.195 192.192C132.205 192.224 132.21 192.257 132.207 192.29C132.207 192.53 132.057 193.18 131.817 193.18L131.787 193.19Z" fill="#EBB713"/>
<path d="M138.867 201.39C138.541 201.91 138.111 202.357 137.603 202.701C137.095 203.046 136.521 203.28 135.917 203.39C135.147 203.39 134.547 202.68 134.547 201.29C134.562 200.442 134.71 199.602 134.987 198.8L135.987 195.72C136.148 195.262 136.248 194.784 136.287 194.3C136.287 193.95 136.167 193.71 135.807 193.71C135.097 193.71 134.627 194.78 134.297 194.78C133.967 194.78 133.677 194.54 133.677 194.36C133.677 194.18 133.797 194.01 134.157 193.53C134.467 193.053 134.875 192.647 135.355 192.34C135.834 192.033 136.373 191.832 136.937 191.75C137.707 191.75 138.187 192.29 138.187 193.47C138.154 194.4 137.982 195.32 137.677 196.2L136.677 199.37C136.535 199.789 136.464 200.228 136.467 200.67C136.467 201.11 136.677 201.41 137.087 201.41C137.827 201.41 138.477 199.84 138.747 199.84C138.895 199.866 139.034 199.932 139.149 200.031C139.263 200.129 139.349 200.257 139.397 200.4C139.397 200.64 139.097 201.02 138.867 201.4V201.39ZM137.867 188.39C137.717 188.396 137.567 188.37 137.428 188.315C137.288 188.261 137.161 188.178 137.055 188.072C136.949 187.965 136.866 187.839 136.811 187.699C136.757 187.559 136.731 187.41 136.737 187.26C136.744 186.864 136.9 186.485 137.175 186.2C137.449 185.914 137.821 185.743 138.217 185.72C138.777 185.72 139.167 186.05 139.167 186.79C139.167 187.53 138.637 188.42 137.867 188.42V188.39Z" fill="#EBB713"/>
<path d="M153.316 201.12C152.666 202.12 151.316 203.4 150.386 203.4C149.456 203.4 148.876 202.81 148.876 201.4C148.901 200.672 149.028 199.952 149.256 199.26L150.206 196.26C150.335 195.807 150.406 195.34 150.416 194.87C150.416 194.25 150.096 193.87 149.616 193.87C148.376 193.87 145.506 197.42 145.026 199.34L144.256 202.48C144.146 202.98 144.056 203.07 143.876 203.07H142.576C142.456 203.07 142.396 202.98 142.396 202.8C142.503 202.203 142.644 201.612 142.816 201.03L144.176 195.55C144.287 195.162 144.354 194.763 144.376 194.36C144.376 194.01 144.256 193.77 143.996 193.77C143.046 193.77 142.426 195.28 141.996 195.28C141.872 195.268 141.756 195.216 141.666 195.13C141.575 195.045 141.515 194.933 141.496 194.81C141.613 194.464 141.793 194.142 142.026 193.86C142.689 192.79 143.738 192.017 144.956 191.7C145.816 191.7 146.136 192.59 146.136 193.8C146.026 194.486 145.838 195.157 145.576 195.8C145.576 195.92 145.636 195.98 145.726 195.98C145.816 195.98 146.026 195.71 146.176 195.5C148.276 192.6 149.576 191.66 150.616 191.66C151.856 191.66 152.386 192.57 152.386 193.82C152.36 194.613 152.232 195.399 152.006 196.16L151.006 199.38C150.851 199.818 150.764 200.276 150.746 200.74C150.746 201.13 150.946 201.34 151.246 201.34C152.016 201.34 152.666 199.77 153.196 199.77C153.346 199.77 153.706 200.09 153.706 200.24C153.619 200.516 153.487 200.776 153.316 201.01V201.12Z" fill="#EBB713"/>
<path d="M161.117 201.39C160.786 201.916 160.347 202.366 159.83 202.711C159.313 203.055 158.729 203.287 158.117 203.39C157.357 203.39 156.757 202.68 156.757 201.29C156.772 200.442 156.92 199.602 157.197 198.8L158.197 195.72C158.355 195.261 158.453 194.784 158.487 194.3C158.487 193.95 158.377 193.71 158.017 193.71C157.307 193.71 156.837 194.78 156.507 194.78C156.177 194.78 155.887 194.54 155.887 194.36C155.887 194.18 156.007 194.01 156.367 193.53C156.677 193.053 157.085 192.647 157.565 192.34C158.044 192.033 158.583 191.832 159.147 191.75C159.917 191.75 160.387 192.29 160.387 193.47C160.353 194.399 160.184 195.319 159.887 196.2L158.887 199.37C158.745 199.789 158.674 200.228 158.677 200.67C158.677 201.11 158.887 201.41 159.297 201.41C160.037 201.41 160.687 199.84 160.957 199.84C161.105 199.868 161.242 199.935 161.357 200.033C161.471 200.131 161.557 200.258 161.607 200.4C161.607 200.64 161.307 201.02 161.077 201.4L161.117 201.39ZM160.117 188.39C159.967 188.396 159.818 188.37 159.679 188.315C159.54 188.26 159.414 188.177 159.308 188.071C159.203 187.965 159.121 187.838 159.067 187.698C159.014 187.559 158.99 187.409 158.997 187.26C159.004 186.864 159.16 186.485 159.435 186.2C159.709 185.914 160.081 185.743 160.477 185.72C161.037 185.72 161.427 186.05 161.427 186.79C161.427 187.53 160.887 188.39 160.117 188.39Z" fill="#EBB713"/>
<path d="M175.936 200.7C174.546 202.56 173.266 203.39 172.466 203.39C171.666 203.39 171.466 202.68 171.466 201.55C171.549 200.778 171.737 200.021 172.026 199.3C172.026 199.15 171.966 199.07 171.876 199.07C171.786 199.07 171.636 199.27 171.546 199.42C169.716 202.15 168.116 203.42 166.816 203.42C165.516 203.42 164.896 202.56 164.896 201.22C164.904 200.284 165.063 199.356 165.366 198.47L166.196 196.11C166.41 195.499 166.528 194.858 166.546 194.21C166.551 194.144 166.544 194.078 166.523 194.015C166.502 193.952 166.468 193.894 166.424 193.845C166.38 193.795 166.327 193.755 166.267 193.727C166.207 193.698 166.142 193.683 166.076 193.68C165.276 193.68 164.806 194.8 164.446 194.8C164.276 194.8 163.916 194.54 163.916 194.36C164.027 194.075 164.175 193.806 164.356 193.56C164.653 193.096 165.043 192.699 165.5 192.392C165.958 192.086 166.474 191.878 167.016 191.78C167.756 191.78 168.406 192.56 168.406 193.86C168.394 194.541 168.276 195.216 168.056 195.86L167.166 198.61C166.999 199.148 166.912 199.707 166.906 200.27C166.906 201.01 167.256 201.34 167.786 201.34C169.386 201.34 172.026 197.88 172.646 195.45L173.386 192.55C173.466 192.25 173.596 192.07 173.766 192.07H175.036C175.156 192.07 175.216 192.13 175.216 192.31C175.085 193.008 174.918 193.699 174.716 194.38L173.586 198.88C173.422 199.492 173.315 200.118 173.266 200.75C173.266 201.13 173.466 201.34 173.736 201.34C174.536 201.34 175.396 199.65 175.736 199.65C175.872 199.676 175.997 199.741 176.097 199.837C176.196 199.932 176.265 200.055 176.296 200.19C176.211 200.397 176.089 200.587 175.936 200.75V200.7Z" fill="#EBB713"/>
<path d="M195.486 201.12C194.806 202.19 193.486 203.4 192.646 203.4C191.806 203.4 191.046 202.75 191.046 201.24C191.069 200.535 191.197 199.837 191.426 199.17L192.256 196.68C192.481 196.037 192.603 195.361 192.616 194.68C192.616 194.2 192.406 193.91 191.936 193.91C190.986 193.91 188.146 197.22 187.616 199.35L186.846 202.49C186.756 202.87 186.636 203.08 186.486 203.08H185.156C185.006 203.08 184.946 202.99 184.946 202.84C185.038 202.34 185.158 201.846 185.306 201.36L186.516 196.48C186.682 195.91 186.783 195.323 186.816 194.73C186.816 194.2 186.576 193.93 186.156 193.93C185.096 193.93 182.316 197.54 181.896 199.23L181.106 202.43C180.986 202.87 180.896 203.08 180.716 203.08H179.426C179.276 203.08 179.216 202.96 179.216 202.79C179.304 202.306 179.424 201.828 179.576 201.36L181.056 195.47C181.157 195.105 181.214 194.729 181.226 194.35C181.226 193.97 181.116 193.73 180.846 193.73C180.076 193.73 179.276 195.36 178.926 195.36C178.8 195.323 178.685 195.257 178.588 195.169C178.491 195.081 178.415 194.972 178.366 194.85C178.507 194.518 178.685 194.203 178.896 193.91C179.214 193.353 179.645 192.869 180.162 192.49C180.679 192.111 181.27 191.845 181.896 191.71C182.606 191.71 182.966 192.6 182.966 193.71C182.87 194.419 182.689 195.114 182.426 195.78C182.426 195.93 182.486 196.02 182.576 196.02C182.666 196.02 182.816 195.84 182.936 195.66C185.036 192.66 186.226 191.66 187.226 191.66C187.669 191.708 188.075 191.928 188.357 192.272C188.639 192.616 188.775 193.057 188.736 193.5C188.644 194.265 188.477 195.018 188.236 195.75C188.236 195.89 188.296 195.98 188.386 195.98C188.476 195.98 188.676 195.75 188.856 195.48C190.716 192.64 192.026 191.66 192.996 191.66C193.966 191.66 194.566 192.37 194.566 193.59C194.539 194.441 194.401 195.285 194.156 196.1L193.296 198.89C193.112 199.453 193.005 200.038 192.976 200.63C192.976 201.07 193.206 201.31 193.566 201.31C194.246 201.31 194.926 199.71 195.286 199.71C195.646 199.71 195.936 200.01 195.936 200.19C195.831 200.487 195.683 200.766 195.496 201.02L195.486 201.12Z" fill="#EBB713"/>
<path d="M202.827 193.01L202.707 192.95C202.547 192.794 202.403 192.624 202.277 192.44C202.144 192.287 202.03 192.119 201.937 191.94C202.054 191.842 202.178 191.752 202.307 191.67C202.412 191.591 202.5 191.49 202.564 191.375C202.628 191.259 202.666 191.131 202.677 191C202.675 190.881 202.647 190.764 202.595 190.657C202.543 190.55 202.469 190.455 202.377 190.38C202.291 190.296 202.189 190.23 202.078 190.185C201.966 190.14 201.847 190.118 201.727 190.12H200.517C200.517 190.12 200.517 190.12 200.517 190.21C200.517 190.3 200.517 190.3 200.637 190.34C200.757 190.38 200.757 190.42 200.757 190.45V192.99C200.757 192.99 200.757 193.06 200.647 193.1C200.537 193.14 200.537 193.19 200.537 193.23C200.537 193.27 200.647 193.36 200.857 193.36H201.367C201.367 193.36 201.457 193.36 201.457 193.24C201.457 193.12 201.407 193.16 201.317 193.13C201.227 193.1 201.177 193.05 201.177 193V192C201.177 192 201.177 192 201.267 192C202.057 192 202.027 193.4 202.817 193.4C202.957 193.4 203.077 193.4 203.097 193.24C203.117 193.08 202.987 193.12 202.857 193.06L202.827 193.01ZM201.697 191.61H201.147V190.42H201.207H201.327C201.536 190.413 201.745 190.454 201.937 190.54C202.036 190.577 202.121 190.645 202.18 190.732C202.239 190.82 202.269 190.924 202.267 191.03C202.262 191.191 202.198 191.344 202.087 191.46C202.039 191.517 201.979 191.562 201.911 191.593C201.844 191.624 201.771 191.64 201.697 191.64V191.61Z" fill="#EBB713"/>
<path d="M201.616 189.02C201.072 189.02 200.541 189.181 200.088 189.483C199.636 189.786 199.284 190.215 199.076 190.718C198.867 191.22 198.813 191.773 198.919 192.307C199.025 192.84 199.287 193.33 199.672 193.715C200.056 194.099 200.546 194.361 201.08 194.467C201.613 194.573 202.166 194.519 202.669 194.311C203.171 194.103 203.601 193.75 203.903 193.298C204.205 192.846 204.366 192.314 204.366 191.77C204.366 191.041 204.077 190.341 203.561 189.825C203.045 189.31 202.346 189.02 201.616 189.02ZM201.616 194.24C201.128 194.24 200.65 194.095 200.244 193.824C199.838 193.552 199.521 193.167 199.334 192.715C199.147 192.264 199.098 191.767 199.194 191.288C199.289 190.809 199.524 190.369 199.87 190.023C200.215 189.678 200.655 189.443 201.134 189.347C201.613 189.252 202.11 189.301 202.561 189.488C203.013 189.675 203.399 189.992 203.67 190.398C203.941 190.804 204.086 191.281 204.086 191.77C204.084 192.424 203.823 193.051 203.36 193.514C202.897 193.976 202.27 194.237 201.616 194.24Z" fill="#EBB713"/>
</svg>
