<svg width="285" height="204" viewBox="0 0 285 204" fill="none" xmlns="http://www.w3.org/2000/svg">
<g clip-path="url(#clip0_536_263)">
<path d="M53.32 62.2198C48.85 55.7098 41.21 50.7498 30.38 49.4198C25.16 48.6148 19.8199 49.5347 15.1701 52.0398C5.86005 57.3398 2.65005 68.9198 5.84005 77.5098C6.61363 79.7024 7.86574 81.6953 9.5055 83.3437C11.1453 84.9921 13.1315 86.2547 15.32 87.0398C14.06 89.7498 12.78 92.4098 11.52 94.8698C8.82004 100.16 6.22005 104.54 4.14005 106.61C3.14005 106.4 2.14004 106.18 1.05004 105.93C0.905405 105.888 0.752136 105.887 0.607001 105.927C0.461866 105.967 0.330459 106.046 0.227194 106.155C0.12393 106.265 0.0527838 106.4 0.0215364 106.548C-0.00971107 106.695 0.000147581 106.848 0.0500398 106.99C0.150564 107.45 0.352693 107.882 0.641638 108.254C0.930584 108.626 1.29903 108.929 1.72004 109.14C2.20963 109.326 2.75045 109.326 3.24004 109.14C3.72936 108.961 4.18306 108.697 4.58004 108.36C28.26 112.93 44.05 105.92 51.99 95.3598C59.62 85.2698 60.05 71.8998 53.32 62.0998V62.2198ZM50.6701 94.4898C43.1401 104.49 28.24 111 6.01005 107.02C8.01005 104.67 10.48 100.53 13.01 95.6198C14.31 93.0798 15.63 90.3398 16.93 87.5298C21.1 88.5898 26.36 88.3198 32.71 86.0998C32.8234 86.0735 32.9299 86.0236 33.0228 85.9535C33.1156 85.8834 33.1926 85.7945 33.2489 85.6927C33.3052 85.5908 33.3394 85.4783 33.3494 85.3623C33.3593 85.2464 33.3448 85.1297 33.3068 85.0198C33.2687 84.9098 33.208 84.8091 33.1285 84.7241C33.049 84.6392 32.9525 84.5719 32.8453 84.5266C32.7381 84.4814 32.6226 84.4591 32.5063 84.4614C32.3899 84.4637 32.2754 84.4904 32.1701 84.5398C26.3301 86.5398 21.49 86.8798 17.65 85.9698C22.53 75.2698 26.9801 64.0598 28.5301 60.1998C28.75 59.6398 28.9601 59.1398 29.0301 58.9698C29.0957 58.8689 29.1389 58.7551 29.1568 58.6361C29.1746 58.5171 29.1667 58.3956 29.1335 58.2799C29.1003 58.1642 29.0426 58.057 28.9644 57.9656C28.8862 57.8741 28.7892 57.8005 28.68 57.7498C28.4887 57.6595 28.2696 57.6477 28.0697 57.7168C27.8697 57.786 27.7047 57.9306 27.61 58.1198C27.61 58.2098 27.3501 58.7198 27.0001 59.5898C25.4401 63.4598 21.0001 74.7698 16.0001 85.4998C14.007 84.8159 12.194 83.691 10.6963 82.2088C9.19859 80.7267 8.05474 78.9256 7.35004 76.9398C5.86273 72.6356 5.90613 67.9501 7.47292 63.6742C9.03971 59.3983 12.0339 55.794 15.95 53.4698C20.2937 51.1387 25.2795 50.289 30.15 51.0498C40.42 52.3198 47.69 56.9698 51.93 63.1498C58.27 72.3798 57.82 84.9798 50.63 94.4898H50.6701ZM27.5001 58.5498C27.4946 58.6063 27.4946 58.6632 27.5001 58.7198C27.4933 58.6633 27.4933 58.6063 27.5001 58.5498Z" fill="#EBB713"/>
<path d="M121.53 98.3302C114.76 104.24 110.3 107.07 107.33 107.92C105.7 108.39 104.6 108.23 103.88 107.55C103.381 107.015 103.036 106.355 102.88 105.64C102.533 104.162 102.355 102.649 102.35 101.13C102.344 99.6263 102.254 98.1239 102.08 96.6301C102.003 95.8114 101.65 95.043 101.08 94.4502C100.46 93.9202 99.55 93.7501 98.21 94.5101C96.51 95.5101 93.79 98.1702 89.41 103.59L93.14 94.8602C93.2038 94.6631 93.1917 94.4494 93.106 94.2609C93.0203 94.0724 92.8672 93.9227 92.6768 93.8413C92.4864 93.7598 92.2724 93.7525 92.0769 93.8208C91.8814 93.889 91.7184 94.0279 91.62 94.2102L89.94 98.1402C89.851 98.1715 89.7668 98.2152 89.69 98.2702C84.07 102.8 79.69 104.99 76.27 105.68C72.85 106.37 70.65 105.48 69.27 104C70.2951 102.317 71.0129 100.465 71.39 98.5301C71.86 95.7801 70.91 94.0001 68.8 94.2601C68.3614 94.3298 67.9436 94.4961 67.577 94.7468C67.2104 94.9976 66.904 95.3266 66.68 95.7102C65.966 96.9909 65.6722 98.4635 65.84 99.9202C65.9544 101.412 66.439 102.852 67.25 104.11C66.5746 105.117 65.7598 106.022 64.83 106.8C63.29 108.04 61.5 108.63 59.69 107.72C57.88 106.81 57.38 104.77 57.79 102.72C58.47 99.3501 61.44 95.7201 65.44 95.5601C65.6575 95.5509 65.8624 95.4556 66.0096 95.2952C66.1568 95.1349 66.2343 94.9226 66.225 94.7052C66.2158 94.4877 66.1205 94.2828 65.9601 94.1356C65.7998 93.9884 65.5875 93.9109 65.37 93.9202C60.59 94.1302 56.98 98.3702 56.18 102.4C55.61 105.26 56.42 107.97 58.95 109.23C61.48 110.49 63.8 109.77 65.86 108.11C66.8032 107.34 67.6375 106.445 68.34 105.45C69.3933 106.457 70.7174 107.135 72.15 107.4C75.7 108.12 81.07 106.83 88.68 101.19L85.43 108.7C85.3469 108.885 85.3352 109.094 85.3972 109.287C85.4592 109.48 85.5905 109.643 85.7657 109.745C85.9409 109.847 86.1477 109.881 86.3461 109.839C86.5445 109.797 86.7205 109.684 86.84 109.52C93.03 101.43 96.63 97.5202 98.75 96.1102C99.0084 95.9305 99.2913 95.789 99.59 95.6901C99.7009 95.6568 99.8192 95.6568 99.93 95.6901C100 95.6901 100.05 95.7702 100.09 95.8402C100.173 95.9668 100.237 96.1049 100.28 96.2501C100.595 97.8972 100.729 99.5739 100.68 101.25C100.65 103.294 100.989 105.327 101.68 107.25C101.922 107.855 102.3 108.396 102.786 108.829C103.272 109.263 103.852 109.578 104.48 109.75C106.212 110.041 107.992 109.75 109.54 108.92C112.54 107.6 116.77 104.74 122.63 99.6301C122.769 99.4794 122.848 99.2824 122.85 99.0773C122.853 98.8721 122.779 98.6733 122.643 98.5192C122.508 98.3652 122.32 98.2667 122.117 98.2428C121.913 98.219 121.707 98.2715 121.54 98.3902L121.53 98.3302ZM68.21 102.51C68.12 102.33 68.04 102.16 67.97 101.98C67.3311 100.434 67.2673 98.7096 67.79 97.1202C68.05 96.4802 68.43 95.9802 68.99 95.9002C69.1641 95.8647 69.3452 95.8931 69.5 95.9802C69.6468 96.1093 69.7425 96.2866 69.77 96.4802C69.8842 97.068 69.8842 97.6723 69.77 98.2601C69.4782 99.7504 68.9516 101.185 68.21 102.51Z" fill="#EBB713"/>
<path d="M284.79 98.3602C284.749 98.2603 284.689 98.1695 284.614 98.0928C284.538 98.0161 284.448 97.9551 284.348 97.9133C284.249 97.8715 284.142 97.8497 284.034 97.8492C283.927 97.8487 283.82 97.8694 283.72 97.9102C277.136 100.471 270.972 104 265.43 108.38C265.43 108.29 265.43 108.21 265.43 108.12C265.33 107.033 264.885 106.006 264.16 105.19C265.346 104.678 266.408 103.915 267.271 102.954C268.134 101.992 268.779 100.855 269.16 99.6202C269.457 98.8308 269.559 97.9816 269.458 97.1443C269.357 96.3071 269.056 95.5064 268.58 94.8102C268.201 94.3757 267.717 94.0462 267.174 93.8535C266.631 93.6608 266.048 93.6115 265.48 93.7102C263.79 93.9002 261.41 95.0702 258.39 97.9102C258.318 97.9369 258.251 97.9739 258.19 98.0202C250.54 103.91 245.32 106.74 241.8 107.63C239.93 108.09 238.6 108 237.68 107.46C236.32 106.65 235.94 104.92 235.91 103.07C235.985 100.271 236.512 97.5017 237.47 94.8702C237.555 94.7072 237.583 94.5205 237.551 94.3395C237.518 94.1585 237.426 93.9934 237.29 93.8702C237.137 93.7379 236.942 93.6651 236.74 93.6651C236.538 93.6651 236.343 93.7379 236.19 93.8702C236.19 93.8702 236.19 93.8702 236.1 93.9702C230.1 101.52 226.15 105.49 223.74 107.14C223.3 107.455 222.819 107.708 222.31 107.89C222.04 107.97 221.85 108.02 221.73 107.89C221.626 107.736 221.564 107.556 221.55 107.37C221.503 106.985 221.503 106.595 221.55 106.21C221.754 104.432 222.163 102.684 222.77 101C223.486 98.9866 224.342 97.0252 225.33 95.1302C225.487 95.0231 225.602 94.8653 225.657 94.6833C225.711 94.5013 225.702 94.3061 225.63 94.1302C225.59 94.0295 225.531 93.9376 225.456 93.8598C225.38 93.7821 225.29 93.72 225.191 93.6772C225.091 93.6345 224.984 93.6119 224.876 93.6106C224.768 93.6094 224.66 93.6297 224.56 93.6702C224.242 93.8329 223.981 94.0872 223.81 94.4002C223.147 95.549 222.579 96.7496 222.11 97.9902L221.99 98.0702C216.72 102.44 211.25 105.7 206.99 107.14C205.814 107.567 204.587 107.833 203.34 107.93C202.555 108.025 201.76 107.878 201.06 107.51C200.69 107.244 200.401 106.881 200.224 106.461C200.048 106.041 199.991 105.581 200.06 105.13C200.14 102.92 201.45 99.6102 204.32 94.9902C204.453 94.8165 204.511 94.5972 204.482 94.3806C204.453 94.164 204.339 93.9678 204.165 93.8352C203.991 93.7026 203.772 93.6444 203.555 93.6735C203.339 93.7026 203.142 93.8165 203.01 93.9902C200.13 97.2302 197.55 98.5602 195.53 98.7502C194.548 98.8836 193.553 98.625 192.76 98.0302C192.65 97.9404 192.55 97.84 192.46 97.7302C192.713 97.0443 192.894 96.3338 193 95.6102C193.061 95.2327 193.061 94.8478 193 94.4702C192.971 94.3218 192.907 94.1825 192.813 94.0641C192.719 93.9458 192.598 93.8518 192.46 93.7902C192.293 93.7171 192.107 93.697 191.928 93.7328C191.75 93.7686 191.586 93.8584 191.46 93.9902C190.926 94.4597 190.557 95.0877 190.406 95.7822C190.255 96.4767 190.33 97.2014 190.62 97.8502C184.872 102 178.54 105.273 171.83 107.56C165.65 109.49 155.27 111.18 146.94 110.43C142.65 109.89 139.73 108.43 138.24 106.15C136.98 104.15 136.74 101.59 137.54 98.4302C138.74 93.6402 141.91 88.1402 146.45 82.9502C153.9 74.4602 163.65 67.4102 172.54 64.0902C179.12 61.6402 185.14 61.3602 189.54 63.3002C190.224 63.5636 190.822 64.0099 191.27 64.5902C191.837 65.569 192.056 66.7112 191.89 67.8302C191.876 68.0631 191.954 68.2921 192.108 68.4679C192.261 68.6437 192.477 68.7523 192.71 68.7702C192.825 68.7795 192.941 68.7657 193.051 68.7297C193.161 68.6936 193.263 68.636 193.35 68.5602C193.439 68.4842 193.511 68.391 193.563 68.2861C193.614 68.1812 193.644 68.0669 193.65 67.9502C193.856 66.433 193.527 64.8914 192.72 63.5902C192.094 62.7386 191.242 62.0801 190.26 61.6902C185.45 59.5602 179.26 59.8102 172.26 62.4102C163.1 65.8202 153.09 73.0602 145.46 81.7602C140.46 87.4402 137.08 93.2102 135.88 98.0002C134.96 101.65 135.28 104.72 136.82 107.1C138.61 109.89 142.01 111.61 146.9 112.2C148.31 112.32 149.77 112.38 151.26 112.38C158.429 112.309 165.554 111.242 172.43 109.21C179.2 106.889 185.6 103.602 191.43 99.4502C191.549 99.4165 191.659 99.3548 191.75 99.2702C192.551 99.9175 193.532 100.302 194.56 100.37C196.721 100.453 198.844 99.7775 200.56 98.4602C199.445 100.495 198.748 102.732 198.51 105.04C198.414 105.782 198.528 106.537 198.839 107.217C199.15 107.898 199.646 108.477 200.27 108.89C201.45 109.61 203.27 109.75 205.44 109.27C209.59 108.38 215.37 105.32 221.12 100.89C220.434 102.804 220.039 104.809 219.95 106.84C219.927 107.576 220.144 108.299 220.57 108.9C221.13 109.56 222.07 109.9 223.57 109.17C225.63 108.17 229.2 105 234.97 98.0702C234.588 99.7096 234.394 101.387 234.39 103.07C234.39 105.55 235.14 107.77 236.96 108.85C238.16 109.56 239.89 109.85 242.32 109.2C245.94 108.29 251.32 105.43 259.15 99.4302C259.27 99.3929 259.38 99.3278 259.47 99.2402C261.023 97.5756 262.935 96.2864 265.06 95.4702C265.449 95.2899 265.884 95.2297 266.308 95.2974C266.732 95.3651 267.126 95.5575 267.44 95.8502C267.741 96.3351 267.921 96.8849 267.966 97.4537C268.012 98.0225 267.92 98.5939 267.7 99.1202C267.308 100.385 266.578 101.519 265.59 102.4C264.601 103.281 263.391 103.876 262.09 104.12C261.98 104.14 261.875 104.182 261.782 104.244C261.689 104.306 261.61 104.386 261.549 104.48C261.488 104.574 261.447 104.679 261.429 104.789C261.41 104.899 261.414 105.012 261.44 105.12C261.47 105.271 261.542 105.41 261.646 105.523C261.75 105.635 261.882 105.718 262.03 105.76C262.573 105.944 263.045 106.294 263.378 106.761C263.712 107.227 263.891 107.787 263.89 108.36C263.951 108.814 263.971 109.273 263.95 109.73C252.13 119.94 248.36 131.36 247.95 136.65C247.797 137.712 247.928 138.795 248.33 139.79C248.426 139.999 248.579 140.177 248.772 140.303C248.965 140.428 249.19 140.497 249.42 140.5C249.696 140.501 249.968 140.432 250.21 140.3C250.801 139.948 251.331 139.502 251.78 138.98C254.85 135.69 260.36 126.61 263.4 118.65C264.459 116.052 265.172 113.325 265.52 110.54C271.18 105.86 277.554 102.119 284.4 99.4602C284.5 99.4196 284.591 99.3597 284.667 99.2839C284.744 99.2081 284.805 99.1179 284.847 99.0185C284.889 98.9192 284.91 98.8125 284.911 98.7047C284.911 98.5969 284.891 98.49 284.85 98.3902L284.79 98.3602ZM261.79 118.04C259.223 124.572 255.832 130.748 251.7 136.42C251.131 137.2 250.48 137.917 249.76 138.56L249.63 138.65C249.528 138.022 249.491 137.386 249.52 136.75C249.88 131.86 253.28 121.65 263.52 112.19C263.091 114.185 262.499 116.142 261.75 118.04H261.79Z" fill="#EBB713"/>
<path d="M96.3399 141.91C95.7199 141.91 95.2499 141.77 95.2499 141.56C95.2499 141.14 95.4599 140.82 95.5699 140.82C95.7743 140.862 95.9815 140.889 96.1899 140.9C99.0899 140.9 100.55 139.07 100.55 136.23C100.55 134.13 99.7199 132.41 97.5499 132.41C96.8099 132.41 96.5499 132.53 96.3899 132.65C96.2299 132.77 96.0999 133.12 95.8299 134.36L93.3199 146.15C93.2118 146.607 93.1415 147.071 93.1099 147.54C93.1099 148.1 93.2299 148.27 93.9699 148.27C94.7099 148.27 94.7699 148.37 94.7699 148.51C94.7699 148.84 94.6199 149.25 94.4699 149.25C94.0299 149.25 93.2299 149.13 91.5399 149.13C90.3899 149.13 89.6199 149.25 89.1399 149.25C88.9899 149.25 88.9099 149.01 88.9099 148.48C88.9099 148.33 89.0799 148.27 89.6399 148.27C90.6399 148.27 90.9199 147.92 91.1799 146.64L93.7599 134.64C93.8687 134.153 93.9389 133.658 93.9699 133.16C93.9699 132.48 93.8199 132.24 92.9699 132.24C92.5299 132.24 92.4099 132.18 92.4099 132.03C92.4099 131.62 92.5599 131.26 92.6999 131.26C92.8399 131.26 93.5599 131.38 95.0399 131.38C95.6299 131.38 96.6399 131.26 98.0399 131.26C101.17 131.26 102.63 133.42 102.63 136.06C102.63 139.79 100.26 141.95 96.3199 141.95L96.3399 141.91Z" fill="#EBB713"/>
<path d="M108.87 132.88L106 144.43C105.789 145.195 105.651 145.979 105.59 146.77C105.59 147.21 105.76 147.42 106.03 147.42C107.03 147.42 107.72 145.42 108.03 145.42C108.34 145.42 108.68 145.6 108.68 145.78C108.603 146.102 108.474 146.409 108.3 146.69C107.59 148 105.99 149.36 105.1 149.36C104.21 149.36 103.74 148.83 103.74 147.29C103.789 146.146 103.971 145.012 104.28 143.91L107.03 132.91C107.159 132.467 107.236 132.011 107.26 131.55C107.26 131.11 106.97 130.96 105.67 130.96C105.52 130.96 105.43 130.84 105.43 130.4C105.43 130.22 105.61 130.1 106.05 130.01C107.44 129.78 109.05 129.27 109.36 129.27C109.67 129.27 109.63 129.39 109.63 129.66C109.63 129.93 109.36 130.66 108.83 132.88H108.87Z" fill="#EBB713"/>
<path d="M122.43 146.83C121.72 148.01 120.15 149.4 119.43 149.4C118.71 149.4 117.95 148.84 117.95 147.65C117.987 146.893 118.167 146.15 118.48 145.46C118.6 145.2 118.48 145.08 118.42 145.08C118.36 145.08 118.21 145.17 118.1 145.34C116.26 147.98 114.66 149.4 113.18 149.4C111.94 149.4 110.93 148.01 110.93 146.35C110.93 141.47 115.11 137.77 117.62 137.77C118.014 137.774 118.403 137.86 118.761 138.024C119.119 138.188 119.439 138.425 119.7 138.72C119.85 138.86 119.93 138.98 120.05 138.98C120.17 138.98 120.41 138.72 120.52 138.48C120.63 138.24 120.79 138.04 120.94 138.04H121.59C121.71 138.04 121.77 138.16 121.77 138.3C121.77 138.44 121.5 139.3 121.15 140.79L120.2 144.67C119.994 145.377 119.847 146.099 119.76 146.83C119.76 147.21 119.85 147.42 120.23 147.42C120.97 147.42 121.95 145.7 122.23 145.7C122.363 145.712 122.489 145.764 122.591 145.85C122.693 145.936 122.766 146.051 122.8 146.18C122.725 146.413 122.613 146.632 122.47 146.83H122.43ZM117.19 139.16C115.14 139.16 112.98 143.1 112.98 146.23C112.98 147.03 113.4 147.45 113.98 147.45C115.46 147.45 117.41 145.19 118.57 143.15C118.956 142.569 119.18 141.896 119.22 141.2C119.193 140.678 118.974 140.185 118.605 139.815C118.235 139.446 117.742 139.227 117.22 139.2L117.19 139.16Z" fill="#EBB713"/>
<path d="M131.79 139.19H129.54C129.3 139.19 129.13 139.31 129.04 139.63L127.83 144.57C127.641 145.239 127.52 145.926 127.47 146.62C127.47 147.06 127.65 147.33 127.89 147.33C128.72 147.33 129.51 145.55 129.96 145.55C130.101 145.579 130.231 145.647 130.335 145.746C130.439 145.845 130.514 145.971 130.55 146.11C130.55 146.26 130.4 146.47 130.05 146.94C128.57 148.86 127.42 149.4 126.59 149.4C125.99 149.4 125.59 148.69 125.59 147.4C125.605 146.752 125.696 146.107 125.86 145.48L127.04 140.74C127.169 140.305 127.26 139.86 127.31 139.41C127.31 139.23 127.22 139.15 127.04 139.15H125.71C125.68 139.154 125.649 139.152 125.62 139.143C125.591 139.135 125.564 139.12 125.542 139.1C125.519 139.08 125.501 139.055 125.488 139.028C125.476 139 125.47 138.97 125.47 138.94C125.47 138.73 125.65 137.99 125.86 137.99H127.36C127.45 138.001 127.541 137.978 127.614 137.924C127.686 137.869 127.735 137.789 127.75 137.7L128.49 134.7C128.67 134.445 128.902 134.23 129.171 134.072C129.44 133.913 129.74 133.814 130.05 133.78C130.32 133.78 130.38 133.9 130.38 134.04C130.328 134.377 130.258 134.71 130.17 135.04L129.73 136.84C129.646 137.141 129.586 137.449 129.55 137.76C129.55 137.94 129.61 138.03 129.81 138.03H131.97C132.003 138.03 132.036 138.036 132.067 138.05C132.097 138.063 132.125 138.083 132.147 138.107C132.17 138.131 132.187 138.16 132.198 138.192C132.209 138.223 132.213 138.257 132.21 138.29C132.21 138.53 132.06 139.18 131.82 139.18L131.79 139.19Z" fill="#EBB713"/>
<path d="M138.87 147.39C138.544 147.911 138.114 148.357 137.606 148.702C137.098 149.046 136.524 149.28 135.92 149.39C135.15 149.39 134.55 148.68 134.55 147.29C134.565 146.442 134.713 145.602 134.99 144.8L135.99 141.72C136.151 141.262 136.252 140.785 136.29 140.3C136.29 139.95 136.17 139.71 135.81 139.71C135.1 139.71 134.63 140.78 134.3 140.78C133.97 140.78 133.68 140.54 133.68 140.36C133.68 140.18 133.8 140.01 134.16 139.53C134.47 139.053 134.878 138.647 135.358 138.34C135.837 138.033 136.377 137.832 136.94 137.75C137.71 137.75 138.19 138.29 138.19 139.47C138.157 140.401 137.985 141.321 137.68 142.2L136.68 145.37C136.539 145.789 136.468 146.228 136.47 146.67C136.47 147.11 136.68 147.41 137.09 147.41C137.83 147.41 138.48 145.84 138.75 145.84C138.899 145.867 139.037 145.932 139.152 146.031C139.266 146.13 139.352 146.257 139.4 146.4C139.4 146.64 139.1 147.02 138.87 147.4V147.39ZM137.87 134.39C137.72 134.396 137.571 134.37 137.431 134.316C137.291 134.261 137.164 134.178 137.058 134.072C136.952 133.966 136.869 133.839 136.815 133.699C136.76 133.56 136.734 133.41 136.74 133.26C136.747 132.864 136.903 132.485 137.178 132.2C137.452 131.914 137.824 131.743 138.22 131.72C138.78 131.72 139.17 132.05 139.17 132.79C139.17 133.53 138.64 134.42 137.87 134.42V134.39Z" fill="#EBB713"/>
<path d="M153.32 147.12C152.67 148.12 151.32 149.4 150.39 149.4C149.46 149.4 148.88 148.81 148.88 147.4C148.904 146.672 149.032 145.952 149.26 145.26L150.21 142.26C150.339 141.808 150.41 141.341 150.42 140.87C150.42 140.25 150.1 139.87 149.62 139.87C148.38 139.87 145.51 143.42 145.03 145.34L144.26 148.48C144.15 148.98 144.06 149.07 143.88 149.07H142.58C142.46 149.07 142.4 148.98 142.4 148.8C142.507 148.203 142.648 147.612 142.82 147.03L144.18 141.55C144.291 141.162 144.358 140.763 144.38 140.36C144.38 140.01 144.26 139.77 144 139.77C143.05 139.77 142.43 141.28 142 141.28C141.876 141.268 141.76 141.216 141.67 141.131C141.579 141.046 141.519 140.933 141.5 140.81C141.617 140.464 141.797 140.142 142.03 139.86C142.693 138.791 143.742 138.017 144.96 137.7C145.82 137.7 146.14 138.59 146.14 139.8C146.029 140.486 145.842 141.157 145.58 141.8C145.58 141.92 145.64 141.98 145.73 141.98C145.82 141.98 146.03 141.71 146.18 141.5C148.28 138.6 149.58 137.66 150.62 137.66C151.86 137.66 152.39 138.57 152.39 139.82C152.364 140.613 152.236 141.4 152.01 142.16L151.01 145.38C150.855 145.818 150.768 146.276 150.75 146.74C150.75 147.13 150.95 147.34 151.25 147.34C152.02 147.34 152.67 145.77 153.2 145.77C153.35 145.77 153.71 146.09 153.71 146.24C153.623 146.516 153.491 146.777 153.32 147.01V147.12Z" fill="#EBB713"/>
<path d="M161.12 147.39C160.789 147.916 160.351 148.366 159.834 148.711C159.317 149.055 158.733 149.287 158.12 149.39C157.36 149.39 156.76 148.68 156.76 147.29C156.775 146.442 156.923 145.602 157.2 144.8L158.2 141.72C158.358 141.262 158.456 140.784 158.49 140.3C158.49 139.95 158.38 139.71 158.02 139.71C157.31 139.71 156.84 140.78 156.51 140.78C156.18 140.78 155.89 140.54 155.89 140.36C155.89 140.18 156.01 140.01 156.37 139.53C156.68 139.053 157.088 138.647 157.568 138.34C158.047 138.033 158.587 137.832 159.15 137.75C159.92 137.75 160.39 138.29 160.39 139.47C160.356 140.4 160.188 141.319 159.89 142.2L158.89 145.37C158.749 145.789 158.678 146.228 158.68 146.67C158.68 147.11 158.89 147.41 159.3 147.41C160.04 147.41 160.69 145.84 160.96 145.84C161.108 145.869 161.246 145.935 161.36 146.033C161.474 146.132 161.56 146.258 161.61 146.4C161.61 146.64 161.31 147.02 161.08 147.4L161.12 147.39ZM160.12 134.39C159.97 134.396 159.821 134.371 159.682 134.316C159.543 134.261 159.417 134.178 159.312 134.071C159.206 133.965 159.124 133.838 159.071 133.698C159.017 133.559 158.993 133.41 159 133.26C159.007 132.864 159.163 132.485 159.438 132.2C159.712 131.914 160.084 131.743 160.48 131.72C161.04 131.72 161.43 132.05 161.43 132.79C161.43 133.53 160.89 134.39 160.12 134.39Z" fill="#EBB713"/>
<path d="M175.94 146.7C174.55 148.56 173.27 149.39 172.47 149.39C171.67 149.39 171.47 148.68 171.47 147.55C171.553 146.778 171.741 146.021 172.03 145.3C172.03 145.15 171.97 145.07 171.88 145.07C171.79 145.07 171.64 145.27 171.55 145.42C169.72 148.15 168.12 149.42 166.82 149.42C165.52 149.42 164.9 148.56 164.9 147.22C164.908 146.284 165.067 145.355 165.37 144.47L166.2 142.11C166.414 141.498 166.532 140.857 166.55 140.21C166.555 140.144 166.547 140.077 166.526 140.015C166.506 139.952 166.472 139.894 166.428 139.844C166.384 139.795 166.331 139.755 166.271 139.726C166.211 139.698 166.146 139.682 166.08 139.68C165.28 139.68 164.81 140.8 164.45 140.8C164.28 140.8 163.92 140.54 163.92 140.36C164.031 140.075 164.179 139.806 164.36 139.56C164.657 139.096 165.046 138.698 165.504 138.392C165.962 138.086 166.478 137.877 167.02 137.78C167.76 137.78 168.41 138.56 168.41 139.86C168.398 140.541 168.28 141.215 168.06 141.86L167.17 144.61C167.003 145.148 166.916 145.707 166.91 146.27C166.91 147.01 167.26 147.34 167.79 147.34C169.39 147.34 172.03 143.88 172.65 141.45L173.39 138.55C173.47 138.25 173.6 138.07 173.77 138.07H175.04C175.16 138.07 175.22 138.13 175.22 138.31C175.089 139.008 174.922 139.699 174.72 140.38L173.59 144.88C173.426 145.492 173.319 146.118 173.27 146.75C173.27 147.13 173.47 147.34 173.74 147.34C174.54 147.34 175.4 145.65 175.74 145.65C175.876 145.676 176.001 145.74 176.1 145.836C176.2 145.932 176.269 146.055 176.3 146.19C176.215 146.397 176.093 146.586 175.94 146.75V146.7Z" fill="#EBB713"/>
<path d="M195.49 147.12C194.81 148.19 193.49 149.4 192.65 149.4C191.81 149.4 191.05 148.75 191.05 147.24C191.073 146.535 191.201 145.837 191.43 145.17L192.26 142.68C192.485 142.037 192.607 141.362 192.62 140.68C192.62 140.2 192.41 139.91 191.94 139.91C190.99 139.91 188.15 143.22 187.62 145.35L186.85 148.49C186.76 148.87 186.64 149.08 186.49 149.08H185.16C185.01 149.08 184.95 148.99 184.95 148.84C185.042 148.34 185.162 147.846 185.31 147.36L186.52 142.48C186.686 141.91 186.787 141.323 186.82 140.73C186.82 140.2 186.58 139.93 186.16 139.93C185.1 139.93 182.32 143.54 181.9 145.23L181.11 148.43C180.99 148.87 180.9 149.08 180.72 149.08H179.43C179.28 149.08 179.22 148.96 179.22 148.79C179.308 148.306 179.428 147.828 179.58 147.36L181.06 141.47C181.16 141.105 181.217 140.729 181.23 140.35C181.23 139.97 181.12 139.73 180.85 139.73C180.08 139.73 179.28 141.36 178.93 141.36C178.804 141.323 178.689 141.258 178.592 141.169C178.495 141.081 178.419 140.972 178.37 140.85C178.511 140.518 178.689 140.203 178.9 139.91C179.217 139.353 179.649 138.869 180.166 138.49C180.682 138.111 181.274 137.845 181.9 137.71C182.61 137.71 182.97 138.6 182.97 139.71C182.874 140.419 182.693 141.114 182.43 141.78C182.43 141.93 182.49 142.02 182.58 142.02C182.67 142.02 182.82 141.84 182.94 141.66C185.04 138.66 186.23 137.66 187.23 137.66C187.673 137.708 188.079 137.928 188.361 138.272C188.643 138.616 188.779 139.057 188.74 139.5C188.648 140.265 188.481 141.019 188.24 141.75C188.24 141.89 188.3 141.98 188.39 141.98C188.48 141.98 188.68 141.75 188.86 141.48C190.72 138.64 192.03 137.66 193 137.66C193.97 137.66 194.57 138.37 194.57 139.59C194.543 140.441 194.405 141.285 194.16 142.1L193.3 144.89C193.116 145.453 193.008 146.038 192.98 146.63C192.98 147.07 193.21 147.31 193.57 147.31C194.25 147.31 194.93 145.71 195.29 145.71C195.65 145.71 195.94 146.01 195.94 146.19C195.835 146.487 195.686 146.766 195.5 147.02L195.49 147.12Z" fill="#EBB713"/>
<path d="M53.32 62.2198C48.85 55.7098 41.21 50.7498 30.38 49.4198C25.16 48.6148 19.8199 49.5347 15.1701 52.0398C5.86005 57.3398 2.65005 68.9198 5.84005 77.5098C6.61363 79.7024 7.86574 81.6953 9.5055 83.3437C11.1453 84.9921 13.1315 86.2547 15.32 87.0398C14.06 89.7498 12.78 92.4098 11.52 94.8698C8.82004 100.16 6.22005 104.54 4.14005 106.61C3.14005 106.4 2.14004 106.18 1.05004 105.93C0.905405 105.888 0.752136 105.887 0.607001 105.927C0.461866 105.967 0.330459 106.046 0.227194 106.155C0.12393 106.265 0.0527838 106.4 0.0215364 106.548C-0.00971107 106.695 0.000147581 106.848 0.0500398 106.99C0.150564 107.45 0.352693 107.882 0.641638 108.254C0.930584 108.626 1.29903 108.929 1.72004 109.14C2.20963 109.326 2.75045 109.326 3.24004 109.14C3.72936 108.961 4.18306 108.697 4.58004 108.36C28.26 112.93 44.05 105.92 51.99 95.3598C59.62 85.2698 60.05 71.8998 53.32 62.0998V62.2198ZM50.6701 94.4898C43.1401 104.49 28.24 111 6.01005 107.02C8.01005 104.67 10.48 100.53 13.01 95.6198C14.31 93.0798 15.63 90.3398 16.93 87.5298C21.1 88.5898 26.36 88.3198 32.71 86.0998C32.8234 86.0735 32.9299 86.0236 33.0228 85.9535C33.1156 85.8834 33.1926 85.7945 33.2489 85.6927C33.3052 85.5908 33.3394 85.4783 33.3494 85.3623C33.3593 85.2464 33.3448 85.1297 33.3068 85.0198C33.2687 84.9098 33.208 84.8091 33.1285 84.7241C33.049 84.6392 32.9525 84.5719 32.8453 84.5266C32.7381 84.4814 32.6226 84.4591 32.5063 84.4614C32.3899 84.4637 32.2754 84.4904 32.1701 84.5398C26.3301 86.5398 21.49 86.8798 17.65 85.9698C22.53 75.2698 26.9801 64.0598 28.5301 60.1998C28.75 59.6398 28.9601 59.1398 29.0301 58.9698C29.0957 58.8689 29.1389 58.7551 29.1568 58.6361C29.1746 58.5171 29.1667 58.3956 29.1335 58.2799C29.1003 58.1642 29.0426 58.057 28.9644 57.9656C28.8862 57.8741 28.7892 57.8005 28.68 57.7498C28.4887 57.6595 28.2696 57.6477 28.0697 57.7168C27.8697 57.786 27.7047 57.9306 27.61 58.1198C27.61 58.2098 27.3501 58.7198 27.0001 59.5898C25.4401 63.4598 21.0001 74.7698 16.0001 85.4998C14.007 84.8159 12.194 83.691 10.6963 82.2088C9.19859 80.7267 8.05474 78.9256 7.35004 76.9398C5.86273 72.6356 5.90613 67.9501 7.47292 63.6742C9.03971 59.3983 12.0339 55.794 15.95 53.4698C20.2937 51.1387 25.2795 50.289 30.15 51.0498C40.42 52.3198 47.69 56.9698 51.93 63.1498C58.27 72.3798 57.82 84.9798 50.63 94.4898H50.6701ZM27.5001 58.5498C27.4946 58.6063 27.4946 58.6632 27.5001 58.7198C27.4933 58.6633 27.4933 58.6063 27.5001 58.5498Z" fill="#EBB713"/>
<path d="M121.53 98.3302C114.76 104.24 110.3 107.07 107.33 107.92C105.7 108.39 104.6 108.23 103.88 107.55C103.381 107.015 103.036 106.355 102.88 105.64C102.533 104.162 102.355 102.649 102.35 101.13C102.344 99.6263 102.254 98.1239 102.08 96.6301C102.003 95.8114 101.65 95.043 101.08 94.4502C100.46 93.9202 99.55 93.7501 98.21 94.5101C96.51 95.5101 93.79 98.1702 89.41 103.59L93.14 94.8602C93.2038 94.6631 93.1917 94.4494 93.106 94.2609C93.0203 94.0724 92.8672 93.9227 92.6768 93.8413C92.4864 93.7598 92.2724 93.7525 92.0769 93.8208C91.8814 93.889 91.7184 94.0279 91.62 94.2102L89.94 98.1402C89.851 98.1715 89.7668 98.2152 89.69 98.2702C84.07 102.8 79.69 104.99 76.27 105.68C72.85 106.37 70.65 105.48 69.27 104C70.2951 102.317 71.0129 100.465 71.39 98.5301C71.86 95.7801 70.91 94.0001 68.8 94.2601C68.3614 94.3298 67.9436 94.4961 67.577 94.7468C67.2104 94.9976 66.904 95.3266 66.68 95.7102C65.966 96.9909 65.6722 98.4635 65.84 99.9202C65.9544 101.412 66.439 102.852 67.25 104.11C66.5746 105.117 65.7598 106.022 64.83 106.8C63.29 108.04 61.5 108.63 59.69 107.72C57.88 106.81 57.38 104.77 57.79 102.72C58.47 99.3501 61.44 95.7201 65.44 95.5601C65.6575 95.5509 65.8624 95.4556 66.0096 95.2952C66.1568 95.1349 66.2343 94.9226 66.225 94.7052C66.2158 94.4877 66.1205 94.2828 65.9601 94.1356C65.7998 93.9884 65.5875 93.9109 65.37 93.9202C60.59 94.1302 56.98 98.3702 56.18 102.4C55.61 105.26 56.42 107.97 58.95 109.23C61.48 110.49 63.8 109.77 65.86 108.11C66.8032 107.34 67.6375 106.445 68.34 105.45C69.3933 106.457 70.7174 107.135 72.15 107.4C75.7 108.12 81.07 106.83 88.68 101.19L85.43 108.7C85.3469 108.885 85.3352 109.094 85.3972 109.287C85.4592 109.48 85.5905 109.643 85.7657 109.745C85.9409 109.847 86.1477 109.881 86.3461 109.839C86.5445 109.797 86.7205 109.684 86.84 109.52C93.03 101.43 96.63 97.5202 98.75 96.1102C99.0084 95.9305 99.2913 95.789 99.59 95.6901C99.7009 95.6568 99.8192 95.6568 99.93 95.6901C100 95.6901 100.05 95.7702 100.09 95.8402C100.173 95.9668 100.237 96.1049 100.28 96.2501C100.595 97.8972 100.729 99.5739 100.68 101.25C100.65 103.294 100.989 105.327 101.68 107.25C101.922 107.855 102.3 108.396 102.786 108.829C103.272 109.263 103.852 109.578 104.48 109.75C106.212 110.041 107.992 109.75 109.54 108.92C112.54 107.6 116.77 104.74 122.63 99.6301C122.769 99.4794 122.848 99.2824 122.85 99.0773C122.853 98.8721 122.779 98.6733 122.643 98.5192C122.508 98.3652 122.32 98.2667 122.117 98.2428C121.913 98.219 121.707 98.2715 121.54 98.3902L121.53 98.3302ZM68.21 102.51C68.12 102.33 68.04 102.16 67.97 101.98C67.3311 100.434 67.2673 98.7096 67.79 97.1202C68.05 96.4802 68.43 95.9802 68.99 95.9002C69.1641 95.8647 69.3452 95.8931 69.5 95.9802C69.6468 96.1093 69.7425 96.2866 69.77 96.4802C69.8842 97.068 69.8842 97.6723 69.77 98.2601C69.4782 99.7504 68.9516 101.185 68.21 102.51Z" fill="#EBB713"/>
<path d="M284.79 98.3602C284.749 98.2603 284.689 98.1695 284.614 98.0928C284.538 98.0161 284.448 97.9551 284.348 97.9133C284.249 97.8715 284.142 97.8497 284.034 97.8492C283.927 97.8487 283.82 97.8694 283.72 97.9102C277.136 100.471 270.972 104 265.43 108.38C265.43 108.29 265.43 108.21 265.43 108.12C265.33 107.033 264.885 106.006 264.16 105.19C265.346 104.678 266.408 103.915 267.271 102.954C268.134 101.992 268.779 100.855 269.16 99.6202C269.457 98.8308 269.559 97.9816 269.458 97.1443C269.357 96.3071 269.056 95.5064 268.58 94.8102C268.201 94.3757 267.717 94.0462 267.174 93.8535C266.631 93.6608 266.048 93.6115 265.48 93.7102C263.79 93.9002 261.41 95.0702 258.39 97.9102C258.318 97.9369 258.251 97.9739 258.19 98.0202C250.54 103.91 245.32 106.74 241.8 107.63C239.93 108.09 238.6 108 237.68 107.46C236.32 106.65 235.94 104.92 235.91 103.07C235.985 100.271 236.512 97.5017 237.47 94.8702C237.555 94.7072 237.583 94.5205 237.551 94.3395C237.518 94.1585 237.426 93.9934 237.29 93.8702C237.137 93.7379 236.942 93.6651 236.74 93.6651C236.538 93.6651 236.343 93.7379 236.19 93.8702C236.19 93.8702 236.19 93.8702 236.1 93.9702C230.1 101.52 226.15 105.49 223.74 107.14C223.3 107.455 222.819 107.708 222.31 107.89C222.04 107.97 221.85 108.02 221.73 107.89C221.626 107.736 221.564 107.556 221.55 107.37C221.503 106.985 221.503 106.595 221.55 106.21C221.754 104.432 222.163 102.684 222.77 101C223.486 98.9866 224.342 97.0252 225.33 95.1302C225.487 95.0231 225.602 94.8653 225.657 94.6833C225.711 94.5013 225.702 94.3061 225.63 94.1302C225.59 94.0295 225.531 93.9376 225.456 93.8598C225.38 93.7821 225.29 93.72 225.191 93.6772C225.091 93.6345 224.984 93.6119 224.876 93.6106C224.768 93.6094 224.66 93.6297 224.56 93.6702C224.242 93.8329 223.981 94.0872 223.81 94.4002C223.147 95.549 222.579 96.7496 222.11 97.9902L221.99 98.0702C216.72 102.44 211.25 105.7 206.99 107.14C205.814 107.567 204.587 107.833 203.34 107.93C202.555 108.025 201.76 107.878 201.06 107.51C200.69 107.244 200.401 106.881 200.224 106.461C200.048 106.041 199.991 105.581 200.06 105.13C200.14 102.92 201.45 99.6102 204.32 94.9902C204.453 94.8165 204.511 94.5972 204.482 94.3806C204.453 94.164 204.339 93.9678 204.165 93.8352C203.991 93.7026 203.772 93.6444 203.555 93.6735C203.339 93.7026 203.142 93.8165 203.01 93.9902C200.13 97.2302 197.55 98.5602 195.53 98.7502C194.548 98.8836 193.553 98.625 192.76 98.0302C192.65 97.9404 192.55 97.84 192.46 97.7302C192.713 97.0443 192.894 96.3338 193 95.6102C193.061 95.2327 193.061 94.8478 193 94.4702C192.971 94.3218 192.907 94.1825 192.813 94.0641C192.719 93.9458 192.598 93.8518 192.46 93.7902C192.293 93.7171 192.107 93.697 191.928 93.7328C191.75 93.7686 191.586 93.8584 191.46 93.9902C190.926 94.4597 190.557 95.0877 190.406 95.7822C190.255 96.4767 190.33 97.2014 190.62 97.8502C184.872 102 178.54 105.273 171.83 107.56C165.65 109.49 155.27 111.18 146.94 110.43C142.65 109.89 139.73 108.43 138.24 106.15C136.98 104.15 136.74 101.59 137.54 98.4302C138.74 93.6402 141.91 88.1402 146.45 82.9502C153.9 74.4602 163.65 67.4102 172.54 64.0902C179.12 61.6402 185.14 61.3602 189.54 63.3002C190.224 63.5636 190.822 64.0099 191.27 64.5902C191.837 65.569 192.056 66.7112 191.89 67.8302C191.876 68.0631 191.954 68.2921 192.108 68.4679C192.261 68.6437 192.477 68.7523 192.71 68.7702C192.825 68.7795 192.941 68.7657 193.051 68.7297C193.161 68.6936 193.263 68.636 193.35 68.5602C193.439 68.4842 193.511 68.391 193.563 68.2861C193.614 68.1812 193.644 68.0669 193.65 67.9502C193.856 66.433 193.527 64.8914 192.72 63.5902C192.094 62.7386 191.242 62.0801 190.26 61.6902C185.45 59.5602 179.26 59.8102 172.26 62.4102C163.1 65.8202 153.09 73.0602 145.46 81.7602C140.46 87.4402 137.08 93.2102 135.88 98.0002C134.96 101.65 135.28 104.72 136.82 107.1C138.61 109.89 142.01 111.61 146.9 112.2C148.31 112.32 149.77 112.38 151.26 112.38C158.429 112.309 165.554 111.242 172.43 109.21C179.2 106.889 185.6 103.602 191.43 99.4502C191.549 99.4165 191.659 99.3548 191.75 99.2702C192.551 99.9175 193.532 100.302 194.56 100.37C196.721 100.453 198.844 99.7775 200.56 98.4602C199.445 100.495 198.748 102.732 198.51 105.04C198.414 105.782 198.528 106.537 198.839 107.217C199.15 107.898 199.646 108.477 200.27 108.89C201.45 109.61 203.27 109.75 205.44 109.27C209.59 108.38 215.37 105.32 221.12 100.89C220.434 102.804 220.039 104.809 219.95 106.84C219.927 107.576 220.144 108.299 220.57 108.9C221.13 109.56 222.07 109.9 223.57 109.17C225.63 108.17 229.2 105 234.97 98.0702C234.588 99.7096 234.394 101.387 234.39 103.07C234.39 105.55 235.14 107.77 236.96 108.85C238.16 109.56 239.89 109.85 242.32 109.2C245.94 108.29 251.32 105.43 259.15 99.4302C259.27 99.3929 259.38 99.3278 259.47 99.2402C261.023 97.5756 262.935 96.2864 265.06 95.4702C265.449 95.2899 265.884 95.2297 266.308 95.2974C266.732 95.3651 267.126 95.5575 267.44 95.8502C267.741 96.3351 267.921 96.8849 267.966 97.4537C268.012 98.0225 267.92 98.5939 267.7 99.1202C267.308 100.385 266.578 101.519 265.59 102.4C264.601 103.281 263.391 103.876 262.09 104.12C261.98 104.14 261.875 104.182 261.782 104.244C261.689 104.306 261.61 104.386 261.549 104.48C261.488 104.574 261.447 104.679 261.429 104.789C261.41 104.899 261.414 105.012 261.44 105.12C261.47 105.271 261.542 105.41 261.646 105.523C261.75 105.635 261.882 105.718 262.03 105.76C262.573 105.944 263.045 106.294 263.378 106.761C263.712 107.227 263.891 107.787 263.89 108.36C263.951 108.814 263.971 109.273 263.95 109.73C252.13 119.94 248.36 131.36 247.95 136.65C247.797 137.712 247.928 138.795 248.33 139.79C248.426 139.999 248.579 140.177 248.772 140.303C248.965 140.428 249.19 140.497 249.42 140.5C249.696 140.501 249.968 140.432 250.21 140.3C250.801 139.948 251.331 139.502 251.78 138.98C254.85 135.69 260.36 126.61 263.4 118.65C264.459 116.052 265.172 113.325 265.52 110.54C271.18 105.86 277.554 102.119 284.4 99.4602C284.5 99.4196 284.591 99.3597 284.667 99.2839C284.744 99.2081 284.805 99.1179 284.847 99.0185C284.889 98.9192 284.91 98.8125 284.911 98.7047C284.911 98.5969 284.891 98.49 284.85 98.3902L284.79 98.3602ZM261.79 118.04C259.223 124.572 255.832 130.748 251.7 136.42C251.131 137.2 250.48 137.917 249.76 138.56L249.63 138.65C249.528 138.022 249.491 137.386 249.52 136.75C249.88 131.86 253.28 121.65 263.52 112.19C263.091 114.185 262.499 116.142 261.75 118.04H261.79Z" fill="#EBB713"/>
<path d="M96.3399 141.91C95.7199 141.91 95.2499 141.77 95.2499 141.56C95.2499 141.14 95.4599 140.82 95.5699 140.82C95.7743 140.862 95.9815 140.889 96.1899 140.9C99.0899 140.9 100.55 139.07 100.55 136.23C100.55 134.13 99.7199 132.41 97.5499 132.41C96.8099 132.41 96.5499 132.53 96.3899 132.65C96.2299 132.77 96.0999 133.12 95.8299 134.36L93.3199 146.15C93.2118 146.607 93.1415 147.071 93.1099 147.54C93.1099 148.1 93.2299 148.27 93.9699 148.27C94.7099 148.27 94.7699 148.37 94.7699 148.51C94.7699 148.84 94.6199 149.25 94.4699 149.25C94.0299 149.25 93.2299 149.13 91.5399 149.13C90.3899 149.13 89.6199 149.25 89.1399 149.25C88.9899 149.25 88.9099 149.01 88.9099 148.48C88.9099 148.33 89.0799 148.27 89.6399 148.27C90.6399 148.27 90.9199 147.92 91.1799 146.64L93.7599 134.64C93.8687 134.153 93.9389 133.658 93.9699 133.16C93.9699 132.48 93.8199 132.24 92.9699 132.24C92.5299 132.24 92.4099 132.18 92.4099 132.03C92.4099 131.62 92.5599 131.26 92.6999 131.26C92.8399 131.26 93.5599 131.38 95.0399 131.38C95.6299 131.38 96.6399 131.26 98.0399 131.26C101.17 131.26 102.63 133.42 102.63 136.06C102.63 139.79 100.26 141.95 96.3199 141.95L96.3399 141.91Z" fill="#EBB713"/>
<path d="M108.87 132.88L106 144.43C105.789 145.195 105.651 145.979 105.59 146.77C105.59 147.21 105.76 147.42 106.03 147.42C107.03 147.42 107.72 145.42 108.03 145.42C108.34 145.42 108.68 145.6 108.68 145.78C108.603 146.102 108.474 146.409 108.3 146.69C107.59 148 105.99 149.36 105.1 149.36C104.21 149.36 103.74 148.83 103.74 147.29C103.789 146.146 103.971 145.012 104.28 143.91L107.03 132.91C107.159 132.467 107.236 132.011 107.26 131.55C107.26 131.11 106.97 130.96 105.67 130.96C105.52 130.96 105.43 130.84 105.43 130.4C105.43 130.22 105.61 130.1 106.05 130.01C107.44 129.78 109.05 129.27 109.36 129.27C109.67 129.27 109.63 129.39 109.63 129.66C109.63 129.93 109.36 130.66 108.83 132.88H108.87Z" fill="#EBB713"/>
<path d="M122.43 146.83C121.72 148.01 120.15 149.4 119.43 149.4C118.71 149.4 117.95 148.84 117.95 147.65C117.987 146.893 118.167 146.15 118.48 145.46C118.6 145.2 118.48 145.08 118.42 145.08C118.36 145.08 118.21 145.17 118.1 145.34C116.26 147.98 114.66 149.4 113.18 149.4C111.94 149.4 110.93 148.01 110.93 146.35C110.93 141.47 115.11 137.77 117.62 137.77C118.014 137.774 118.403 137.86 118.761 138.024C119.119 138.188 119.439 138.425 119.7 138.72C119.85 138.86 119.93 138.98 120.05 138.98C120.17 138.98 120.41 138.72 120.52 138.48C120.63 138.24 120.79 138.04 120.94 138.04H121.59C121.71 138.04 121.77 138.16 121.77 138.3C121.77 138.44 121.5 139.3 121.15 140.79L120.2 144.67C119.994 145.377 119.847 146.099 119.76 146.83C119.76 147.21 119.85 147.42 120.23 147.42C120.97 147.42 121.95 145.7 122.23 145.7C122.363 145.712 122.489 145.764 122.591 145.85C122.693 145.936 122.766 146.051 122.8 146.18C122.725 146.413 122.613 146.632 122.47 146.83H122.43ZM117.19 139.16C115.14 139.16 112.98 143.1 112.98 146.23C112.98 147.03 113.4 147.45 113.98 147.45C115.46 147.45 117.41 145.19 118.57 143.15C118.956 142.569 119.18 141.896 119.22 141.2C119.193 140.678 118.974 140.185 118.605 139.815C118.235 139.446 117.742 139.227 117.22 139.2L117.19 139.16Z" fill="#EBB713"/>
<path d="M131.79 139.19H129.54C129.3 139.19 129.13 139.31 129.04 139.63L127.83 144.57C127.641 145.239 127.52 145.926 127.47 146.62C127.47 147.06 127.65 147.33 127.89 147.33C128.72 147.33 129.51 145.55 129.96 145.55C130.101 145.579 130.231 145.647 130.335 145.746C130.439 145.845 130.514 145.971 130.55 146.11C130.55 146.26 130.4 146.47 130.05 146.94C128.57 148.86 127.42 149.4 126.59 149.4C125.99 149.4 125.59 148.69 125.59 147.4C125.605 146.752 125.696 146.107 125.86 145.48L127.04 140.74C127.169 140.305 127.26 139.86 127.31 139.41C127.31 139.23 127.22 139.15 127.04 139.15H125.71C125.68 139.154 125.649 139.152 125.62 139.143C125.591 139.135 125.564 139.12 125.542 139.1C125.519 139.08 125.501 139.055 125.488 139.028C125.476 139 125.47 138.97 125.47 138.94C125.47 138.73 125.65 137.99 125.86 137.99H127.36C127.45 138.001 127.541 137.978 127.614 137.924C127.686 137.869 127.735 137.789 127.75 137.7L128.49 134.7C128.67 134.445 128.902 134.23 129.171 134.072C129.44 133.913 129.74 133.814 130.05 133.78C130.32 133.78 130.38 133.9 130.38 134.04C130.328 134.377 130.258 134.71 130.17 135.04L129.73 136.84C129.646 137.141 129.586 137.449 129.55 137.76C129.55 137.94 129.61 138.03 129.81 138.03H131.97C132.003 138.03 132.036 138.036 132.067 138.05C132.097 138.063 132.125 138.083 132.147 138.107C132.17 138.131 132.187 138.16 132.198 138.192C132.209 138.223 132.213 138.257 132.21 138.29C132.21 138.53 132.06 139.18 131.82 139.18L131.79 139.19Z" fill="#EBB713"/>
<path d="M138.87 147.39C138.544 147.911 138.114 148.357 137.606 148.702C137.098 149.046 136.524 149.28 135.92 149.39C135.15 149.39 134.55 148.68 134.55 147.29C134.565 146.442 134.713 145.602 134.99 144.8L135.99 141.72C136.151 141.262 136.252 140.785 136.29 140.3C136.29 139.95 136.17 139.71 135.81 139.71C135.1 139.71 134.63 140.78 134.3 140.78C133.97 140.78 133.68 140.54 133.68 140.36C133.68 140.18 133.8 140.01 134.16 139.53C134.47 139.053 134.878 138.647 135.358 138.34C135.837 138.033 136.377 137.832 136.94 137.75C137.71 137.75 138.19 138.29 138.19 139.47C138.157 140.401 137.985 141.321 137.68 142.2L136.68 145.37C136.539 145.789 136.468 146.228 136.47 146.67C136.47 147.11 136.68 147.41 137.09 147.41C137.83 147.41 138.48 145.84 138.75 145.84C138.899 145.867 139.037 145.932 139.152 146.031C139.266 146.13 139.352 146.257 139.4 146.4C139.4 146.64 139.1 147.02 138.87 147.4V147.39ZM137.87 134.39C137.72 134.396 137.571 134.37 137.431 134.316C137.291 134.261 137.164 134.178 137.058 134.072C136.952 133.966 136.869 133.839 136.815 133.699C136.76 133.56 136.734 133.41 136.74 133.26C136.747 132.864 136.903 132.485 137.178 132.2C137.452 131.914 137.824 131.743 138.22 131.72C138.78 131.72 139.17 132.05 139.17 132.79C139.17 133.53 138.64 134.42 137.87 134.42V134.39Z" fill="#EBB713"/>
<path d="M153.32 147.12C152.67 148.12 151.32 149.4 150.39 149.4C149.46 149.4 148.88 148.81 148.88 147.4C148.904 146.672 149.032 145.952 149.26 145.26L150.21 142.26C150.339 141.808 150.41 141.341 150.42 140.87C150.42 140.25 150.1 139.87 149.62 139.87C148.38 139.87 145.51 143.42 145.03 145.34L144.26 148.48C144.15 148.98 144.06 149.07 143.88 149.07H142.58C142.46 149.07 142.4 148.98 142.4 148.8C142.507 148.203 142.648 147.612 142.82 147.03L144.18 141.55C144.291 141.162 144.358 140.763 144.38 140.36C144.38 140.01 144.26 139.77 144 139.77C143.05 139.77 142.43 141.28 142 141.28C141.876 141.268 141.76 141.216 141.67 141.131C141.579 141.046 141.519 140.933 141.5 140.81C141.617 140.464 141.797 140.142 142.03 139.86C142.693 138.791 143.742 138.017 144.96 137.7C145.82 137.7 146.14 138.59 146.14 139.8C146.029 140.486 145.842 141.157 145.58 141.8C145.58 141.92 145.64 141.98 145.73 141.98C145.82 141.98 146.03 141.71 146.18 141.5C148.28 138.6 149.58 137.66 150.62 137.66C151.86 137.66 152.39 138.57 152.39 139.82C152.364 140.613 152.236 141.4 152.01 142.16L151.01 145.38C150.855 145.818 150.768 146.276 150.75 146.74C150.75 147.13 150.95 147.34 151.25 147.34C152.02 147.34 152.67 145.77 153.2 145.77C153.35 145.77 153.71 146.09 153.71 146.24C153.623 146.516 153.491 146.777 153.32 147.01V147.12Z" fill="#EBB713"/>
<path d="M161.12 147.39C160.789 147.916 160.351 148.366 159.834 148.711C159.317 149.055 158.733 149.287 158.12 149.39C157.36 149.39 156.76 148.68 156.76 147.29C156.775 146.442 156.923 145.602 157.2 144.8L158.2 141.72C158.358 141.262 158.456 140.784 158.49 140.3C158.49 139.95 158.38 139.71 158.02 139.71C157.31 139.71 156.84 140.78 156.51 140.78C156.18 140.78 155.89 140.54 155.89 140.36C155.89 140.18 156.01 140.01 156.37 139.53C156.68 139.053 157.088 138.647 157.568 138.34C158.047 138.033 158.587 137.832 159.15 137.75C159.92 137.75 160.39 138.29 160.39 139.47C160.356 140.4 160.188 141.319 159.89 142.2L158.89 145.37C158.749 145.789 158.678 146.228 158.68 146.67C158.68 147.11 158.89 147.41 159.3 147.41C160.04 147.41 160.69 145.84 160.96 145.84C161.108 145.869 161.246 145.935 161.36 146.033C161.474 146.132 161.56 146.258 161.61 146.4C161.61 146.64 161.31 147.02 161.08 147.4L161.12 147.39ZM160.12 134.39C159.97 134.396 159.821 134.371 159.682 134.316C159.543 134.261 159.417 134.178 159.312 134.071C159.206 133.965 159.124 133.838 159.071 133.698C159.017 133.559 158.993 133.41 159 133.26C159.007 132.864 159.163 132.485 159.438 132.2C159.712 131.914 160.084 131.743 160.48 131.72C161.04 131.72 161.43 132.05 161.43 132.79C161.43 133.53 160.89 134.39 160.12 134.39Z" fill="#EBB713"/>
<path d="M175.94 146.7C174.55 148.56 173.27 149.39 172.47 149.39C171.67 149.39 171.47 148.68 171.47 147.55C171.553 146.778 171.741 146.021 172.03 145.3C172.03 145.15 171.97 145.07 171.88 145.07C171.79 145.07 171.64 145.27 171.55 145.42C169.72 148.15 168.12 149.42 166.82 149.42C165.52 149.42 164.9 148.56 164.9 147.22C164.908 146.284 165.067 145.355 165.37 144.47L166.2 142.11C166.414 141.498 166.532 140.857 166.55 140.21C166.555 140.144 166.547 140.077 166.526 140.015C166.506 139.952 166.472 139.894 166.428 139.844C166.384 139.795 166.331 139.755 166.271 139.726C166.211 139.698 166.146 139.682 166.08 139.68C165.28 139.68 164.81 140.8 164.45 140.8C164.28 140.8 163.92 140.54 163.92 140.36C164.031 140.075 164.179 139.806 164.36 139.56C164.657 139.096 165.046 138.698 165.504 138.392C165.962 138.086 166.478 137.877 167.02 137.78C167.76 137.78 168.41 138.56 168.41 139.86C168.398 140.541 168.28 141.215 168.06 141.86L167.17 144.61C167.003 145.148 166.916 145.707 166.91 146.27C166.91 147.01 167.26 147.34 167.79 147.34C169.39 147.34 172.03 143.88 172.65 141.45L173.39 138.55C173.47 138.25 173.6 138.07 173.77 138.07H175.04C175.16 138.07 175.22 138.13 175.22 138.31C175.089 139.008 174.922 139.699 174.72 140.38L173.59 144.88C173.426 145.492 173.319 146.118 173.27 146.75C173.27 147.13 173.47 147.34 173.74 147.34C174.54 147.34 175.4 145.65 175.74 145.65C175.876 145.676 176.001 145.74 176.1 145.836C176.2 145.932 176.269 146.055 176.3 146.19C176.215 146.397 176.093 146.586 175.94 146.75V146.7Z" fill="#EBB713"/>
<path d="M195.49 147.12C194.81 148.19 193.49 149.4 192.65 149.4C191.81 149.4 191.05 148.75 191.05 147.24C191.073 146.535 191.201 145.837 191.43 145.17L192.26 142.68C192.485 142.037 192.607 141.362 192.62 140.68C192.62 140.2 192.41 139.91 191.94 139.91C190.99 139.91 188.15 143.22 187.62 145.35L186.85 148.49C186.76 148.87 186.64 149.08 186.49 149.08H185.16C185.01 149.08 184.95 148.99 184.95 148.84C185.042 148.34 185.162 147.846 185.31 147.36L186.52 142.48C186.686 141.91 186.787 141.323 186.82 140.73C186.82 140.2 186.58 139.93 186.16 139.93C185.1 139.93 182.32 143.54 181.9 145.23L181.11 148.43C180.99 148.87 180.9 149.08 180.72 149.08H179.43C179.28 149.08 179.22 148.96 179.22 148.79C179.308 148.306 179.428 147.828 179.58 147.36L181.06 141.47C181.16 141.105 181.217 140.729 181.23 140.35C181.23 139.97 181.12 139.73 180.85 139.73C180.08 139.73 179.28 141.36 178.93 141.36C178.804 141.323 178.689 141.258 178.592 141.169C178.495 141.081 178.419 140.972 178.37 140.85C178.511 140.518 178.689 140.203 178.9 139.91C179.217 139.353 179.649 138.869 180.166 138.49C180.682 138.111 181.274 137.845 181.9 137.71C182.61 137.71 182.97 138.6 182.97 139.71C182.874 140.419 182.693 141.114 182.43 141.78C182.43 141.93 182.49 142.02 182.58 142.02C182.67 142.02 182.82 141.84 182.94 141.66C185.04 138.66 186.23 137.66 187.23 137.66C187.673 137.708 188.079 137.928 188.361 138.272C188.643 138.616 188.779 139.057 188.74 139.5C188.648 140.265 188.481 141.019 188.24 141.75C188.24 141.89 188.3 141.98 188.39 141.98C188.48 141.98 188.68 141.75 188.86 141.48C190.72 138.64 192.03 137.66 193 137.66C193.97 137.66 194.57 138.37 194.57 139.59C194.543 140.441 194.405 141.285 194.16 142.1L193.3 144.89C193.116 145.453 193.008 146.038 192.98 146.63C192.98 147.07 193.21 147.31 193.57 147.31C194.25 147.31 194.93 145.71 195.29 145.71C195.65 145.71 195.94 146.01 195.94 146.19C195.835 146.487 195.686 146.766 195.5 147.02L195.49 147.12Z" fill="#EBB713"/>
<path d="M202.83 139.01L202.71 138.95C202.55 138.795 202.406 138.624 202.28 138.44C202.147 138.287 202.033 138.12 201.94 137.94C202.057 137.842 202.181 137.752 202.31 137.67C202.416 137.591 202.503 137.491 202.567 137.375C202.631 137.26 202.669 137.132 202.68 137C202.678 136.881 202.65 136.764 202.598 136.657C202.546 136.55 202.472 136.456 202.38 136.38C202.294 136.296 202.193 136.23 202.081 136.185C201.969 136.141 201.85 136.118 201.73 136.12H200.52C200.52 136.12 200.52 136.12 200.52 136.21C200.52 136.3 200.52 136.3 200.64 136.34C200.76 136.38 200.76 136.42 200.76 136.45V138.99C200.76 138.99 200.76 139.06 200.65 139.1C200.54 139.14 200.54 139.19 200.54 139.23C200.54 139.27 200.65 139.36 200.86 139.36H201.37C201.37 139.36 201.46 139.36 201.46 139.24C201.46 139.12 201.41 139.16 201.32 139.13C201.23 139.1 201.18 139.05 201.18 139V138C201.18 138 201.18 138 201.27 138C202.06 138 202.03 139.4 202.82 139.4C202.96 139.4 203.08 139.4 203.1 139.24C203.12 139.08 202.99 139.12 202.86 139.06L202.83 139.01ZM201.7 137.61H201.15V136.42H201.21H201.33C201.54 136.414 201.748 136.455 201.94 136.54C202.039 136.578 202.124 136.645 202.183 136.733C202.242 136.82 202.273 136.924 202.27 137.03C202.265 137.191 202.201 137.344 202.09 137.46C202.042 137.517 201.982 137.562 201.915 137.593C201.848 137.624 201.774 137.64 201.7 137.64V137.61Z" fill="#EBB713"/>
<path d="M201.62 135.02C201.076 135.02 200.545 135.181 200.092 135.483C199.64 135.786 199.288 136.215 199.079 136.718C198.871 137.22 198.817 137.773 198.923 138.307C199.029 138.84 199.291 139.33 199.676 139.715C200.06 140.099 200.55 140.361 201.084 140.467C201.617 140.573 202.17 140.519 202.673 140.311C203.175 140.103 203.604 139.75 203.907 139.298C204.209 138.846 204.37 138.314 204.37 137.77C204.37 137.041 204.08 136.341 203.565 135.825C203.049 135.31 202.349 135.02 201.62 135.02ZM201.62 140.24C201.132 140.24 200.654 140.095 200.248 139.824C199.842 139.552 199.525 139.167 199.338 138.715C199.151 138.264 199.102 137.767 199.198 137.288C199.293 136.809 199.528 136.369 199.874 136.023C200.219 135.678 200.659 135.443 201.138 135.347C201.617 135.252 202.114 135.301 202.565 135.488C203.017 135.675 203.402 135.992 203.674 136.398C203.945 136.804 204.09 137.281 204.09 137.77C204.088 138.424 203.826 139.051 203.364 139.514C202.901 139.976 202.274 140.237 201.62 140.24Z" fill="#EBB713"/>
</g>
<defs>
<clipPath id="clip0_536_263">
<rect width="284.87" height="203.4" fill="white"/>
</clipPath>
</defs>
</svg>
