<svg width="285" height="204" viewBox="0 0 285 204" fill="none" xmlns="http://www.w3.org/2000/svg">
<g clip-path="url(#clip0_241_15794)">
<path d="M53.32 116.22C48.85 109.71 41.21 104.75 30.38 103.42C25.16 102.615 19.8199 103.535 15.1701 106.04C5.86005 111.34 2.65005 122.92 5.84005 131.51C6.61363 133.703 7.86574 135.696 9.5055 137.344C11.1453 138.993 13.1315 140.255 15.32 141.04C14.06 143.75 12.78 146.41 11.52 148.87C8.82004 154.16 6.22005 158.54 4.14005 160.61C3.14005 160.4 2.14004 160.18 1.05004 159.93C0.905405 159.889 0.752136 159.888 0.607001 159.928C0.461866 159.967 0.330459 160.046 0.227194 160.156C0.12393 160.265 0.0527838 160.401 0.0215364 160.548C-0.00971107 160.695 0.000147581 160.848 0.0500398 160.99C0.150564 161.45 0.352693 161.882 0.641638 162.254C0.930584 162.626 1.29903 162.929 1.72004 163.14C2.20963 163.326 2.75045 163.326 3.24004 163.14C3.72936 162.962 4.18306 162.698 4.58004 162.36C28.26 166.93 44.05 159.92 51.99 149.36C59.62 139.27 60.05 125.9 53.32 116.1V116.22ZM50.6701 148.49C43.1401 158.49 28.24 165 6.01005 161.02C8.01005 158.67 10.48 154.53 13.01 149.62C14.31 147.08 15.63 144.34 16.93 141.53C21.1 142.59 26.36 142.32 32.71 140.1C32.8234 140.074 32.9299 140.024 33.0228 139.954C33.1156 139.884 33.1926 139.795 33.2489 139.693C33.3052 139.591 33.3394 139.479 33.3494 139.363C33.3593 139.247 33.3448 139.13 33.3068 139.02C33.2687 138.91 33.208 138.81 33.1285 138.725C33.049 138.64 32.9525 138.572 32.8453 138.527C32.7381 138.482 32.6226 138.46 32.5063 138.462C32.3899 138.464 32.2754 138.491 32.1701 138.54C26.3301 140.54 21.49 140.88 17.65 139.97C22.53 129.27 26.9801 118.06 28.5301 114.2C28.75 113.64 28.9601 113.14 29.0301 112.97C29.0957 112.869 29.1389 112.756 29.1568 112.637C29.1746 112.518 29.1667 112.396 29.1335 112.28C29.1003 112.165 29.0426 112.058 28.9644 111.966C28.8862 111.875 28.7892 111.801 28.68 111.75C28.4887 111.66 28.2696 111.648 28.0697 111.717C27.8697 111.786 27.7047 111.931 27.61 112.12C27.61 112.21 27.3501 112.72 27.0001 113.59C25.4401 117.46 21.0001 128.77 16.0001 139.5C14.007 138.816 12.194 137.691 10.6963 136.209C9.19859 134.727 8.05474 132.926 7.35004 130.94C5.86273 126.636 5.90613 121.951 7.47292 117.675C9.03971 113.399 12.0339 109.794 15.95 107.47C20.2937 105.139 25.2795 104.289 30.15 105.05C40.42 106.32 47.69 110.97 51.93 117.15C58.27 126.38 57.82 138.98 50.63 148.49H50.6701ZM27.5001 112.55C27.4946 112.607 27.4946 112.664 27.5001 112.72C27.4933 112.664 27.4933 112.607 27.5001 112.55Z" fill="#EBB713"/>
<path d="M121.53 152.33C114.76 158.24 110.3 161.07 107.33 161.92C105.7 162.39 104.6 162.23 103.88 161.55C103.381 161.015 103.036 160.355 102.88 159.64C102.533 158.162 102.355 156.649 102.35 155.13C102.344 153.626 102.254 152.124 102.08 150.63C102.003 149.811 101.65 149.043 101.08 148.45C100.46 147.92 99.55 147.75 98.21 148.51C96.51 149.51 93.79 152.17 89.41 157.59L93.14 148.86C93.2038 148.663 93.1917 148.449 93.106 148.261C93.0203 148.072 92.8672 147.923 92.6768 147.841C92.4864 147.76 92.2724 147.753 92.0769 147.821C91.8814 147.889 91.7184 148.028 91.62 148.21L89.94 152.14C89.851 152.171 89.7668 152.215 89.69 152.27C84.07 156.8 79.69 158.99 76.27 159.68C72.85 160.37 70.65 159.48 69.27 158C70.2951 156.317 71.0129 154.465 71.39 152.53C71.86 149.78 70.91 148 68.8 148.26C68.3614 148.33 67.9436 148.496 67.577 148.747C67.2104 148.998 66.904 149.327 66.68 149.71C65.966 150.991 65.6722 152.463 65.84 153.92C65.9544 155.412 66.439 156.852 67.25 158.11C66.5746 159.117 65.7598 160.022 64.83 160.8C63.29 162.04 61.5 162.63 59.69 161.72C57.88 160.81 57.38 158.77 57.79 156.72C58.47 153.35 61.44 149.72 65.44 149.56C65.6575 149.551 65.8624 149.456 66.0096 149.295C66.1568 149.135 66.2343 148.923 66.225 148.705C66.2158 148.488 66.1205 148.283 65.9601 148.136C65.7998 147.988 65.5875 147.911 65.37 147.92C60.59 148.13 56.98 152.37 56.18 156.4C55.61 159.26 56.42 161.97 58.95 163.23C61.48 164.49 63.8 163.77 65.86 162.11C66.8032 161.34 67.6375 160.445 68.34 159.45C69.3933 160.457 70.7174 161.135 72.15 161.4C75.7 162.12 81.07 160.83 88.68 155.19L85.43 162.7C85.3469 162.885 85.3352 163.094 85.3972 163.287C85.4592 163.48 85.5905 163.643 85.7657 163.745C85.9409 163.847 86.1477 163.881 86.3461 163.839C86.5445 163.797 86.7205 163.684 86.84 163.52C93.03 155.43 96.63 151.52 98.75 150.11C99.0084 149.93 99.2913 149.789 99.59 149.69C99.7009 149.657 99.8192 149.657 99.93 149.69C100 149.69 100.05 149.77 100.09 149.84C100.173 149.967 100.237 150.105 100.28 150.25C100.595 151.897 100.729 153.574 100.68 155.25C100.65 157.294 100.989 159.327 101.68 161.25C101.922 161.855 102.3 162.396 102.786 162.829C103.272 163.263 103.852 163.578 104.48 163.75C106.212 164.041 107.992 163.75 109.54 162.92C112.54 161.6 116.77 158.74 122.63 153.63C122.769 153.479 122.848 153.282 122.85 153.077C122.853 152.872 122.779 152.673 122.643 152.519C122.508 152.365 122.32 152.267 122.117 152.243C121.913 152.219 121.707 152.271 121.54 152.39L121.53 152.33ZM68.21 156.51C68.12 156.33 68.04 156.16 67.97 155.98C67.3311 154.434 67.2673 152.71 67.79 151.12C68.05 150.48 68.43 149.98 68.99 149.9C69.1641 149.865 69.3452 149.893 69.5 149.98C69.6468 150.109 69.7425 150.287 69.77 150.48C69.8842 151.068 69.8842 151.672 69.77 152.26C69.4782 153.75 68.9516 155.185 68.21 156.51Z" fill="#EBB713"/>
<path d="M284.79 152.36C284.749 152.26 284.69 152.169 284.614 152.093C284.538 152.016 284.448 151.955 284.348 151.913C284.249 151.872 284.142 151.85 284.035 151.849C283.927 151.849 283.82 151.869 283.72 151.91C277.137 154.471 270.972 158 265.43 162.38C265.43 162.29 265.43 162.21 265.43 162.12C265.331 161.033 264.886 160.006 264.16 159.19C265.347 158.678 266.408 157.915 267.271 156.954C268.134 155.992 268.779 154.855 269.16 153.62C269.457 152.831 269.559 151.982 269.458 151.144C269.357 150.307 269.056 149.506 268.58 148.81C268.202 148.376 267.717 148.046 267.174 147.854C266.631 147.661 266.048 147.611 265.48 147.71C263.79 147.9 261.41 149.07 258.39 151.91C258.318 151.937 258.251 151.974 258.19 152.02C250.54 157.91 245.32 160.74 241.8 161.63C239.93 162.09 238.6 162 237.68 161.46C236.32 160.65 235.94 158.92 235.91 157.07C235.985 154.271 236.512 151.502 237.47 148.87C237.555 148.707 237.584 148.52 237.551 148.339C237.518 148.158 237.427 147.993 237.29 147.87C237.137 147.738 236.942 147.665 236.74 147.665C236.538 147.665 236.343 147.738 236.19 147.87C236.19 147.87 236.19 147.87 236.1 147.97C230.1 155.52 226.15 159.49 223.74 161.14C223.3 161.455 222.819 161.708 222.31 161.89C222.04 161.97 221.85 162.02 221.73 161.89C221.626 161.736 221.564 161.556 221.55 161.37C221.504 160.985 221.504 160.595 221.55 160.21C221.754 158.432 222.163 156.684 222.77 155C223.486 152.987 224.342 151.025 225.33 149.13C225.487 149.023 225.602 148.865 225.657 148.683C225.712 148.501 225.702 148.306 225.63 148.13C225.59 148.029 225.531 147.938 225.456 147.86C225.38 147.782 225.29 147.72 225.191 147.677C225.092 147.634 224.985 147.612 224.876 147.611C224.768 147.609 224.661 147.63 224.56 147.67C224.243 147.833 223.981 148.087 223.81 148.4C223.147 149.549 222.579 150.75 222.11 151.99L221.99 152.07C216.72 156.44 211.25 159.7 206.99 161.14C205.815 161.567 204.587 161.833 203.34 161.93C202.555 162.025 201.76 161.878 201.06 161.51C200.69 161.244 200.401 160.881 200.224 160.461C200.048 160.041 199.991 159.581 200.06 159.13C200.14 156.92 201.45 153.61 204.32 148.99C204.453 148.817 204.511 148.597 204.482 148.381C204.453 148.164 204.339 147.968 204.165 147.835C203.991 147.703 203.772 147.644 203.556 147.674C203.339 147.703 203.143 147.817 203.01 147.99C200.13 151.23 197.55 152.56 195.53 152.75C194.548 152.884 193.553 152.625 192.76 152.03C192.65 151.94 192.55 151.84 192.46 151.73C192.714 151.044 192.895 150.334 193 149.61C193.061 149.233 193.061 148.848 193 148.47C192.971 148.322 192.907 148.183 192.813 148.064C192.719 147.946 192.598 147.852 192.46 147.79C192.293 147.717 192.107 147.697 191.929 147.733C191.75 147.769 191.586 147.858 191.46 147.99C190.926 148.46 190.557 149.088 190.406 149.782C190.255 150.477 190.33 151.201 190.62 151.85C184.873 156 178.54 159.273 171.83 161.56C165.65 163.49 155.27 165.18 146.94 164.43C142.65 163.89 139.73 162.43 138.24 160.15C136.98 158.15 136.74 155.59 137.54 152.43C138.74 147.64 141.91 142.14 146.45 136.95C153.9 128.46 163.65 121.41 172.54 118.09C179.12 115.64 185.14 115.36 189.54 117.3C190.224 117.564 190.823 118.01 191.27 118.59C191.837 119.569 192.056 120.711 191.89 121.83C191.876 122.063 191.955 122.292 192.108 122.468C192.261 122.644 192.478 122.752 192.71 122.77C192.825 122.78 192.941 122.766 193.051 122.73C193.161 122.694 193.263 122.636 193.35 122.56C193.439 122.484 193.511 122.391 193.563 122.286C193.615 122.181 193.644 122.067 193.65 121.95C193.856 120.433 193.527 118.891 192.72 117.59C192.095 116.739 191.242 116.08 190.26 115.69C185.45 113.56 179.26 113.81 172.26 116.41C163.1 119.82 153.09 127.06 145.46 135.76C140.46 141.44 137.08 147.21 135.88 152C134.96 155.65 135.28 158.72 136.82 161.1C138.61 163.89 142.01 165.61 146.9 166.2C148.31 166.32 149.77 166.38 151.26 166.38C158.43 166.309 165.554 165.242 172.43 163.21C179.201 160.889 185.6 157.602 191.43 153.45C191.55 153.417 191.659 153.355 191.75 153.27C192.551 153.918 193.533 154.302 194.56 154.37C196.722 154.453 198.844 153.777 200.56 152.46C199.446 154.495 198.749 156.732 198.51 159.04C198.414 159.782 198.528 160.537 198.839 161.217C199.15 161.898 199.646 162.477 200.27 162.89C201.45 163.61 203.27 163.75 205.44 163.27C209.59 162.38 215.37 159.32 221.12 154.89C220.434 156.804 220.04 158.809 219.95 160.84C219.927 161.576 220.145 162.299 220.57 162.9C221.13 163.56 222.07 163.9 223.57 163.17C225.63 162.17 229.2 159 234.97 152.07C234.588 153.71 234.394 155.387 234.39 157.07C234.39 159.55 235.14 161.77 236.96 162.85C238.16 163.56 239.89 163.85 242.32 163.2C245.94 162.29 251.32 159.43 259.15 153.43C259.27 153.393 259.38 153.328 259.47 153.24C261.023 151.576 262.935 150.286 265.06 149.47C265.45 149.29 265.884 149.23 266.308 149.297C266.732 149.365 267.126 149.558 267.44 149.85C267.741 150.335 267.921 150.885 267.967 151.454C268.012 152.023 267.921 152.594 267.7 153.12C267.308 154.385 266.579 155.519 265.59 156.4C264.602 157.281 263.392 157.876 262.09 158.12C261.98 158.14 261.876 158.182 261.783 158.244C261.69 158.306 261.61 158.386 261.55 158.48C261.489 158.574 261.448 158.679 261.429 158.789C261.41 158.899 261.414 159.012 261.44 159.12C261.471 159.271 261.542 159.41 261.646 159.523C261.75 159.635 261.883 159.718 262.03 159.76C262.573 159.944 263.045 160.294 263.379 160.761C263.712 161.227 263.891 161.787 263.89 162.36C263.951 162.814 263.971 163.273 263.95 163.73C252.13 173.94 248.36 185.36 247.95 190.65C247.798 191.712 247.929 192.795 248.33 193.79C248.426 193.999 248.58 194.177 248.773 194.303C248.965 194.428 249.19 194.497 249.42 194.5C249.696 194.501 249.968 194.432 250.21 194.3C250.801 193.948 251.332 193.502 251.78 192.98C254.85 189.69 260.36 180.61 263.4 172.65C264.459 170.052 265.172 167.325 265.52 164.54C271.18 159.86 277.554 156.119 284.4 153.46C284.5 153.42 284.591 153.36 284.668 153.284C284.744 153.208 284.805 153.118 284.847 153.019C284.889 152.919 284.911 152.812 284.911 152.705C284.912 152.597 284.891 152.49 284.85 152.39L284.79 152.36ZM261.79 172.04C259.223 178.572 255.832 184.748 251.7 190.42C251.131 191.2 250.48 191.917 249.76 192.56L249.63 192.65C249.529 192.022 249.492 191.386 249.52 190.75C249.88 185.86 253.28 175.65 263.52 166.19C263.091 168.185 262.5 170.142 261.75 172.04H261.79Z" fill="#EBB713"/>
<path d="M169.51 12.6298C172.62 13.2598 174.15 14.1098 174.15 15.0698V19.3798C174.15 19.6598 173.87 19.6598 173.7 19.4298C172.98 17.3288 171.48 15.5851 169.51 14.5598C167.475 13.3924 165.166 12.7852 162.82 12.7998C160.506 12.759 158.212 13.2362 156.107 14.1965C154.001 15.1568 152.136 16.5759 150.65 18.3498C147.488 21.8998 145.772 26.5063 145.84 31.2598C145.779 36.0831 147.535 40.7527 150.76 44.3398C152.32 46.0942 154.241 47.4891 156.393 48.4283C158.544 49.3676 160.873 49.8287 163.22 49.7798C165.421 49.7444 167.573 49.1194 169.45 47.9698C171.385 46.9114 172.888 45.2099 173.7 43.1598C173.86 42.9298 174.15 42.9298 174.15 43.1598V47.5198C174.15 48.5198 172.62 49.3298 169.62 49.9498C167.388 50.4851 165.112 50.8198 162.82 50.9498C160.206 51.0088 157.606 50.5449 155.173 49.5851C152.74 48.6254 150.524 47.1893 148.654 45.3611C146.784 43.5329 145.298 41.3495 144.284 38.9391C143.27 36.5287 142.747 33.94 142.747 31.3248C142.747 28.7097 143.27 26.1209 144.284 23.7105C145.298 21.3002 146.784 19.1168 148.654 17.2886C150.524 15.4604 152.74 14.0242 155.173 13.0645C157.606 12.1048 160.206 11.6408 162.82 11.6998C165.075 11.8403 167.313 12.1749 169.51 12.6998V12.6298Z" fill="#EBB713"/>
<path d="M116.85 50.1398C113.73 49.5098 112.2 48.6698 112.2 47.6998V43.3998C112.2 43.1098 112.49 43.1098 112.66 43.3398C113.37 45.4467 114.873 47.1937 116.85 48.2098C118.881 49.3782 121.187 49.9856 123.53 49.9698C125.845 50.0142 128.14 49.5387 130.246 48.5781C132.352 47.6176 134.216 46.1966 135.7 44.4198C138.866 40.8713 140.585 36.2647 140.52 31.5098C140.578 26.6854 138.818 22.016 135.59 18.4298C134.031 16.6744 132.11 15.2788 129.958 14.3394C127.807 13.4001 125.477 12.9397 123.13 12.9898C120.933 13.0314 118.786 13.656 116.91 14.7998C114.968 15.8532 113.462 17.5611 112.66 19.6198C112.49 19.8398 112.21 19.8398 112.21 19.6198V15.2598C112.21 14.2598 113.73 13.4398 116.74 12.8198C118.968 12.2791 121.241 11.9443 123.53 11.8198C128.734 11.8198 133.724 13.8869 137.403 17.5664C141.083 21.2459 143.15 26.2363 143.15 31.4398C143.15 36.6434 141.083 41.6338 137.403 45.3133C133.724 48.9927 128.734 51.0598 123.53 51.0598C121.279 50.9185 119.044 50.5839 116.85 50.0598V50.1398Z" fill="#EBB713"/>
<path d="M162.02 57.8098C161.4 60.9298 160.55 62.4498 159.58 62.4498H155.28C155 62.4498 155 62.1698 155.22 61.9998C157.325 61.2865 159.071 59.7844 160.09 57.8098C161.256 55.7775 161.863 53.4728 161.85 51.1298C161.894 48.8138 161.419 46.5173 160.458 44.4094C159.498 42.3015 158.077 40.4358 156.3 38.9498C152.76 35.7971 148.17 34.0816 143.43 34.1398C138.607 34.0805 133.938 35.8366 130.35 39.0598C128.597 40.6202 127.204 42.5424 126.267 44.6936C125.329 46.8448 124.87 49.1737 124.92 51.5198C124.955 53.7209 125.58 55.8723 126.73 57.7498C127.783 59.6885 129.486 61.1936 131.54 61.9998C131.77 62.1698 131.76 62.4498 131.54 62.4498H127.18C126.18 62.4498 125.37 60.9198 124.74 57.9198C124.199 55.6919 123.865 53.419 123.74 51.1298C123.74 45.9262 125.807 40.9358 129.487 37.2563C133.166 33.5769 138.156 31.5098 143.36 31.5098C148.564 31.5098 153.554 33.5769 157.233 37.2563C160.913 40.9358 162.98 45.9262 162.98 51.1298C162.836 53.3806 162.501 55.6153 161.98 57.8098H162.02Z" fill="#EBB713"/>
<path d="M124.52 4.64001C125.14 1.53001 125.99 0 126.95 0H131.26C131.54 0 131.54 0.280012 131.31 0.450012C129.211 1.17242 127.468 2.6719 126.44 4.64001C125.28 6.67797 124.677 8.98514 124.69 11.33C124.647 13.6443 125.123 15.9389 126.084 18.045C127.044 20.151 128.464 22.015 130.24 23.5C133.786 26.6688 138.395 28.3861 143.15 28.31C147.973 28.3693 152.642 26.6131 156.23 23.39C157.982 21.8291 159.375 19.9069 160.312 17.7558C161.25 15.6047 161.71 13.276 161.66 10.93C161.623 8.7322 160.998 6.58438 159.85 4.71002C158.801 2.76852 157.096 1.26249 155.04 0.460022C154.81 0.290022 154.81 0.01 155.04 0H159.43C160.43 0 161.24 1.53 161.87 4.53C162.41 6.76137 162.745 9.03757 162.87 11.33C162.87 16.5336 160.803 21.524 157.124 25.2035C153.444 28.8829 148.454 30.95 143.25 30.95C138.047 30.95 133.056 28.8829 129.377 25.2035C125.697 21.524 123.63 16.5336 123.63 11.33C123.775 9.07914 124.109 6.84451 124.63 4.65002L124.52 4.64001Z" fill="#EBB713"/>
<path d="M72.9101 85.0902C72.9071 85.0017 72.9316 84.9144 72.9801 84.8402V84.7202L73.0701 84.6102L73.1201 84.5602C73.1694 84.5155 73.2335 84.4906 73.3001 84.4902H85.5001C85.7501 84.4902 85.9601 85.0402 85.9601 85.2502C85.9601 85.4602 86.1201 87.1002 85.3401 87.1002C85.0901 87.1002 84.8301 86.8902 84.5501 86.5002C84.4648 86.3292 84.3375 86.1826 84.1801 86.0742C84.0227 85.9658 83.8403 85.899 83.6501 85.8802H80.7201L80.4201 86.1802V98.9802C80.4201 99.1602 80.6501 99.3702 81.1101 99.6002C81.5701 99.8302 81.8101 100.09 81.8101 100.37C81.8101 100.65 81.7201 100.83 81.5101 100.83H78.1101C77.7201 100.83 77.1901 100.59 77.1901 100.2C77.1901 99.9702 77.4001 99.6902 77.7901 99.3902C77.9659 99.2853 78.114 99.1397 78.2218 98.9657C78.3297 98.7917 78.3943 98.5943 78.4101 98.3902V86.3902C78.3812 86.2785 78.3235 86.1763 78.2428 86.0938C78.1621 86.0114 78.0612 85.9515 77.9501 85.9202H75.0401C74.7401 85.9202 74.4401 86.1602 74.1901 86.6202C73.9401 87.0802 73.6301 87.3102 73.3301 87.3102C73.0301 87.3102 72.8701 87.2202 72.8701 87.0102V85.1402L72.9101 85.0902Z" fill="#EBB713"/>
<path d="M94.4301 84.49H105.06C105.33 84.49 105.52 85.03 105.52 85.42V85.74C105.541 86.0363 105.51 86.334 105.43 86.62C105.36 86.96 105.18 87.1 104.9 87.1C104.62 87.1 104.39 86.89 104.09 86.5C104.003 86.3301 103.876 86.1845 103.719 86.0762C103.561 85.968 103.38 85.9006 103.19 85.88H97.5002V91.88H102.12C102.45 91.88 102.72 91.64 102.93 91.18C103.14 90.72 103.4 90.49 103.65 90.49C103.78 90.4758 103.91 90.5128 104.013 90.5931C104.115 90.6734 104.183 90.7907 104.2 90.92C104.276 91.176 104.3 91.4446 104.27 91.71V92.03C104.27 92.1 104.32 92.73 104.32 93.17C104.32 93.84 104.21 94.64 103.65 94.64C103.4 94.64 103.14 94.43 102.89 94.04C102.64 93.65 102.38 93.42 102.12 93.42H97.5002V98.96C97.5002 99.24 98.0101 99.43 98.2701 99.43H103.65C104.475 99.2896 105.214 98.8343 105.71 98.16C105.743 98.1209 105.785 98.0899 105.831 98.0691C105.878 98.0483 105.929 98.0384 105.98 98.04H106.12C106.4 98.04 106.42 98.13 106.42 98.5C106.398 98.9886 106.314 99.4725 106.17 99.94C106.01 100.51 105.78 100.81 105.5 100.81H95.0801C94.5701 100.81 94.3102 100.6 94.3102 100.19C94.3102 99.98 94.5002 99.77 94.8502 99.57C95.2002 99.37 95.3802 99.17 95.3802 98.96V86.33C95.3802 86.08 95.1701 85.85 94.7601 85.64C94.3501 85.43 94.1602 85.2 94.1602 84.94C94.1602 84.68 94.1601 84.48 94.4601 84.48L94.4301 84.49Z" fill="#EBB713"/>
<path d="M116.57 86.64C117.373 85.8414 118.329 85.2129 119.381 84.792C120.432 84.371 121.558 84.1663 122.69 84.19C123.789 84.1596 124.882 84.3622 125.897 84.7844C126.912 85.2067 127.827 85.8391 128.58 86.64C129.37 87.4232 129.994 88.359 130.411 89.3904C130.829 90.4218 131.033 91.5274 131.01 92.64C131.017 93.9418 130.73 95.2283 130.17 96.4039C129.611 97.5794 128.794 98.6138 127.78 99.43C127.57 99.66 125.49 100.59 125.6 100.82V100.96C128 102.286 130.72 102.923 133.46 102.8C134.113 102.815 134.765 102.744 135.4 102.59C136.14 102.379 136.86 102.102 137.55 101.76H137.71H137.78C137.873 101.748 137.967 101.748 138.06 101.76C138.123 101.792 138.176 101.843 138.21 101.905C138.244 101.968 138.258 102.039 138.25 102.11V102.34C138.25 104.1 136.77 104.98 133.79 104.98C132.721 104.962 131.66 104.79 130.64 104.47C129.62 104.157 128.618 103.787 127.64 103.36C126.665 102.926 125.663 102.555 124.64 102.25C123.625 101.924 122.566 101.752 121.5 101.74C120.987 101.767 120.485 101.893 120.02 102.11C119.613 102.306 119.178 102.438 118.73 102.5C118.29 102.5 118.27 102.41 118.27 102.04C118.307 101.74 118.445 101.462 118.66 101.25C118.869 101.046 119.006 100.779 119.05 100.49C115.75 98.41 114.11 95.8 114.11 92.63C114.086 91.5091 114.298 90.3958 114.732 89.3622C115.166 88.3285 115.813 87.3977 116.63 86.63L116.57 86.64ZM117.91 87.64C116.682 89.0117 116.02 90.799 116.06 92.64C116.028 94.4796 116.688 96.2641 117.91 97.64C118.5 98.3236 119.236 98.8669 120.063 99.2302C120.89 99.5935 121.787 99.7677 122.69 99.74C123.557 99.7722 124.42 99.5987 125.207 99.2337C125.994 98.8687 126.684 98.3226 127.22 97.64C128.4 96.2446 129.033 94.4675 129 92.64C129.048 90.8136 128.421 89.0336 127.24 87.64C126.696 86.9612 126.002 86.4182 125.212 86.0537C124.423 85.6893 123.559 85.5134 122.69 85.54C121.783 85.5267 120.885 85.7134 120.059 86.0868C119.233 86.4601 118.499 87.0109 117.91 87.7V87.64Z" fill="#EBB713"/>
<path d="M139.02 84.4899H142.43C142.94 84.4899 143.19 84.6999 143.19 85.1199C143.19 85.3299 143 85.5099 142.66 85.7199C142.32 85.9299 142.12 86.1299 142.12 86.3399V95.6999C142.119 96.2494 142.244 96.7918 142.485 97.2857C142.726 97.7796 143.077 98.212 143.51 98.5499C144.363 99.2885 145.452 99.6966 146.58 99.6999C147.698 99.6695 148.766 99.228 149.58 98.4599C150.019 98.1113 150.375 97.6693 150.623 97.166C150.87 96.6627 151.002 96.1106 151.01 95.5499V86.2999C151.01 86.0499 150.8 85.8199 150.39 85.6099C149.58 85.1699 149.77 84.6099 149.88 84.4499C149.905 84.4257 149.936 84.4084 149.97 84.3999L150.09 84.4499H151.63C151.63 84.4499 152.21 84.3999 152.51 84.3999C153.36 84.3999 153.78 84.6399 153.78 85.0799C153.78 85.2899 153.6 85.4699 153.25 85.6799C152.9 85.8899 152.72 86.0899 152.72 86.2999V95.0799C152.718 95.9045 152.538 96.719 152.193 97.4679C151.848 98.2168 151.346 98.8826 150.72 99.4199C149.53 100.59 147.929 101.247 146.26 101.25C144.633 101.219 143.082 100.559 141.931 99.4087C140.781 98.2582 140.121 96.7067 140.09 95.0799V86.2999C140.09 85.6299 138.7 85.5899 138.7 84.9099C138.7 84.5899 138.7 84.4499 139 84.4499L139.02 84.4899Z" fill="#EBB713"/>
<path d="M162.64 99.5802C162.99 99.3702 163.17 99.1902 163.17 98.9802V86.3402C163.17 86.0902 162.96 85.8502 162.55 85.6502C162.14 85.4502 161.95 85.2102 161.95 84.9502C161.95 84.6902 161.95 84.4902 162.25 84.4902H165.64C166.15 84.4902 166.41 84.7002 166.41 85.1102C166.41 85.3202 166.22 85.5102 165.87 85.7102C165.52 85.9102 165.34 86.1302 165.34 86.3402V98.9802C165.34 99.2302 165.55 99.4602 165.94 99.6702C166.33 99.8802 166.56 100.11 166.56 100.37C166.56 100.63 166.56 100.83 166.26 100.83H162.87C162.36 100.83 162.1 100.62 162.1 100.21C162.1 100 162.29 99.7902 162.63 99.5802H162.64Z" fill="#EBB713"/>
<path d="M175.36 99.5802C175.71 99.3702 175.89 99.1902 175.89 98.9802V86.3402C175.89 86.0902 175.68 85.8502 175.27 85.6502C174.86 85.4502 174.67 85.2102 174.67 84.9502C174.67 84.6902 174.67 84.4902 174.97 84.4902H178.36C178.87 84.4902 179.13 84.7002 179.13 85.1102C179.13 85.3202 178.94 85.5102 178.59 85.7102C178.24 85.9102 178.06 86.1302 178.06 86.3402V98.9802C178.06 99.2602 178.57 99.4402 178.82 99.4402H184.21C184.631 99.4041 185.039 99.2706 185.4 99.0502C185.76 98.8298 186.065 98.5286 186.29 98.1702C186.318 98.1309 186.356 98.0994 186.4 98.0784C186.443 98.0574 186.492 98.0478 186.54 98.0502H186.68C186.95 98.0502 186.98 98.1502 186.98 98.5202C186.958 99.0056 186.874 99.4861 186.73 99.9502C186.56 100.53 186.33 100.83 186.05 100.83H175.58C175.07 100.83 174.82 100.62 174.82 100.2C174.82 99.9902 175.01 99.7902 175.35 99.5802H175.36Z" fill="#EBB713"/>
<path d="M195.76 99.3302C196.135 99.0632 196.451 98.723 196.69 98.3302L202.09 86.1602V86.0202L201.38 85.3102C201.334 85.2583 201.293 85.2013 201.26 85.1402V85.0302C201.244 85.001 201.236 84.9684 201.236 84.9352C201.236 84.902 201.244 84.8694 201.26 84.8402C201.4 84.5902 201.54 84.4702 201.7 84.4702H203.85C204.01 84.4702 204.1 84.5902 204.26 84.9302L204.4 85.1702C204.453 85.2125 204.494 85.2676 204.52 85.3302C204.73 85.7702 205.65 87.8302 207.24 91.5002C208.83 95.1702 209.79 97.2102 210.02 97.6902V97.7402C210.313 98.2048 210.67 98.6257 211.08 98.9902C211.7 99.6102 212 100.05 212 100.35C212 100.65 212 100.81 211.7 100.81H208C207.73 100.81 207.7 100.7 207.7 100.35C207.7 100 208.3 99.5002 208.3 99.1002C208.258 98.661 208.143 98.2319 207.96 97.8302C207.75 97.2502 207.5 96.9502 207.24 96.9502H199.24C198.96 96.9502 198.7 97.2302 198.47 97.7902C198.29 98.2056 198.182 98.6486 198.15 99.1002C198.15 99.5002 198.77 99.9602 198.77 100.35C198.77 100.74 198.77 100.81 198.47 100.81H195.38C195.1 100.81 195.08 100.7 195.08 100.35C195.08 100 195.33 99.7202 195.84 99.3502L195.76 99.3302ZM199.76 95.1202L199.9 95.2802H206.43L206.59 95.1202V94.9602L203.52 88.0302L203.2 87.7302L203.08 87.8602C203.072 87.8566 203.064 87.8548 203.055 87.8548C203.046 87.8548 203.038 87.8566 203.03 87.8602L202.73 88.4602C202.669 88.6774 202.567 88.8809 202.43 89.0602C202.27 89.4502 201.88 90.3802 201.23 91.8102C200.58 93.2402 200.17 94.1702 199.96 94.6102L199.82 95.0702L199.76 95.1202Z" fill="#EBB713"/>
<path d="M96.3402 195.91C95.7202 195.91 95.2502 195.77 95.2502 195.56C95.2502 195.14 95.4602 194.82 95.5702 194.82C95.7745 194.862 95.9818 194.889 96.1902 194.9C99.0902 194.9 100.55 193.07 100.55 190.23C100.55 188.13 99.7202 186.41 97.5502 186.41C96.8102 186.41 96.5502 186.53 96.3902 186.65C96.2302 186.77 96.1002 187.12 95.8302 188.36L93.3202 200.15C93.212 200.607 93.1418 201.071 93.1102 201.54C93.1102 202.1 93.2302 202.27 93.9702 202.27C94.7102 202.27 94.7702 202.37 94.7702 202.51C94.7702 202.84 94.6202 203.25 94.4702 203.25C94.0302 203.25 93.2302 203.13 91.5402 203.13C90.3902 203.13 89.6202 203.25 89.1402 203.25C88.9902 203.25 88.9102 203.01 88.9102 202.48C88.9102 202.33 89.0802 202.27 89.6402 202.27C90.6402 202.27 90.9202 201.92 91.1802 200.64L93.7601 188.64C93.869 188.153 93.9392 187.658 93.9702 187.16C93.9702 186.48 93.8202 186.24 92.9702 186.24C92.5302 186.24 92.4102 186.18 92.4102 186.03C92.4102 185.62 92.5601 185.26 92.7001 185.26C92.8401 185.26 93.5601 185.38 95.0401 185.38C95.6301 185.38 96.6401 185.26 98.0401 185.26C101.17 185.26 102.63 187.42 102.63 190.06C102.63 193.79 100.26 195.95 96.3202 195.95L96.3402 195.91Z" fill="#EBB713"/>
<path d="M108.87 186.88L106 198.43C105.789 199.195 105.651 199.979 105.59 200.77C105.59 201.21 105.76 201.42 106.03 201.42C107.03 201.42 107.72 199.42 108.03 199.42C108.34 199.42 108.68 199.6 108.68 199.78C108.603 200.102 108.474 200.409 108.3 200.69C107.59 202 105.99 203.36 105.1 203.36C104.21 203.36 103.74 202.83 103.74 201.29C103.789 200.146 103.971 199.012 104.28 197.91L107.03 186.91C107.159 186.467 107.236 186.011 107.26 185.55C107.26 185.11 106.97 184.96 105.67 184.96C105.52 184.96 105.43 184.84 105.43 184.4C105.43 184.22 105.61 184.1 106.05 184.01C107.44 183.78 109.05 183.27 109.36 183.27C109.67 183.27 109.63 183.39 109.63 183.66C109.63 183.93 109.36 184.66 108.83 186.88H108.87Z" fill="#EBB713"/>
<path d="M122.43 200.83C121.72 202.01 120.15 203.4 119.43 203.4C118.71 203.4 117.95 202.84 117.95 201.65C117.987 200.893 118.167 200.15 118.48 199.46C118.6 199.2 118.48 199.08 118.42 199.08C118.36 199.08 118.21 199.17 118.1 199.34C116.26 201.98 114.66 203.4 113.18 203.4C111.94 203.4 110.93 202.01 110.93 200.35C110.93 195.47 115.11 191.77 117.62 191.77C118.014 191.774 118.403 191.86 118.761 192.024C119.119 192.188 119.439 192.425 119.7 192.72C119.85 192.86 119.93 192.98 120.05 192.98C120.17 192.98 120.41 192.72 120.52 192.48C120.63 192.24 120.79 192.04 120.94 192.04H121.59C121.71 192.04 121.77 192.16 121.77 192.3C121.77 192.44 121.5 193.3 121.15 194.79L120.2 198.67C119.994 199.377 119.847 200.099 119.76 200.83C119.76 201.21 119.85 201.42 120.23 201.42C120.97 201.42 121.95 199.7 122.23 199.7C122.363 199.712 122.489 199.764 122.591 199.85C122.693 199.936 122.766 200.051 122.8 200.18C122.725 200.413 122.613 200.632 122.47 200.83H122.43ZM117.19 193.16C115.14 193.16 112.98 197.1 112.98 200.23C112.98 201.03 113.4 201.45 113.98 201.45C115.46 201.45 117.41 199.19 118.57 197.15C118.956 196.569 119.18 195.896 119.22 195.2C119.193 194.678 118.974 194.185 118.605 193.815C118.235 193.446 117.742 193.227 117.22 193.2L117.19 193.16Z" fill="#EBB713"/>
<path d="M131.79 193.19H129.54C129.3 193.19 129.13 193.31 129.04 193.63L127.83 198.57C127.641 199.239 127.52 199.926 127.47 200.62C127.47 201.06 127.65 201.33 127.89 201.33C128.72 201.33 129.51 199.55 129.96 199.55C130.101 199.579 130.231 199.647 130.335 199.746C130.439 199.845 130.514 199.971 130.55 200.11C130.55 200.26 130.4 200.47 130.05 200.94C128.57 202.86 127.42 203.4 126.59 203.4C125.99 203.4 125.59 202.69 125.59 201.4C125.605 200.752 125.696 200.107 125.86 199.48L127.04 194.74C127.169 194.305 127.26 193.86 127.31 193.41C127.31 193.23 127.22 193.15 127.04 193.15H125.71C125.68 193.154 125.649 193.152 125.62 193.143C125.591 193.135 125.564 193.12 125.542 193.1C125.519 193.08 125.501 193.055 125.488 193.028C125.476 193 125.47 192.97 125.47 192.94C125.47 192.73 125.65 191.99 125.86 191.99H127.36C127.45 192.001 127.541 191.978 127.614 191.924C127.686 191.869 127.735 191.789 127.75 191.7L128.49 188.7C128.67 188.445 128.902 188.23 129.171 188.072C129.44 187.913 129.74 187.814 130.05 187.78C130.32 187.78 130.38 187.9 130.38 188.04C130.328 188.377 130.258 188.71 130.17 189.04L129.73 190.84C129.646 191.141 129.586 191.449 129.55 191.76C129.55 191.94 129.61 192.03 129.81 192.03H131.97C132.003 192.03 132.036 192.036 132.067 192.05C132.097 192.063 132.125 192.083 132.147 192.107C132.17 192.131 132.187 192.16 132.198 192.192C132.209 192.223 132.213 192.257 132.21 192.29C132.21 192.53 132.06 193.18 131.82 193.18L131.79 193.19Z" fill="#EBB713"/>
<path d="M138.87 201.39C138.544 201.911 138.114 202.357 137.606 202.702C137.098 203.046 136.524 203.28 135.92 203.39C135.15 203.39 134.55 202.68 134.55 201.29C134.565 200.442 134.713 199.602 134.99 198.8L135.99 195.72C136.151 195.262 136.252 194.785 136.29 194.3C136.29 193.95 136.17 193.71 135.81 193.71C135.1 193.71 134.63 194.78 134.3 194.78C133.97 194.78 133.68 194.54 133.68 194.36C133.68 194.18 133.8 194.01 134.16 193.53C134.47 193.053 134.878 192.647 135.358 192.34C135.837 192.033 136.377 191.832 136.94 191.75C137.71 191.75 138.19 192.29 138.19 193.47C138.157 194.401 137.985 195.321 137.68 196.2L136.68 199.37C136.539 199.789 136.468 200.228 136.47 200.67C136.47 201.11 136.68 201.41 137.09 201.41C137.83 201.41 138.48 199.84 138.75 199.84C138.899 199.867 139.037 199.932 139.152 200.031C139.266 200.13 139.352 200.257 139.4 200.4C139.4 200.64 139.1 201.02 138.87 201.4V201.39ZM137.87 188.39C137.72 188.396 137.571 188.37 137.431 188.316C137.291 188.261 137.164 188.178 137.058 188.072C136.952 187.966 136.869 187.839 136.815 187.699C136.76 187.56 136.734 187.41 136.74 187.26C136.747 186.864 136.903 186.485 137.178 186.2C137.452 185.914 137.824 185.743 138.22 185.72C138.78 185.72 139.17 186.05 139.17 186.79C139.17 187.53 138.64 188.42 137.87 188.42V188.39Z" fill="#EBB713"/>
<path d="M153.32 201.12C152.67 202.12 151.32 203.4 150.39 203.4C149.46 203.4 148.88 202.81 148.88 201.4C148.904 200.672 149.032 199.952 149.26 199.26L150.21 196.26C150.339 195.808 150.41 195.341 150.42 194.87C150.42 194.25 150.1 193.87 149.62 193.87C148.38 193.87 145.51 197.42 145.03 199.34L144.26 202.48C144.15 202.98 144.06 203.07 143.88 203.07H142.58C142.46 203.07 142.4 202.98 142.4 202.8C142.507 202.203 142.648 201.612 142.82 201.03L144.18 195.55C144.291 195.162 144.358 194.763 144.38 194.36C144.38 194.01 144.26 193.77 144 193.77C143.05 193.77 142.43 195.28 142 195.28C141.876 195.268 141.76 195.216 141.67 195.131C141.579 195.046 141.519 194.933 141.5 194.81C141.617 194.464 141.797 194.142 142.03 193.86C142.693 192.791 143.742 192.017 144.96 191.7C145.82 191.7 146.14 192.59 146.14 193.8C146.029 194.486 145.842 195.157 145.58 195.8C145.58 195.92 145.64 195.98 145.73 195.98C145.82 195.98 146.03 195.71 146.18 195.5C148.28 192.6 149.58 191.66 150.62 191.66C151.86 191.66 152.39 192.57 152.39 193.82C152.364 194.613 152.236 195.4 152.01 196.16L151.01 199.38C150.855 199.818 150.768 200.276 150.75 200.74C150.75 201.13 150.95 201.34 151.25 201.34C152.02 201.34 152.67 199.77 153.2 199.77C153.35 199.77 153.71 200.09 153.71 200.24C153.623 200.516 153.491 200.777 153.32 201.01V201.12Z" fill="#EBB713"/>
<path d="M161.12 201.39C160.789 201.916 160.351 202.366 159.834 202.711C159.317 203.055 158.733 203.287 158.12 203.39C157.36 203.39 156.76 202.68 156.76 201.29C156.775 200.442 156.924 199.602 157.2 198.8L158.2 195.72C158.359 195.262 158.456 194.784 158.49 194.3C158.49 193.95 158.38 193.71 158.02 193.71C157.31 193.71 156.84 194.78 156.51 194.78C156.18 194.78 155.89 194.54 155.89 194.36C155.89 194.18 156.01 194.01 156.37 193.53C156.68 193.053 157.089 192.647 157.568 192.34C158.047 192.033 158.587 191.832 159.15 191.75C159.92 191.75 160.39 192.29 160.39 193.47C160.356 194.4 160.188 195.319 159.89 196.2L158.89 199.37C158.749 199.789 158.678 200.228 158.68 200.67C158.68 201.11 158.89 201.41 159.3 201.41C160.04 201.41 160.69 199.84 160.96 199.84C161.108 199.869 161.246 199.935 161.36 200.033C161.474 200.132 161.56 200.258 161.61 200.4C161.61 200.64 161.31 201.02 161.08 201.4L161.12 201.39ZM160.12 188.39C159.971 188.396 159.822 188.371 159.683 188.316C159.543 188.261 159.417 188.178 159.312 188.071C159.207 187.965 159.125 187.838 159.071 187.698C159.017 187.559 158.993 187.41 159 187.26C159.007 186.864 159.163 186.485 159.438 186.2C159.712 185.914 160.085 185.743 160.48 185.72C161.04 185.72 161.43 186.05 161.43 186.79C161.43 187.53 160.89 188.39 160.12 188.39Z" fill="#EBB713"/>
<path d="M175.94 200.7C174.55 202.56 173.27 203.39 172.47 203.39C171.67 203.39 171.47 202.68 171.47 201.55C171.553 200.778 171.741 200.021 172.03 199.3C172.03 199.15 171.97 199.07 171.88 199.07C171.79 199.07 171.64 199.27 171.55 199.42C169.72 202.15 168.12 203.42 166.82 203.42C165.52 203.42 164.9 202.56 164.9 201.22C164.908 200.284 165.067 199.355 165.37 198.47L166.2 196.11C166.414 195.498 166.532 194.857 166.55 194.21C166.555 194.144 166.547 194.077 166.526 194.015C166.506 193.952 166.472 193.894 166.428 193.844C166.384 193.795 166.331 193.755 166.271 193.726C166.211 193.698 166.146 193.682 166.08 193.68C165.28 193.68 164.81 194.8 164.45 194.8C164.28 194.8 163.92 194.54 163.92 194.36C164.031 194.075 164.179 193.806 164.36 193.56C164.657 193.096 165.046 192.698 165.504 192.392C165.962 192.086 166.478 191.877 167.02 191.78C167.76 191.78 168.41 192.56 168.41 193.86C168.398 194.541 168.28 195.215 168.06 195.86L167.17 198.61C167.003 199.148 166.916 199.707 166.91 200.27C166.91 201.01 167.26 201.34 167.79 201.34C169.39 201.34 172.03 197.88 172.65 195.45L173.39 192.55C173.47 192.25 173.6 192.07 173.77 192.07H175.04C175.16 192.07 175.22 192.13 175.22 192.31C175.089 193.008 174.922 193.699 174.72 194.38L173.59 198.88C173.426 199.492 173.319 200.118 173.27 200.75C173.27 201.13 173.47 201.34 173.74 201.34C174.54 201.34 175.4 199.65 175.74 199.65C175.876 199.676 176.001 199.74 176.1 199.836C176.2 199.932 176.269 200.055 176.3 200.19C176.215 200.397 176.093 200.586 175.94 200.75V200.7Z" fill="#EBB713"/>
<path d="M195.49 201.12C194.81 202.19 193.49 203.4 192.65 203.4C191.81 203.4 191.05 202.75 191.05 201.24C191.073 200.535 191.201 199.837 191.43 199.17L192.26 196.68C192.485 196.037 192.607 195.362 192.62 194.68C192.62 194.2 192.41 193.91 191.94 193.91C190.99 193.91 188.15 197.22 187.62 199.35L186.85 202.49C186.76 202.87 186.64 203.08 186.49 203.08H185.16C185.01 203.08 184.95 202.99 184.95 202.84C185.042 202.34 185.162 201.846 185.31 201.36L186.52 196.48C186.686 195.91 186.787 195.323 186.82 194.73C186.82 194.2 186.58 193.93 186.16 193.93C185.1 193.93 182.32 197.54 181.9 199.23L181.11 202.43C180.99 202.87 180.9 203.08 180.72 203.08H179.43C179.28 203.08 179.22 202.96 179.22 202.79C179.308 202.306 179.428 201.828 179.58 201.36L181.06 195.47C181.16 195.105 181.217 194.729 181.23 194.35C181.23 193.97 181.12 193.73 180.85 193.73C180.08 193.73 179.28 195.36 178.93 195.36C178.804 195.323 178.689 195.258 178.592 195.169C178.495 195.081 178.419 194.972 178.37 194.85C178.511 194.518 178.689 194.203 178.9 193.91C179.217 193.353 179.649 192.869 180.166 192.49C180.682 192.111 181.274 191.845 181.9 191.71C182.61 191.71 182.97 192.6 182.97 193.71C182.874 194.419 182.693 195.114 182.43 195.78C182.43 195.93 182.49 196.02 182.58 196.02C182.67 196.02 182.82 195.84 182.94 195.66C185.04 192.66 186.23 191.66 187.23 191.66C187.673 191.708 188.079 191.928 188.361 192.272C188.643 192.616 188.779 193.057 188.74 193.5C188.648 194.265 188.481 195.019 188.24 195.75C188.24 195.89 188.3 195.98 188.39 195.98C188.48 195.98 188.68 195.75 188.86 195.48C190.72 192.64 192.03 191.66 193 191.66C193.97 191.66 194.57 192.37 194.57 193.59C194.543 194.441 194.405 195.285 194.16 196.1L193.3 198.89C193.116 199.453 193.008 200.038 192.98 200.63C192.98 201.07 193.21 201.31 193.57 201.31C194.25 201.31 194.93 199.71 195.29 199.71C195.65 199.71 195.94 200.01 195.94 200.19C195.835 200.487 195.686 200.766 195.5 201.02L195.49 201.12Z" fill="#EBB713"/>
<path d="M53.32 116.22C48.85 109.71 41.21 104.75 30.38 103.42C25.16 102.615 19.8199 103.535 15.1701 106.04C5.86005 111.34 2.65005 122.92 5.84005 131.51C6.61363 133.703 7.86574 135.696 9.5055 137.344C11.1453 138.993 13.1315 140.255 15.32 141.04C14.06 143.75 12.78 146.41 11.52 148.87C8.82004 154.16 6.22005 158.54 4.14005 160.61C3.14005 160.4 2.14004 160.18 1.05004 159.93C0.905405 159.889 0.752136 159.888 0.607001 159.928C0.461866 159.967 0.330459 160.046 0.227194 160.156C0.12393 160.265 0.0527838 160.401 0.0215364 160.548C-0.00971107 160.695 0.000147581 160.848 0.0500398 160.99C0.150564 161.45 0.352693 161.882 0.641638 162.254C0.930584 162.626 1.29903 162.929 1.72004 163.14C2.20963 163.326 2.75045 163.326 3.24004 163.14C3.72936 162.962 4.18306 162.698 4.58004 162.36C28.26 166.93 44.05 159.92 51.99 149.36C59.62 139.27 60.05 125.9 53.32 116.1V116.22ZM50.6701 148.49C43.1401 158.49 28.24 165 6.01005 161.02C8.01005 158.67 10.48 154.53 13.01 149.62C14.31 147.08 15.63 144.34 16.93 141.53C21.1 142.59 26.36 142.32 32.71 140.1C32.8234 140.074 32.9299 140.024 33.0228 139.954C33.1156 139.884 33.1926 139.795 33.2489 139.693C33.3052 139.591 33.3394 139.479 33.3494 139.363C33.3593 139.247 33.3448 139.13 33.3068 139.02C33.2687 138.91 33.208 138.81 33.1285 138.725C33.049 138.64 32.9525 138.572 32.8453 138.527C32.7381 138.482 32.6226 138.46 32.5063 138.462C32.3899 138.464 32.2754 138.491 32.1701 138.54C26.3301 140.54 21.49 140.88 17.65 139.97C22.53 129.27 26.9801 118.06 28.5301 114.2C28.75 113.64 28.9601 113.14 29.0301 112.97C29.0957 112.869 29.1389 112.756 29.1568 112.637C29.1746 112.518 29.1667 112.396 29.1335 112.28C29.1003 112.165 29.0426 112.058 28.9644 111.966C28.8862 111.875 28.7892 111.801 28.68 111.75C28.4887 111.66 28.2696 111.648 28.0697 111.717C27.8697 111.786 27.7047 111.931 27.61 112.12C27.61 112.21 27.3501 112.72 27.0001 113.59C25.4401 117.46 21.0001 128.77 16.0001 139.5C14.007 138.816 12.194 137.691 10.6963 136.209C9.19859 134.727 8.05474 132.926 7.35004 130.94C5.86273 126.636 5.90613 121.951 7.47292 117.675C9.03971 113.399 12.0339 109.794 15.95 107.47C20.2937 105.139 25.2795 104.289 30.15 105.05C40.42 106.32 47.69 110.97 51.93 117.15C58.27 126.38 57.82 138.98 50.63 148.49H50.6701ZM27.5001 112.55C27.4946 112.607 27.4946 112.664 27.5001 112.72C27.4933 112.664 27.4933 112.607 27.5001 112.55Z" fill="#EBB713"/>
<path d="M121.53 152.33C114.76 158.24 110.3 161.07 107.33 161.92C105.7 162.39 104.6 162.23 103.88 161.55C103.381 161.015 103.036 160.355 102.88 159.64C102.533 158.162 102.355 156.649 102.35 155.13C102.344 153.626 102.254 152.124 102.08 150.63C102.003 149.811 101.65 149.043 101.08 148.45C100.46 147.92 99.55 147.75 98.21 148.51C96.51 149.51 93.79 152.17 89.41 157.59L93.14 148.86C93.2038 148.663 93.1917 148.449 93.106 148.261C93.0203 148.072 92.8672 147.923 92.6768 147.841C92.4864 147.76 92.2724 147.753 92.0769 147.821C91.8814 147.889 91.7184 148.028 91.62 148.21L89.94 152.14C89.851 152.171 89.7668 152.215 89.69 152.27C84.07 156.8 79.69 158.99 76.27 159.68C72.85 160.37 70.65 159.48 69.27 158C70.2951 156.317 71.0129 154.465 71.39 152.53C71.86 149.78 70.91 148 68.8 148.26C68.3614 148.33 67.9436 148.496 67.577 148.747C67.2104 148.998 66.904 149.327 66.68 149.71C65.966 150.991 65.6722 152.463 65.84 153.92C65.9544 155.412 66.439 156.852 67.25 158.11C66.5746 159.117 65.7598 160.022 64.83 160.8C63.29 162.04 61.5 162.63 59.69 161.72C57.88 160.81 57.38 158.77 57.79 156.72C58.47 153.35 61.44 149.72 65.44 149.56C65.6575 149.551 65.8624 149.456 66.0096 149.295C66.1568 149.135 66.2343 148.923 66.225 148.705C66.2158 148.488 66.1205 148.283 65.9601 148.136C65.7998 147.988 65.5875 147.911 65.37 147.92C60.59 148.13 56.98 152.37 56.18 156.4C55.61 159.26 56.42 161.97 58.95 163.23C61.48 164.49 63.8 163.77 65.86 162.11C66.8032 161.34 67.6375 160.445 68.34 159.45C69.3933 160.457 70.7174 161.135 72.15 161.4C75.7 162.12 81.07 160.83 88.68 155.19L85.43 162.7C85.3469 162.885 85.3352 163.094 85.3972 163.287C85.4592 163.48 85.5905 163.643 85.7657 163.745C85.9409 163.847 86.1477 163.881 86.3461 163.839C86.5445 163.797 86.7205 163.684 86.84 163.52C93.03 155.43 96.63 151.52 98.75 150.11C99.0084 149.93 99.2913 149.789 99.59 149.69C99.7009 149.657 99.8192 149.657 99.93 149.69C100 149.69 100.05 149.77 100.09 149.84C100.173 149.967 100.237 150.105 100.28 150.25C100.595 151.897 100.729 153.574 100.68 155.25C100.65 157.294 100.989 159.327 101.68 161.25C101.922 161.855 102.3 162.396 102.786 162.829C103.272 163.263 103.852 163.578 104.48 163.75C106.212 164.041 107.992 163.75 109.54 162.92C112.54 161.6 116.77 158.74 122.63 153.63C122.769 153.479 122.848 153.282 122.85 153.077C122.853 152.872 122.779 152.673 122.643 152.519C122.508 152.365 122.32 152.267 122.117 152.243C121.913 152.219 121.707 152.271 121.54 152.39L121.53 152.33ZM68.21 156.51C68.12 156.33 68.04 156.16 67.97 155.98C67.3311 154.434 67.2673 152.71 67.79 151.12C68.05 150.48 68.43 149.98 68.99 149.9C69.1641 149.865 69.3452 149.893 69.5 149.98C69.6468 150.109 69.7425 150.287 69.77 150.48C69.8842 151.068 69.8842 151.672 69.77 152.26C69.4782 153.75 68.9516 155.185 68.21 156.51Z" fill="#EBB713"/>
<path d="M284.79 152.36C284.749 152.26 284.69 152.169 284.614 152.093C284.538 152.016 284.448 151.955 284.348 151.913C284.249 151.872 284.142 151.85 284.035 151.849C283.927 151.849 283.82 151.869 283.72 151.91C277.137 154.471 270.972 158 265.43 162.38C265.43 162.29 265.43 162.21 265.43 162.12C265.331 161.033 264.886 160.006 264.16 159.19C265.347 158.678 266.408 157.915 267.271 156.954C268.134 155.992 268.779 154.855 269.16 153.62C269.457 152.831 269.559 151.982 269.458 151.144C269.357 150.307 269.056 149.506 268.58 148.81C268.202 148.376 267.717 148.046 267.174 147.854C266.631 147.661 266.048 147.611 265.48 147.71C263.79 147.9 261.41 149.07 258.39 151.91C258.318 151.937 258.251 151.974 258.19 152.02C250.54 157.91 245.32 160.74 241.8 161.63C239.93 162.09 238.6 162 237.68 161.46C236.32 160.65 235.94 158.92 235.91 157.07C235.985 154.271 236.512 151.502 237.47 148.87C237.555 148.707 237.584 148.52 237.551 148.339C237.518 148.158 237.427 147.993 237.29 147.87C237.137 147.738 236.942 147.665 236.74 147.665C236.538 147.665 236.343 147.738 236.19 147.87C236.19 147.87 236.19 147.87 236.1 147.97C230.1 155.52 226.15 159.49 223.74 161.14C223.3 161.455 222.819 161.708 222.31 161.89C222.04 161.97 221.85 162.02 221.73 161.89C221.626 161.736 221.564 161.556 221.55 161.37C221.504 160.985 221.504 160.595 221.55 160.21C221.754 158.432 222.163 156.684 222.77 155C223.486 152.987 224.342 151.025 225.33 149.13C225.487 149.023 225.602 148.865 225.657 148.683C225.712 148.501 225.702 148.306 225.63 148.13C225.59 148.029 225.531 147.938 225.456 147.86C225.38 147.782 225.29 147.72 225.191 147.677C225.092 147.634 224.985 147.612 224.876 147.611C224.768 147.609 224.661 147.63 224.56 147.67C224.243 147.833 223.981 148.087 223.81 148.4C223.147 149.549 222.579 150.75 222.11 151.99L221.99 152.07C216.72 156.44 211.25 159.7 206.99 161.14C205.815 161.567 204.587 161.833 203.34 161.93C202.555 162.025 201.76 161.878 201.06 161.51C200.69 161.244 200.401 160.881 200.224 160.461C200.048 160.041 199.991 159.581 200.06 159.13C200.14 156.92 201.45 153.61 204.32 148.99C204.453 148.817 204.511 148.597 204.482 148.381C204.453 148.164 204.339 147.968 204.165 147.835C203.991 147.703 203.772 147.644 203.556 147.674C203.339 147.703 203.143 147.817 203.01 147.99C200.13 151.23 197.55 152.56 195.53 152.75C194.548 152.884 193.553 152.625 192.76 152.03C192.65 151.94 192.55 151.84 192.46 151.73C192.714 151.044 192.895 150.334 193 149.61C193.061 149.233 193.061 148.848 193 148.47C192.971 148.322 192.907 148.183 192.813 148.064C192.719 147.946 192.598 147.852 192.46 147.79C192.293 147.717 192.107 147.697 191.929 147.733C191.75 147.769 191.586 147.858 191.46 147.99C190.926 148.46 190.557 149.088 190.406 149.782C190.255 150.477 190.33 151.201 190.62 151.85C184.873 156 178.54 159.273 171.83 161.56C165.65 163.49 155.27 165.18 146.94 164.43C142.65 163.89 139.73 162.43 138.24 160.15C136.98 158.15 136.74 155.59 137.54 152.43C138.74 147.64 141.91 142.14 146.45 136.95C153.9 128.46 163.65 121.41 172.54 118.09C179.12 115.64 185.14 115.36 189.54 117.3C190.224 117.564 190.823 118.01 191.27 118.59C191.837 119.569 192.056 120.711 191.89 121.83C191.876 122.063 191.955 122.292 192.108 122.468C192.261 122.644 192.478 122.752 192.71 122.77C192.825 122.78 192.941 122.766 193.051 122.73C193.161 122.694 193.263 122.636 193.35 122.56C193.439 122.484 193.511 122.391 193.563 122.286C193.615 122.181 193.644 122.067 193.65 121.95C193.856 120.433 193.527 118.891 192.72 117.59C192.095 116.739 191.242 116.08 190.26 115.69C185.45 113.56 179.26 113.81 172.26 116.41C163.1 119.82 153.09 127.06 145.46 135.76C140.46 141.44 137.08 147.21 135.88 152C134.96 155.65 135.28 158.72 136.82 161.1C138.61 163.89 142.01 165.61 146.9 166.2C148.31 166.32 149.77 166.38 151.26 166.38C158.43 166.309 165.554 165.242 172.43 163.21C179.201 160.889 185.6 157.602 191.43 153.45C191.55 153.417 191.659 153.355 191.75 153.27C192.551 153.918 193.533 154.302 194.56 154.37C196.722 154.453 198.844 153.777 200.56 152.46C199.446 154.495 198.749 156.732 198.51 159.04C198.414 159.782 198.528 160.537 198.839 161.217C199.15 161.898 199.646 162.477 200.27 162.89C201.45 163.61 203.27 163.75 205.44 163.27C209.59 162.38 215.37 159.32 221.12 154.89C220.434 156.804 220.04 158.809 219.95 160.84C219.927 161.576 220.145 162.299 220.57 162.9C221.13 163.56 222.07 163.9 223.57 163.17C225.63 162.17 229.2 159 234.97 152.07C234.588 153.71 234.394 155.387 234.39 157.07C234.39 159.55 235.14 161.77 236.96 162.85C238.16 163.56 239.89 163.85 242.32 163.2C245.94 162.29 251.32 159.43 259.15 153.43C259.27 153.393 259.38 153.328 259.47 153.24C261.023 151.576 262.935 150.286 265.06 149.47C265.45 149.29 265.884 149.23 266.308 149.297C266.732 149.365 267.126 149.558 267.44 149.85C267.741 150.335 267.921 150.885 267.967 151.454C268.012 152.023 267.921 152.594 267.7 153.12C267.308 154.385 266.579 155.519 265.59 156.4C264.602 157.281 263.392 157.876 262.09 158.12C261.98 158.14 261.876 158.182 261.783 158.244C261.69 158.306 261.61 158.386 261.55 158.48C261.489 158.574 261.448 158.679 261.429 158.789C261.41 158.899 261.414 159.012 261.44 159.12C261.471 159.271 261.542 159.41 261.646 159.523C261.75 159.635 261.883 159.718 262.03 159.76C262.573 159.944 263.045 160.294 263.379 160.761C263.712 161.227 263.891 161.787 263.89 162.36C263.951 162.814 263.971 163.273 263.95 163.73C252.13 173.94 248.36 185.36 247.95 190.65C247.798 191.712 247.929 192.795 248.33 193.79C248.426 193.999 248.58 194.177 248.773 194.303C248.965 194.428 249.19 194.497 249.42 194.5C249.696 194.501 249.968 194.432 250.21 194.3C250.801 193.948 251.332 193.502 251.78 192.98C254.85 189.69 260.36 180.61 263.4 172.65C264.459 170.052 265.172 167.325 265.52 164.54C271.18 159.86 277.554 156.119 284.4 153.46C284.5 153.42 284.591 153.36 284.668 153.284C284.744 153.208 284.805 153.118 284.847 153.019C284.889 152.919 284.911 152.812 284.911 152.705C284.912 152.597 284.891 152.49 284.85 152.39L284.79 152.36ZM261.79 172.04C259.223 178.572 255.832 184.748 251.7 190.42C251.131 191.2 250.48 191.917 249.76 192.56L249.63 192.65C249.529 192.022 249.492 191.386 249.52 190.75C249.88 185.86 253.28 175.65 263.52 166.19C263.091 168.185 262.5 170.142 261.75 172.04H261.79Z" fill="#EBB713"/>
<path d="M169.51 12.6298C172.62 13.2598 174.15 14.1098 174.15 15.0698V19.3798C174.15 19.6598 173.87 19.6598 173.7 19.4298C172.98 17.3288 171.48 15.5851 169.51 14.5598C167.475 13.3924 165.166 12.7852 162.82 12.7998C160.506 12.759 158.212 13.2362 156.107 14.1965C154.001 15.1568 152.136 16.5759 150.65 18.3498C147.488 21.8998 145.772 26.5063 145.84 31.2598C145.779 36.0831 147.535 40.7527 150.76 44.3398C152.32 46.0942 154.241 47.4891 156.393 48.4283C158.544 49.3676 160.873 49.8287 163.22 49.7798C165.421 49.7444 167.573 49.1194 169.45 47.9698C171.385 46.9114 172.888 45.2099 173.7 43.1598C173.86 42.9298 174.15 42.9298 174.15 43.1598V47.5198C174.15 48.5198 172.62 49.3298 169.62 49.9498C167.388 50.4851 165.112 50.8198 162.82 50.9498C160.206 51.0088 157.606 50.5449 155.173 49.5851C152.74 48.6254 150.524 47.1893 148.654 45.3611C146.784 43.5329 145.298 41.3495 144.284 38.9391C143.27 36.5287 142.747 33.94 142.747 31.3248C142.747 28.7097 143.27 26.1209 144.284 23.7105C145.298 21.3002 146.784 19.1168 148.654 17.2886C150.524 15.4604 152.74 14.0242 155.173 13.0645C157.606 12.1048 160.206 11.6408 162.82 11.6998C165.075 11.8403 167.313 12.1749 169.51 12.6998V12.6298Z" fill="#EBB713"/>
<path d="M116.85 50.1398C113.73 49.5098 112.2 48.6698 112.2 47.6998V43.3998C112.2 43.1098 112.49 43.1098 112.66 43.3398C113.37 45.4467 114.873 47.1937 116.85 48.2098C118.881 49.3782 121.187 49.9856 123.53 49.9698C125.845 50.0142 128.14 49.5387 130.246 48.5781C132.352 47.6176 134.216 46.1966 135.7 44.4198C138.866 40.8713 140.585 36.2647 140.52 31.5098C140.578 26.6854 138.818 22.016 135.59 18.4298C134.031 16.6744 132.11 15.2788 129.958 14.3394C127.807 13.4001 125.477 12.9397 123.13 12.9898C120.933 13.0314 118.786 13.656 116.91 14.7998C114.968 15.8532 113.462 17.5611 112.66 19.6198C112.49 19.8398 112.21 19.8398 112.21 19.6198V15.2598C112.21 14.2598 113.73 13.4398 116.74 12.8198C118.968 12.2791 121.241 11.9443 123.53 11.8198C128.734 11.8198 133.724 13.8869 137.403 17.5664C141.083 21.2459 143.15 26.2363 143.15 31.4398C143.15 36.6434 141.083 41.6338 137.403 45.3133C133.724 48.9927 128.734 51.0598 123.53 51.0598C121.279 50.9185 119.044 50.5839 116.85 50.0598V50.1398Z" fill="#EBB713"/>
<path d="M162.02 57.8098C161.4 60.9298 160.55 62.4498 159.58 62.4498H155.28C155 62.4498 155 62.1698 155.22 61.9998C157.325 61.2865 159.071 59.7844 160.09 57.8098C161.256 55.7775 161.863 53.4728 161.85 51.1298C161.894 48.8138 161.419 46.5173 160.458 44.4094C159.498 42.3015 158.077 40.4358 156.3 38.9498C152.76 35.7971 148.17 34.0816 143.43 34.1398C138.607 34.0805 133.938 35.8366 130.35 39.0598C128.597 40.6202 127.204 42.5424 126.267 44.6936C125.329 46.8448 124.87 49.1737 124.92 51.5198C124.955 53.7209 125.58 55.8723 126.73 57.7498C127.783 59.6885 129.486 61.1936 131.54 61.9998C131.77 62.1698 131.76 62.4498 131.54 62.4498H127.18C126.18 62.4498 125.37 60.9198 124.74 57.9198C124.199 55.6919 123.865 53.419 123.74 51.1298C123.74 45.9262 125.807 40.9358 129.487 37.2563C133.166 33.5769 138.156 31.5098 143.36 31.5098C148.564 31.5098 153.554 33.5769 157.233 37.2563C160.913 40.9358 162.98 45.9262 162.98 51.1298C162.836 53.3806 162.501 55.6153 161.98 57.8098H162.02Z" fill="#EBB713"/>
<path d="M124.52 4.64001C125.14 1.53001 125.99 0 126.95 0H131.26C131.54 0 131.54 0.280012 131.31 0.450012C129.211 1.17242 127.468 2.6719 126.44 4.64001C125.28 6.67797 124.677 8.98514 124.69 11.33C124.647 13.6443 125.123 15.9389 126.084 18.045C127.044 20.151 128.464 22.015 130.24 23.5C133.786 26.6688 138.395 28.3861 143.15 28.31C147.973 28.3693 152.642 26.6131 156.23 23.39C157.982 21.8291 159.375 19.9069 160.312 17.7558C161.25 15.6047 161.71 13.276 161.66 10.93C161.623 8.7322 160.998 6.58438 159.85 4.71002C158.801 2.76852 157.096 1.26249 155.04 0.460022C154.81 0.290022 154.81 0.01 155.04 0H159.43C160.43 0 161.24 1.53 161.87 4.53C162.41 6.76137 162.745 9.03757 162.87 11.33C162.87 16.5336 160.803 21.524 157.124 25.2035C153.444 28.8829 148.454 30.95 143.25 30.95C138.047 30.95 133.056 28.8829 129.377 25.2035C125.697 21.524 123.63 16.5336 123.63 11.33C123.775 9.07914 124.109 6.84451 124.63 4.65002L124.52 4.64001Z" fill="#EBB713"/>
<path d="M72.9101 85.0902C72.9071 85.0017 72.9316 84.9144 72.9801 84.8402V84.7202L73.0701 84.6102L73.1201 84.5602C73.1694 84.5155 73.2335 84.4906 73.3001 84.4902H85.5001C85.7501 84.4902 85.9601 85.0402 85.9601 85.2502C85.9601 85.4602 86.1201 87.1002 85.3401 87.1002C85.0901 87.1002 84.8301 86.8902 84.5501 86.5002C84.4648 86.3292 84.3375 86.1826 84.1801 86.0742C84.0227 85.9658 83.8403 85.899 83.6501 85.8802H80.7201L80.4201 86.1802V98.9802C80.4201 99.1602 80.6501 99.3702 81.1101 99.6002C81.5701 99.8302 81.8101 100.09 81.8101 100.37C81.8101 100.65 81.7201 100.83 81.5101 100.83H78.1101C77.7201 100.83 77.1901 100.59 77.1901 100.2C77.1901 99.9702 77.4001 99.6902 77.7901 99.3902C77.9659 99.2853 78.114 99.1397 78.2218 98.9657C78.3297 98.7917 78.3943 98.5943 78.4101 98.3902V86.3902C78.3812 86.2785 78.3235 86.1763 78.2428 86.0938C78.1621 86.0114 78.0612 85.9515 77.9501 85.9202H75.0401C74.7401 85.9202 74.4401 86.1602 74.1901 86.6202C73.9401 87.0802 73.6301 87.3102 73.3301 87.3102C73.0301 87.3102 72.8701 87.2202 72.8701 87.0102V85.1402L72.9101 85.0902Z" fill="#EBB713"/>
<path d="M94.4301 84.49H105.06C105.33 84.49 105.52 85.03 105.52 85.42V85.74C105.541 86.0363 105.51 86.334 105.43 86.62C105.36 86.96 105.18 87.1 104.9 87.1C104.62 87.1 104.39 86.89 104.09 86.5C104.003 86.3301 103.876 86.1845 103.719 86.0762C103.561 85.968 103.38 85.9006 103.19 85.88H97.5002V91.88H102.12C102.45 91.88 102.72 91.64 102.93 91.18C103.14 90.72 103.4 90.49 103.65 90.49C103.78 90.4758 103.91 90.5128 104.013 90.5931C104.115 90.6734 104.183 90.7907 104.2 90.92C104.276 91.176 104.3 91.4446 104.27 91.71V92.03C104.27 92.1 104.32 92.73 104.32 93.17C104.32 93.84 104.21 94.64 103.65 94.64C103.4 94.64 103.14 94.43 102.89 94.04C102.64 93.65 102.38 93.42 102.12 93.42H97.5002V98.96C97.5002 99.24 98.0101 99.43 98.2701 99.43H103.65C104.475 99.2896 105.214 98.8343 105.71 98.16C105.743 98.1209 105.785 98.0899 105.831 98.0691C105.878 98.0483 105.929 98.0384 105.98 98.04H106.12C106.4 98.04 106.42 98.13 106.42 98.5C106.398 98.9886 106.314 99.4725 106.17 99.94C106.01 100.51 105.78 100.81 105.5 100.81H95.0801C94.5701 100.81 94.3102 100.6 94.3102 100.19C94.3102 99.98 94.5002 99.77 94.8502 99.57C95.2002 99.37 95.3802 99.17 95.3802 98.96V86.33C95.3802 86.08 95.1701 85.85 94.7601 85.64C94.3501 85.43 94.1602 85.2 94.1602 84.94C94.1602 84.68 94.1601 84.48 94.4601 84.48L94.4301 84.49Z" fill="#EBB713"/>
<path d="M116.57 86.64C117.373 85.8414 118.329 85.2129 119.381 84.792C120.432 84.371 121.558 84.1663 122.69 84.19C123.789 84.1596 124.882 84.3622 125.897 84.7844C126.912 85.2067 127.827 85.8391 128.58 86.64C129.37 87.4232 129.994 88.359 130.411 89.3904C130.829 90.4218 131.033 91.5274 131.01 92.64C131.017 93.9418 130.73 95.2283 130.17 96.4039C129.611 97.5794 128.794 98.6138 127.78 99.43C127.57 99.66 125.49 100.59 125.6 100.82V100.96C128 102.286 130.72 102.923 133.46 102.8C134.113 102.815 134.765 102.744 135.4 102.59C136.14 102.379 136.86 102.102 137.55 101.76H137.71H137.78C137.873 101.748 137.967 101.748 138.06 101.76C138.123 101.792 138.176 101.843 138.21 101.905C138.244 101.968 138.258 102.039 138.25 102.11V102.34C138.25 104.1 136.77 104.98 133.79 104.98C132.721 104.962 131.66 104.79 130.64 104.47C129.62 104.157 128.618 103.787 127.64 103.36C126.665 102.926 125.663 102.555 124.64 102.25C123.625 101.924 122.566 101.752 121.5 101.74C120.987 101.767 120.485 101.893 120.02 102.11C119.613 102.306 119.178 102.438 118.73 102.5C118.29 102.5 118.27 102.41 118.27 102.04C118.307 101.74 118.445 101.462 118.66 101.25C118.869 101.046 119.006 100.779 119.05 100.49C115.75 98.41 114.11 95.8 114.11 92.63C114.086 91.5091 114.298 90.3958 114.732 89.3622C115.166 88.3285 115.813 87.3977 116.63 86.63L116.57 86.64ZM117.91 87.64C116.682 89.0117 116.02 90.799 116.06 92.64C116.028 94.4796 116.688 96.2641 117.91 97.64C118.5 98.3236 119.236 98.8669 120.063 99.2302C120.89 99.5935 121.787 99.7677 122.69 99.74C123.557 99.7722 124.42 99.5987 125.207 99.2337C125.994 98.8687 126.684 98.3226 127.22 97.64C128.4 96.2446 129.033 94.4675 129 92.64C129.048 90.8136 128.421 89.0336 127.24 87.64C126.696 86.9612 126.002 86.4182 125.212 86.0537C124.423 85.6893 123.559 85.5134 122.69 85.54C121.783 85.5267 120.885 85.7134 120.059 86.0868C119.233 86.4601 118.499 87.0109 117.91 87.7V87.64Z" fill="#EBB713"/>
<path d="M139.02 84.4899H142.43C142.94 84.4899 143.19 84.6999 143.19 85.1199C143.19 85.3299 143 85.5099 142.66 85.7199C142.32 85.9299 142.12 86.1299 142.12 86.3399V95.6999C142.119 96.2494 142.244 96.7918 142.485 97.2857C142.726 97.7796 143.077 98.212 143.51 98.5499C144.363 99.2885 145.452 99.6966 146.58 99.6999C147.698 99.6695 148.766 99.228 149.58 98.4599C150.019 98.1113 150.375 97.6693 150.623 97.166C150.87 96.6627 151.002 96.1106 151.01 95.5499V86.2999C151.01 86.0499 150.8 85.8199 150.39 85.6099C149.58 85.1699 149.77 84.6099 149.88 84.4499C149.905 84.4257 149.936 84.4084 149.97 84.3999L150.09 84.4499H151.63C151.63 84.4499 152.21 84.3999 152.51 84.3999C153.36 84.3999 153.78 84.6399 153.78 85.0799C153.78 85.2899 153.6 85.4699 153.25 85.6799C152.9 85.8899 152.72 86.0899 152.72 86.2999V95.0799C152.718 95.9045 152.538 96.719 152.193 97.4679C151.848 98.2168 151.346 98.8826 150.72 99.4199C149.53 100.59 147.929 101.247 146.26 101.25C144.633 101.219 143.082 100.559 141.931 99.4087C140.781 98.2582 140.121 96.7067 140.09 95.0799V86.2999C140.09 85.6299 138.7 85.5899 138.7 84.9099C138.7 84.5899 138.7 84.4499 139 84.4499L139.02 84.4899Z" fill="#EBB713"/>
<path d="M162.64 99.5802C162.99 99.3702 163.17 99.1902 163.17 98.9802V86.3402C163.17 86.0902 162.96 85.8502 162.55 85.6502C162.14 85.4502 161.95 85.2102 161.95 84.9502C161.95 84.6902 161.95 84.4902 162.25 84.4902H165.64C166.15 84.4902 166.41 84.7002 166.41 85.1102C166.41 85.3202 166.22 85.5102 165.87 85.7102C165.52 85.9102 165.34 86.1302 165.34 86.3402V98.9802C165.34 99.2302 165.55 99.4602 165.94 99.6702C166.33 99.8802 166.56 100.11 166.56 100.37C166.56 100.63 166.56 100.83 166.26 100.83H162.87C162.36 100.83 162.1 100.62 162.1 100.21C162.1 100 162.29 99.7902 162.63 99.5802H162.64Z" fill="#EBB713"/>
<path d="M175.36 99.5802C175.71 99.3702 175.89 99.1902 175.89 98.9802V86.3402C175.89 86.0902 175.68 85.8502 175.27 85.6502C174.86 85.4502 174.67 85.2102 174.67 84.9502C174.67 84.6902 174.67 84.4902 174.97 84.4902H178.36C178.87 84.4902 179.13 84.7002 179.13 85.1102C179.13 85.3202 178.94 85.5102 178.59 85.7102C178.24 85.9102 178.06 86.1302 178.06 86.3402V98.9802C178.06 99.2602 178.57 99.4402 178.82 99.4402H184.21C184.631 99.4041 185.039 99.2706 185.4 99.0502C185.76 98.8298 186.065 98.5286 186.29 98.1702C186.318 98.1309 186.356 98.0994 186.4 98.0784C186.443 98.0574 186.492 98.0478 186.54 98.0502H186.68C186.95 98.0502 186.98 98.1502 186.98 98.5202C186.958 99.0056 186.874 99.4861 186.73 99.9502C186.56 100.53 186.33 100.83 186.05 100.83H175.58C175.07 100.83 174.82 100.62 174.82 100.2C174.82 99.9902 175.01 99.7902 175.35 99.5802H175.36Z" fill="#EBB713"/>
<path d="M195.76 99.3302C196.135 99.0632 196.451 98.723 196.69 98.3302L202.09 86.1602V86.0202L201.38 85.3102C201.334 85.2583 201.293 85.2013 201.26 85.1402V85.0302C201.244 85.001 201.236 84.9684 201.236 84.9352C201.236 84.902 201.244 84.8694 201.26 84.8402C201.4 84.5902 201.54 84.4702 201.7 84.4702H203.85C204.01 84.4702 204.1 84.5902 204.26 84.9302L204.4 85.1702C204.453 85.2125 204.494 85.2676 204.52 85.3302C204.73 85.7702 205.65 87.8302 207.24 91.5002C208.83 95.1702 209.79 97.2102 210.02 97.6902V97.7402C210.313 98.2048 210.67 98.6257 211.08 98.9902C211.7 99.6102 212 100.05 212 100.35C212 100.65 212 100.81 211.7 100.81H208C207.73 100.81 207.7 100.7 207.7 100.35C207.7 100 208.3 99.5002 208.3 99.1002C208.258 98.661 208.143 98.2319 207.96 97.8302C207.75 97.2502 207.5 96.9502 207.24 96.9502H199.24C198.96 96.9502 198.7 97.2302 198.47 97.7902C198.29 98.2056 198.182 98.6486 198.15 99.1002C198.15 99.5002 198.77 99.9602 198.77 100.35C198.77 100.74 198.77 100.81 198.47 100.81H195.38C195.1 100.81 195.08 100.7 195.08 100.35C195.08 100 195.33 99.7202 195.84 99.3502L195.76 99.3302ZM199.76 95.1202L199.9 95.2802H206.43L206.59 95.1202V94.9602L203.52 88.0302L203.2 87.7302L203.08 87.8602C203.072 87.8566 203.064 87.8548 203.055 87.8548C203.046 87.8548 203.038 87.8566 203.03 87.8602L202.73 88.4602C202.669 88.6774 202.567 88.8809 202.43 89.0602C202.27 89.4502 201.88 90.3802 201.23 91.8102C200.58 93.2402 200.17 94.1702 199.96 94.6102L199.82 95.0702L199.76 95.1202Z" fill="#EBB713"/>
<path d="M96.3402 195.91C95.7202 195.91 95.2502 195.77 95.2502 195.56C95.2502 195.14 95.4602 194.82 95.5702 194.82C95.7745 194.862 95.9818 194.889 96.1902 194.9C99.0902 194.9 100.55 193.07 100.55 190.23C100.55 188.13 99.7202 186.41 97.5502 186.41C96.8102 186.41 96.5502 186.53 96.3902 186.65C96.2302 186.77 96.1002 187.12 95.8302 188.36L93.3202 200.15C93.212 200.607 93.1418 201.071 93.1102 201.54C93.1102 202.1 93.2302 202.27 93.9702 202.27C94.7102 202.27 94.7702 202.37 94.7702 202.51C94.7702 202.84 94.6202 203.25 94.4702 203.25C94.0302 203.25 93.2302 203.13 91.5402 203.13C90.3902 203.13 89.6202 203.25 89.1402 203.25C88.9902 203.25 88.9102 203.01 88.9102 202.48C88.9102 202.33 89.0802 202.27 89.6402 202.27C90.6402 202.27 90.9202 201.92 91.1802 200.64L93.7601 188.64C93.869 188.153 93.9392 187.658 93.9702 187.16C93.9702 186.48 93.8202 186.24 92.9702 186.24C92.5302 186.24 92.4102 186.18 92.4102 186.03C92.4102 185.62 92.5601 185.26 92.7001 185.26C92.8401 185.26 93.5601 185.38 95.0401 185.38C95.6301 185.38 96.6401 185.26 98.0401 185.26C101.17 185.26 102.63 187.42 102.63 190.06C102.63 193.79 100.26 195.95 96.3202 195.95L96.3402 195.91Z" fill="#EBB713"/>
<path d="M108.87 186.88L106 198.43C105.789 199.195 105.651 199.979 105.59 200.77C105.59 201.21 105.76 201.42 106.03 201.42C107.03 201.42 107.72 199.42 108.03 199.42C108.34 199.42 108.68 199.6 108.68 199.78C108.603 200.102 108.474 200.409 108.3 200.69C107.59 202 105.99 203.36 105.1 203.36C104.21 203.36 103.74 202.83 103.74 201.29C103.789 200.146 103.971 199.012 104.28 197.91L107.03 186.91C107.159 186.467 107.236 186.011 107.26 185.55C107.26 185.11 106.97 184.96 105.67 184.96C105.52 184.96 105.43 184.84 105.43 184.4C105.43 184.22 105.61 184.1 106.05 184.01C107.44 183.78 109.05 183.27 109.36 183.27C109.67 183.27 109.63 183.39 109.63 183.66C109.63 183.93 109.36 184.66 108.83 186.88H108.87Z" fill="#EBB713"/>
<path d="M122.43 200.83C121.72 202.01 120.15 203.4 119.43 203.4C118.71 203.4 117.95 202.84 117.95 201.65C117.987 200.893 118.167 200.15 118.48 199.46C118.6 199.2 118.48 199.08 118.42 199.08C118.36 199.08 118.21 199.17 118.1 199.34C116.26 201.98 114.66 203.4 113.18 203.4C111.94 203.4 110.93 202.01 110.93 200.35C110.93 195.47 115.11 191.77 117.62 191.77C118.014 191.774 118.403 191.86 118.761 192.024C119.119 192.188 119.439 192.425 119.7 192.72C119.85 192.86 119.93 192.98 120.05 192.98C120.17 192.98 120.41 192.72 120.52 192.48C120.63 192.24 120.79 192.04 120.94 192.04H121.59C121.71 192.04 121.77 192.16 121.77 192.3C121.77 192.44 121.5 193.3 121.15 194.79L120.2 198.67C119.994 199.377 119.847 200.099 119.76 200.83C119.76 201.21 119.85 201.42 120.23 201.42C120.97 201.42 121.95 199.7 122.23 199.7C122.363 199.712 122.489 199.764 122.591 199.85C122.693 199.936 122.766 200.051 122.8 200.18C122.725 200.413 122.613 200.632 122.47 200.83H122.43ZM117.19 193.16C115.14 193.16 112.98 197.1 112.98 200.23C112.98 201.03 113.4 201.45 113.98 201.45C115.46 201.45 117.41 199.19 118.57 197.15C118.956 196.569 119.18 195.896 119.22 195.2C119.193 194.678 118.974 194.185 118.605 193.815C118.235 193.446 117.742 193.227 117.22 193.2L117.19 193.16Z" fill="#EBB713"/>
<path d="M131.79 193.19H129.54C129.3 193.19 129.13 193.31 129.04 193.63L127.83 198.57C127.641 199.239 127.52 199.926 127.47 200.62C127.47 201.06 127.65 201.33 127.89 201.33C128.72 201.33 129.51 199.55 129.96 199.55C130.101 199.579 130.231 199.647 130.335 199.746C130.439 199.845 130.514 199.971 130.55 200.11C130.55 200.26 130.4 200.47 130.05 200.94C128.57 202.86 127.42 203.4 126.59 203.4C125.99 203.4 125.59 202.69 125.59 201.4C125.605 200.752 125.696 200.107 125.86 199.48L127.04 194.74C127.169 194.305 127.26 193.86 127.31 193.41C127.31 193.23 127.22 193.15 127.04 193.15H125.71C125.68 193.154 125.649 193.152 125.62 193.143C125.591 193.135 125.564 193.12 125.542 193.1C125.519 193.08 125.501 193.055 125.488 193.028C125.476 193 125.47 192.97 125.47 192.94C125.47 192.73 125.65 191.99 125.86 191.99H127.36C127.45 192.001 127.541 191.978 127.614 191.924C127.686 191.869 127.735 191.789 127.75 191.7L128.49 188.7C128.67 188.445 128.902 188.23 129.171 188.072C129.44 187.913 129.74 187.814 130.05 187.78C130.32 187.78 130.38 187.9 130.38 188.04C130.328 188.377 130.258 188.71 130.17 189.04L129.73 190.84C129.646 191.141 129.586 191.449 129.55 191.76C129.55 191.94 129.61 192.03 129.81 192.03H131.97C132.003 192.03 132.036 192.036 132.067 192.05C132.097 192.063 132.125 192.083 132.147 192.107C132.17 192.131 132.187 192.16 132.198 192.192C132.209 192.223 132.213 192.257 132.21 192.29C132.21 192.53 132.06 193.18 131.82 193.18L131.79 193.19Z" fill="#EBB713"/>
<path d="M138.87 201.39C138.544 201.911 138.114 202.357 137.606 202.702C137.098 203.046 136.524 203.28 135.92 203.39C135.15 203.39 134.55 202.68 134.55 201.29C134.565 200.442 134.713 199.602 134.99 198.8L135.99 195.72C136.151 195.262 136.252 194.785 136.29 194.3C136.29 193.95 136.17 193.71 135.81 193.71C135.1 193.71 134.63 194.78 134.3 194.78C133.97 194.78 133.68 194.54 133.68 194.36C133.68 194.18 133.8 194.01 134.16 193.53C134.47 193.053 134.878 192.647 135.358 192.34C135.837 192.033 136.377 191.832 136.94 191.75C137.71 191.75 138.19 192.29 138.19 193.47C138.157 194.401 137.985 195.321 137.68 196.2L136.68 199.37C136.539 199.789 136.468 200.228 136.47 200.67C136.47 201.11 136.68 201.41 137.09 201.41C137.83 201.41 138.48 199.84 138.75 199.84C138.899 199.867 139.037 199.932 139.152 200.031C139.266 200.13 139.352 200.257 139.4 200.4C139.4 200.64 139.1 201.02 138.87 201.4V201.39ZM137.87 188.39C137.72 188.396 137.571 188.37 137.431 188.316C137.291 188.261 137.164 188.178 137.058 188.072C136.952 187.966 136.869 187.839 136.815 187.699C136.76 187.56 136.734 187.41 136.74 187.26C136.747 186.864 136.903 186.485 137.178 186.2C137.452 185.914 137.824 185.743 138.22 185.72C138.78 185.72 139.17 186.05 139.17 186.79C139.17 187.53 138.64 188.42 137.87 188.42V188.39Z" fill="#EBB713"/>
<path d="M153.32 201.12C152.67 202.12 151.32 203.4 150.39 203.4C149.46 203.4 148.88 202.81 148.88 201.4C148.904 200.672 149.032 199.952 149.26 199.26L150.21 196.26C150.339 195.808 150.41 195.341 150.42 194.87C150.42 194.25 150.1 193.87 149.62 193.87C148.38 193.87 145.51 197.42 145.03 199.34L144.26 202.48C144.15 202.98 144.06 203.07 143.88 203.07H142.58C142.46 203.07 142.4 202.98 142.4 202.8C142.507 202.203 142.648 201.612 142.82 201.03L144.18 195.55C144.291 195.162 144.358 194.763 144.38 194.36C144.38 194.01 144.26 193.77 144 193.77C143.05 193.77 142.43 195.28 142 195.28C141.876 195.268 141.76 195.216 141.67 195.131C141.579 195.046 141.519 194.933 141.5 194.81C141.617 194.464 141.797 194.142 142.03 193.86C142.693 192.791 143.742 192.017 144.96 191.7C145.82 191.7 146.14 192.59 146.14 193.8C146.029 194.486 145.842 195.157 145.58 195.8C145.58 195.92 145.64 195.98 145.73 195.98C145.82 195.98 146.03 195.71 146.18 195.5C148.28 192.6 149.58 191.66 150.62 191.66C151.86 191.66 152.39 192.57 152.39 193.82C152.364 194.613 152.236 195.4 152.01 196.16L151.01 199.38C150.855 199.818 150.768 200.276 150.75 200.74C150.75 201.13 150.95 201.34 151.25 201.34C152.02 201.34 152.67 199.77 153.2 199.77C153.35 199.77 153.71 200.09 153.71 200.24C153.623 200.516 153.491 200.777 153.32 201.01V201.12Z" fill="#EBB713"/>
<path d="M161.12 201.39C160.789 201.916 160.351 202.366 159.834 202.711C159.317 203.055 158.733 203.287 158.12 203.39C157.36 203.39 156.76 202.68 156.76 201.29C156.775 200.442 156.924 199.602 157.2 198.8L158.2 195.72C158.359 195.262 158.456 194.784 158.49 194.3C158.49 193.95 158.38 193.71 158.02 193.71C157.31 193.71 156.84 194.78 156.51 194.78C156.18 194.78 155.89 194.54 155.89 194.36C155.89 194.18 156.01 194.01 156.37 193.53C156.68 193.053 157.089 192.647 157.568 192.34C158.047 192.033 158.587 191.832 159.15 191.75C159.92 191.75 160.39 192.29 160.39 193.47C160.356 194.4 160.188 195.319 159.89 196.2L158.89 199.37C158.749 199.789 158.678 200.228 158.68 200.67C158.68 201.11 158.89 201.41 159.3 201.41C160.04 201.41 160.69 199.84 160.96 199.84C161.108 199.869 161.246 199.935 161.36 200.033C161.474 200.132 161.56 200.258 161.61 200.4C161.61 200.64 161.31 201.02 161.08 201.4L161.12 201.39ZM160.12 188.39C159.971 188.396 159.822 188.371 159.683 188.316C159.543 188.261 159.417 188.178 159.312 188.071C159.207 187.965 159.125 187.838 159.071 187.698C159.017 187.559 158.993 187.41 159 187.26C159.007 186.864 159.163 186.485 159.438 186.2C159.712 185.914 160.085 185.743 160.48 185.72C161.04 185.72 161.43 186.05 161.43 186.79C161.43 187.53 160.89 188.39 160.12 188.39Z" fill="#EBB713"/>
<path d="M175.94 200.7C174.55 202.56 173.27 203.39 172.47 203.39C171.67 203.39 171.47 202.68 171.47 201.55C171.553 200.778 171.741 200.021 172.03 199.3C172.03 199.15 171.97 199.07 171.88 199.07C171.79 199.07 171.64 199.27 171.55 199.42C169.72 202.15 168.12 203.42 166.82 203.42C165.52 203.42 164.9 202.56 164.9 201.22C164.908 200.284 165.067 199.355 165.37 198.47L166.2 196.11C166.414 195.498 166.532 194.857 166.55 194.21C166.555 194.144 166.547 194.077 166.526 194.015C166.506 193.952 166.472 193.894 166.428 193.844C166.384 193.795 166.331 193.755 166.271 193.726C166.211 193.698 166.146 193.682 166.08 193.68C165.28 193.68 164.81 194.8 164.45 194.8C164.28 194.8 163.92 194.54 163.92 194.36C164.031 194.075 164.179 193.806 164.36 193.56C164.657 193.096 165.046 192.698 165.504 192.392C165.962 192.086 166.478 191.877 167.02 191.78C167.76 191.78 168.41 192.56 168.41 193.86C168.398 194.541 168.28 195.215 168.06 195.86L167.17 198.61C167.003 199.148 166.916 199.707 166.91 200.27C166.91 201.01 167.26 201.34 167.79 201.34C169.39 201.34 172.03 197.88 172.65 195.45L173.39 192.55C173.47 192.25 173.6 192.07 173.77 192.07H175.04C175.16 192.07 175.22 192.13 175.22 192.31C175.089 193.008 174.922 193.699 174.72 194.38L173.59 198.88C173.426 199.492 173.319 200.118 173.27 200.75C173.27 201.13 173.47 201.34 173.74 201.34C174.54 201.34 175.4 199.65 175.74 199.65C175.876 199.676 176.001 199.74 176.1 199.836C176.2 199.932 176.269 200.055 176.3 200.19C176.215 200.397 176.093 200.586 175.94 200.75V200.7Z" fill="#EBB713"/>
<path d="M195.49 201.12C194.81 202.19 193.49 203.4 192.65 203.4C191.81 203.4 191.05 202.75 191.05 201.24C191.073 200.535 191.201 199.837 191.43 199.17L192.26 196.68C192.485 196.037 192.607 195.362 192.62 194.68C192.62 194.2 192.41 193.91 191.94 193.91C190.99 193.91 188.15 197.22 187.62 199.35L186.85 202.49C186.76 202.87 186.64 203.08 186.49 203.08H185.16C185.01 203.08 184.95 202.99 184.95 202.84C185.042 202.34 185.162 201.846 185.31 201.36L186.52 196.48C186.686 195.91 186.787 195.323 186.82 194.73C186.82 194.2 186.58 193.93 186.16 193.93C185.1 193.93 182.32 197.54 181.9 199.23L181.11 202.43C180.99 202.87 180.9 203.08 180.72 203.08H179.43C179.28 203.08 179.22 202.96 179.22 202.79C179.308 202.306 179.428 201.828 179.58 201.36L181.06 195.47C181.16 195.105 181.217 194.729 181.23 194.35C181.23 193.97 181.12 193.73 180.85 193.73C180.08 193.73 179.28 195.36 178.93 195.36C178.804 195.323 178.689 195.258 178.592 195.169C178.495 195.081 178.419 194.972 178.37 194.85C178.511 194.518 178.689 194.203 178.9 193.91C179.217 193.353 179.649 192.869 180.166 192.49C180.682 192.111 181.274 191.845 181.9 191.71C182.61 191.71 182.97 192.6 182.97 193.71C182.874 194.419 182.693 195.114 182.43 195.78C182.43 195.93 182.49 196.02 182.58 196.02C182.67 196.02 182.82 195.84 182.94 195.66C185.04 192.66 186.23 191.66 187.23 191.66C187.673 191.708 188.079 191.928 188.361 192.272C188.643 192.616 188.779 193.057 188.74 193.5C188.648 194.265 188.481 195.019 188.24 195.75C188.24 195.89 188.3 195.98 188.39 195.98C188.48 195.98 188.68 195.75 188.86 195.48C190.72 192.64 192.03 191.66 193 191.66C193.97 191.66 194.57 192.37 194.57 193.59C194.543 194.441 194.405 195.285 194.16 196.1L193.3 198.89C193.116 199.453 193.008 200.038 192.98 200.63C192.98 201.07 193.21 201.31 193.57 201.31C194.25 201.31 194.93 199.71 195.29 199.71C195.65 199.71 195.94 200.01 195.94 200.19C195.835 200.487 195.686 200.766 195.5 201.02L195.49 201.12Z" fill="#EBB713"/>
<path d="M202.83 193.01L202.71 192.95C202.55 192.795 202.406 192.624 202.28 192.44C202.147 192.287 202.033 192.12 201.94 191.94C202.057 191.842 202.181 191.752 202.31 191.67C202.416 191.591 202.503 191.491 202.567 191.375C202.631 191.26 202.669 191.132 202.68 191C202.678 190.881 202.65 190.764 202.598 190.657C202.546 190.55 202.472 190.456 202.38 190.38C202.294 190.296 202.193 190.23 202.081 190.185C201.969 190.141 201.85 190.118 201.73 190.12H200.52C200.52 190.12 200.52 190.12 200.52 190.21C200.52 190.3 200.52 190.3 200.64 190.34C200.76 190.38 200.76 190.42 200.76 190.45V192.99C200.76 192.99 200.76 193.06 200.65 193.1C200.54 193.14 200.54 193.19 200.54 193.23C200.54 193.27 200.65 193.36 200.86 193.36H201.37C201.37 193.36 201.46 193.36 201.46 193.24C201.46 193.12 201.41 193.16 201.32 193.13C201.23 193.1 201.18 193.05 201.18 193V192C201.18 192 201.18 192 201.27 192C202.06 192 202.03 193.4 202.82 193.4C202.96 193.4 203.08 193.4 203.1 193.24C203.12 193.08 202.99 193.12 202.86 193.06L202.83 193.01ZM201.7 191.61H201.15V190.42H201.21H201.33C201.54 190.414 201.748 190.455 201.94 190.54C202.039 190.578 202.124 190.645 202.183 190.733C202.242 190.82 202.273 190.924 202.27 191.03C202.265 191.191 202.201 191.344 202.09 191.46C202.042 191.517 201.982 191.562 201.915 191.593C201.848 191.624 201.774 191.64 201.7 191.64V191.61Z" fill="#EBB713"/>
<path d="M201.62 189.02C201.076 189.02 200.545 189.181 200.092 189.483C199.64 189.786 199.288 190.215 199.079 190.718C198.871 191.22 198.817 191.773 198.923 192.307C199.029 192.84 199.291 193.33 199.676 193.715C200.06 194.099 200.55 194.361 201.084 194.467C201.617 194.573 202.17 194.519 202.673 194.311C203.175 194.103 203.604 193.75 203.907 193.298C204.209 192.846 204.37 192.314 204.37 191.77C204.37 191.041 204.08 190.341 203.565 189.825C203.049 189.31 202.349 189.02 201.62 189.02ZM201.62 194.24C201.132 194.24 200.654 194.095 200.248 193.824C199.842 193.552 199.525 193.167 199.338 192.715C199.151 192.264 199.102 191.767 199.198 191.288C199.293 190.809 199.528 190.369 199.874 190.023C200.219 189.678 200.659 189.443 201.138 189.347C201.617 189.252 202.114 189.301 202.565 189.488C203.017 189.675 203.402 189.992 203.674 190.398C203.945 190.804 204.09 191.281 204.09 191.77C204.088 192.424 203.826 193.051 203.364 193.514C202.901 193.976 202.274 194.237 201.62 194.24Z" fill="#EBB713"/>
</g>
<defs>
<clipPath id="clip0_241_15794">
<rect width="284.87" height="203.4" fill="white"/>
</clipPath>
</defs>
</svg>
